<ttFont>
<head>
    <!-- Most of this table will be recalculated by the compiler -->
    <tableVersion value="1.0"/>
    <fontRevision value="1.00199890137"/>
    <checkSumAdjustment value="0xe57d8c29"/>
    <magicNumber value="0x5f0f3cf5"/>
    <flags value="00000000 00001011"/>
    <unitsPerEm value="2048"/>
    <created value="Mon Oct 24 12:21:59 2011"/>
    <modified value="Mon Oct 24 12:21:59 2011"/>
    <xMin value="-195"/>
    <yMin value="-1363"/>
    <xMax value="2897"/>
    <yMax value="2600"/>
    <macStyle value="00000000 00000000"/>
    <lowestRecPPEM value="8"/>
    <fontDirectionHint value="2"/>
    <indexToLocFormat value="0"/>
    <glyphDataFormat value="0"/>
  </head>
    <TTGlyph name=".notdef" xMin="68" yMin="0" xMax="612" yMax="1365">
      <contour>
        <pt x="68" y="0" on="1"/>
        <pt x="68" y="1365" on="1"/>
        <pt x="612" y="1365" on="1"/>
        <pt x="612" y="0" on="1"/>
      </contour>
      <contour>
        <pt x="136" y="68" on="1"/>
        <pt x="544" y="68" on="1"/>
        <pt x="544" y="1297" on="1"/>
        <pt x="136" y="1297" on="1"/>
      </contour>
    </TTGlyph>
    <TTGlyph name="A" xMin="32" yMin="-443" xMax="964" yMax="1478">
      <contour>
        <pt x="604" y="-284" on="1"/>
        <pt x="625" y="-260" on="0"/>
        <pt x="625" y="-237" on="1"/>
        <pt x="625" y="-198" on="1"/>
        <pt x="644" y="-166" on="1"/>
        <pt x="625" y="-145" on="1"/>
        <pt x="604" y="-175" on="1"/>
        <pt x="587" y="-96" on="1"/>
        <pt x="551" y="-129" on="0"/>
        <pt x="542" y="-147" on="0"/>
        <pt x="534" y="-187" on="0"/>
        <pt x="525" y="-213" on="1"/>
        <pt x="522" y="-145" on="1"/>
        <pt x="522" y="-112" on="0"/>
        <pt x="544" y="-73" on="1"/>
        <pt x="525" y="-51" on="1"/>
        <pt x="546" y="13" on="1"/>
        <pt x="546" y="35" on="0"/>
        <pt x="483" y="110" on="0"/>
        <pt x="461" y="110" on="1"/>
        <pt x="432" y="89" on="1"/>
        <pt x="446" y="89" on="1"/>
        <pt x="452" y="65" on="1"/>
        <pt x="444" y="65" on="1"/>
        <pt x="432" y="-28" on="1"/>
        <pt x="420" y="-28" on="0"/>
        <pt x="406" y="-7" on="0"/>
        <pt x="392" y="-7" on="1"/>
        <pt x="392" y="-274" on="1"/>
        <pt x="370" y="-219" on="0"/>
        <pt x="370" y="-109" on="1"/>
        <pt x="367" y="-141" on="0"/>
        <pt x="341" y="-166" on="0"/>
        <pt x="312" y="-166" on="1"/>
        <pt x="312" y="-122" on="1"/>
        <pt x="290" y="-97" on="1"/>
        <pt x="272" y="-122" on="1"/>
        <pt x="294" y="-186" on="1"/>
        <pt x="290" y="-188" on="1"/>
        <pt x="280" y="-286" on="1"/>
        <pt x="272" y="-284" on="1"/>
        <pt x="230" y="-208" on="0"/>
        <pt x="230" y="-43" on="1"/>
        <pt x="230" y="46" on="1"/>
        <pt x="230" y="76" on="0"/>
        <pt x="196" y="226" on="0"/>
        <pt x="196" y="284" on="0"/>
        <pt x="212" y="338" on="0"/>
        <pt x="226" y="342" on="1"/>
        <pt x="210" y="342" on="1"/>
        <pt x="234" y="396" on="1"/>
        <pt x="208" y="460" on="1"/>
        <pt x="210" y="528" on="1"/>
        <pt x="230" y="528" on="1"/>
        <pt x="210" y="551" on="1"/>
        <pt x="230" y="667" on="1"/>
        <pt x="210" y="690" on="1"/>
        <pt x="232" y="712" on="0"/>
        <pt x="232" y="760" on="1"/>
        <pt x="210" y="969" on="1"/>
        <pt x="230" y="1060" on="1"/>
        <pt x="210" y="1291" on="1"/>
        <pt x="230" y="1291" on="1"/>
        <pt x="230" y="1316" on="1"/>
        <pt x="216" y="1316" on="0"/>
        <pt x="159" y="1359" on="0"/>
        <pt x="142" y="1362" on="1"/>
        <pt x="152" y="1362" on="1"/>
        <pt x="118" y="1400" on="0"/>
        <pt x="32" y="1431" on="1"/>
        <pt x="94" y="1478" on="0"/>
        <pt x="509" y="1478" on="1"/>
        <pt x="710" y="1478" on="0"/>
        <pt x="964" y="1431" on="1"/>
        <pt x="823" y="1351" on="0"/>
        <pt x="796" y="1212" on="1"/>
        <pt x="783" y="1145" on="0"/>
        <pt x="780" y="1082" on="1"/>
        <pt x="769" y="854" on="0"/>
        <pt x="753" y="785" on="1"/>
        <pt x="762" y="803" on="1"/>
        <pt x="761" y="782" on="0"/>
        <pt x="745" y="654" on="0"/>
        <pt x="745" y="620" on="1"/>
        <pt x="745" y="622" on="0"/>
        <pt x="762" y="687" on="0"/>
        <pt x="762" y="704" on="1"/>
        <pt x="762" y="640" on="1"/>
        <pt x="762" y="640" on="0"/>
        <pt x="751" y="549" on="1"/>
        <pt x="751" y="524" on="0"/>
        <pt x="762" y="483" on="1"/>
        <pt x="762" y="541" on="1"/>
        <pt x="766" y="483" on="1"/>
        <pt x="766" y="474" on="0"/>
        <pt x="745" y="411" on="1"/>
        <pt x="762" y="373" on="0"/>
        <pt x="762" y="302" on="0"/>
        <pt x="741" y="204" on="0"/>
        <pt x="741" y="158" on="0"/>
        <pt x="703" y="46" on="0"/>
        <pt x="703" y="19" on="1"/>
        <pt x="723" y="19" on="1"/>
        <pt x="705" y="-23" on="0"/>
        <pt x="684" y="-191" on="0"/>
        <pt x="665" y="-304" on="0"/>
        <pt x="644" y="-304" on="1"/>
        <pt x="644" y="-329" on="1"/>
        <pt x="627" y="-331" on="1"/>
        <pt x="604" y="-294" on="1"/>
      </contour>
      <contour>
        <pt x="525" y="714" on="1"/>
        <pt x="517" y="712" on="1"/>
        <pt x="505" y="712" on="0"/>
        <pt x="505" y="777" on="1"/>
        <pt x="505" y="813" on="1"/>
        <pt x="501" y="769" on="0"/>
        <pt x="452" y="581" on="0"/>
        <pt x="452" y="528" on="1"/>
        <pt x="432" y="529" on="1"/>
        <pt x="432" y="505" on="1"/>
        <pt x="452" y="505" on="1"/>
        <pt x="452" y="491" on="0"/>
        <pt x="415" y="399" on="0"/>
        <pt x="412" y="389" on="1"/>
        <pt x="487" y="389" on="1"/>
        <pt x="535" y="389" on="0"/>
        <pt x="543" y="377" on="1"/>
        <pt x="541" y="401" on="0"/>
        <pt x="536" y="446" on="1"/>
        <pt x="525" y="545" on="0"/>
        <pt x="525" y="597" on="1"/>
        <pt x="528" y="597" on="1"/>
        <pt x="522" y="599" on="0"/>
        <pt x="522" y="658" on="0"/>
        <pt x="525" y="667" on="1"/>
        <pt x="505" y="690" on="1"/>
        <pt x="525" y="696" on="1"/>
      </contour>
      <contour>
        <pt x="583" y="-329" on="1"/>
        <pt x="556" y="-385" on="0"/>
        <pt x="563" y="-443" on="1"/>
        <pt x="544" y="-443" on="1"/>
        <pt x="544" y="-399" on="1"/>
        <pt x="544" y="-376" on="0"/>
        <pt x="580" y="-283" on="0"/>
        <pt x="583" y="-265" on="1"/>
      </contour>
      <contour>
        <pt x="745" y="770" on="1"/>
        <pt x="745" y="760" on="1"/>
        <pt x="754" y="760" on="1"/>
        <pt x="750" y="760" on="0"/>
      </contour>
      <contour>
        <pt x="525" y="13" on="1"/>
        <pt x="525" y="19" on="1"/>
        <pt x="528" y="19" on="1"/>
        <pt x="525" y="19" on="0"/>
      </contour>
    </TTGlyph>
    <TTGlyph name="AE" xMin="30" yMin="-443" xMax="1447" yMax="1507">
      <contour>
        <pt x="595" y="-284" on="1"/>
        <pt x="614" y="-261" on="0"/>
        <pt x="614" y="-198" on="1"/>
        <pt x="631" y="-166" on="1"/>
        <pt x="614" y="-145" on="1"/>
        <pt x="595" y="-175" on="1"/>
        <pt x="580" y="-96" on="1"/>
        <pt x="541" y="-122" on="1"/>
        <pt x="541" y="-158" on="0"/>
        <pt x="524" y="-213" on="1"/>
        <pt x="520" y="-145" on="1"/>
        <pt x="541" y="-73" on="1"/>
        <pt x="524" y="-51" on="1"/>
        <pt x="542" y="13" on="1"/>
        <pt x="541" y="19" on="1"/>
        <pt x="519" y="19" on="0"/>
        <pt x="512" y="50" on="1"/>
        <pt x="499" y="110" on="0"/>
        <pt x="457" y="110" on="1"/>
        <pt x="430" y="89" on="1"/>
        <pt x="430" y="85" on="0"/>
        <pt x="441" y="85" on="0"/>
        <pt x="445" y="89" on="1"/>
        <pt x="451" y="65" on="1"/>
        <pt x="443" y="65" on="1"/>
        <pt x="426" y="40" on="0"/>
        <pt x="426" y="-12" on="0"/>
        <pt x="430" y="-28" on="1"/>
        <pt x="418" y="-28" on="0"/>
        <pt x="406" y="-7" on="0"/>
        <pt x="391" y="-7" on="1"/>
        <pt x="391" y="-267" on="1"/>
        <pt x="370" y="-221" on="0"/>
        <pt x="370" y="-118" on="1"/>
        <pt x="325" y="-166" on="1"/>
        <pt x="310" y="-166" on="1"/>
        <pt x="310" y="-122" on="1"/>
        <pt x="290" y="-97" on="1"/>
        <pt x="270" y="-122" on="1"/>
        <pt x="294" y="-186" on="1"/>
        <pt x="290" y="-188" on="1"/>
        <pt x="292" y="-209" on="1"/>
        <pt x="292" y="-247" on="0"/>
        <pt x="279" y="-286" on="1"/>
        <pt x="248" y="-241" on="1"/>
        <pt x="252" y="-241" on="0"/>
        <pt x="252" y="-190" on="0"/>
        <pt x="229" y="-1" on="0"/>
        <pt x="229" y="80" on="0"/>
        <pt x="194" y="227" on="0"/>
        <pt x="194" y="263" on="1"/>
        <pt x="194" y="267" on="0"/>
        <pt x="224" y="342" on="1"/>
        <pt x="209" y="342" on="1"/>
        <pt x="233" y="396" on="1"/>
        <pt x="207" y="420" on="0"/>
        <pt x="207" y="460" on="1"/>
        <pt x="209" y="528" on="1"/>
        <pt x="229" y="528" on="1"/>
        <pt x="209" y="551" on="1"/>
        <pt x="229" y="667" on="1"/>
        <pt x="209" y="690" on="1"/>
        <pt x="231" y="749" on="0"/>
        <pt x="231" y="760" on="1"/>
        <pt x="231" y="848" on="0"/>
        <pt x="209" y="1202" on="0"/>
        <pt x="209" y="1291" on="1"/>
        <pt x="215" y="1288" on="0"/>
        <pt x="222" y="1288" on="0"/>
        <pt x="233" y="1301" on="0"/>
        <pt x="233" y="1308" on="1"/>
        <pt x="233" y="1321" on="0"/>
        <pt x="162" y="1359" on="0"/>
        <pt x="141" y="1362" on="1"/>
        <pt x="150" y="1362" on="1"/>
        <pt x="116" y="1400" on="0"/>
        <pt x="30" y="1431" on="1"/>
        <pt x="65" y="1456" on="0"/>
        <pt x="724" y="1507" on="0"/>
        <pt x="846" y="1507" on="1"/>
        <pt x="1122" y="1507" on="0"/>
        <pt x="1447" y="1443" on="1"/>
        <pt x="1406" y="1407" on="0"/>
        <pt x="1278" y="1075" on="0"/>
        <pt x="1264" y="1000" on="1"/>
        <pt x="1266" y="1002" on="1"/>
        <pt x="1246" y="795" on="1"/>
        <pt x="1186" y="795" on="0"/>
        <pt x="935" y="866" on="0"/>
        <pt x="874" y="866" on="1"/>
        <pt x="880" y="679" on="1"/>
        <pt x="864" y="656" on="1"/>
        <pt x="898" y="679" on="1"/>
        <pt x="1060" y="679" on="1"/>
        <pt x="1073" y="679" on="0"/>
        <pt x="1122" y="653" on="0"/>
        <pt x="1144" y="653" on="0"/>
        <pt x="1150" y="656" on="1"/>
        <pt x="1150" y="610" on="0"/>
        <pt x="1126" y="393" on="0"/>
        <pt x="1115" y="377" on="1"/>
        <pt x="1060" y="402" on="1"/>
        <pt x="898" y="402" on="1"/>
        <pt x="864" y="377" on="1"/>
        <pt x="864" y="238" on="1"/>
        <pt x="870" y="214" on="0"/>
        <pt x="877" y="214" on="0"/>
        <pt x="880" y="217" on="1"/>
        <pt x="880" y="261" on="1"/>
        <pt x="1044" y="261" on="1"/>
        <pt x="1064" y="261" on="0"/>
        <pt x="1145" y="235" on="0"/>
        <pt x="1179" y="235" on="0"/>
        <pt x="1188" y="238" on="1"/>
        <pt x="1171" y="183" on="0"/>
        <pt x="1171" y="146" on="1"/>
        <pt x="1164" y="146" on="1"/>
        <pt x="1150" y="122" on="1"/>
        <pt x="1150" y="117" on="0"/>
        <pt x="1150" y="106" on="1"/>
        <pt x="1150" y="-98" on="0"/>
        <pt x="1110" y="-165" on="1"/>
        <pt x="1115" y="-248" on="1"/>
        <pt x="1079" y="-294" on="1"/>
        <pt x="1060" y="-248" on="1"/>
        <pt x="1065" y="-239" on="0"/>
        <pt x="1098" y="-87" on="0"/>
        <pt x="1098" y="-16" on="0"/>
        <pt x="1073" y="31" on="0"/>
        <pt x="1024" y="31" on="1"/>
        <pt x="982" y="31" on="0"/>
        <pt x="937" y="-89" on="1"/>
        <pt x="895" y="-89" on="0"/>
        <pt x="880" y="-67" on="0"/>
        <pt x="880" y="-16" on="1"/>
        <pt x="864" y="6" on="1"/>
        <pt x="872" y="-165" on="1"/>
        <pt x="872" y="-316" on="0"/>
        <pt x="808" y="-316" on="1"/>
        <pt x="808" y="55" on="1"/>
        <pt x="787" y="79" on="0"/>
        <pt x="752" y="79" on="1"/>
        <pt x="697" y="79" on="0"/>
        <pt x="685" y="19" on="1"/>
        <pt x="702" y="19" on="1"/>
        <pt x="693" y="-4" on="0"/>
        <pt x="682" y="-88" on="1"/>
        <pt x="652" y="-304" on="0"/>
        <pt x="631" y="-304" on="1"/>
        <pt x="632" y="-305" on="0"/>
        <pt x="632" y="-333" on="0"/>
        <pt x="621" y="-333" on="1"/>
        <pt x="618" y="-333" on="0"/>
        <pt x="616" y="-331" on="1"/>
        <pt x="595" y="-294" on="1"/>
      </contour>
      <contour>
        <pt x="524" y="714" on="1"/>
        <pt x="516" y="712" on="1"/>
        <pt x="507" y="712" on="0"/>
        <pt x="489" y="762" on="0"/>
        <pt x="489" y="786" on="1"/>
        <pt x="488" y="744" on="0"/>
        <pt x="451" y="575" on="0"/>
        <pt x="451" y="528" on="1"/>
        <pt x="430" y="529" on="1"/>
        <pt x="430" y="505" on="1"/>
        <pt x="451" y="505" on="1"/>
        <pt x="451" y="491" on="0"/>
        <pt x="412" y="395" on="0"/>
        <pt x="410" y="389" on="1"/>
        <pt x="487" y="389" on="1"/>
        <pt x="533" y="389" on="0"/>
        <pt x="540" y="377" on="1"/>
        <pt x="524" y="537" on="0"/>
        <pt x="524" y="597" on="1"/>
        <pt x="528" y="597" on="1"/>
        <pt x="522" y="600" on="0"/>
        <pt x="522" y="661" on="0"/>
        <pt x="524" y="667" on="1"/>
        <pt x="503" y="690" on="1"/>
        <pt x="524" y="696" on="1"/>
      </contour>
      <contour>
        <pt x="576" y="-329" on="1"/>
        <pt x="553" y="-375" on="0"/>
        <pt x="558" y="-443" on="1"/>
        <pt x="541" y="-443" on="1"/>
        <pt x="541" y="-399" on="1"/>
        <pt x="541" y="-377" on="0"/>
        <pt x="573" y="-283" on="0"/>
        <pt x="576" y="-265" on="1"/>
      </contour>
      <contour>
        <pt x="524" y="14" on="1"/>
        <pt x="524" y="19" on="1"/>
        <pt x="526" y="19" on="1"/>
        <pt x="524" y="19" on="0"/>
      </contour>
    </TTGlyph>
    <TTGlyph name="Aacute" xMin="32" yMin="-443" xMax="1209" yMax="2154">
      <component glyphName="acute" x="414" y="80" flags="0x1004"/>
      <component glyphName="A" x="0" y="0" flags="0x1204"/>
    </TTGlyph>
    <TTGlyph name="Abreve" xMin="32" yMin="-443" xMax="996" yMax="2224">
      <component glyphName="breve" x="121" y="1796" flags="0x1004"/>
      <component glyphName="A" x="0" y="0" flags="0x1204"/>
    </TTGlyph>
    <TTGlyph name="Acircumflex" xMin="32" yMin="-443" xMax="964" yMax="2338">
      <component glyphName="circumflex" x="-47" y="196" flags="0x1004"/>
      <component glyphName="A" x="0" y="0" flags="0x1204"/>
    </TTGlyph>
    <TTGlyph name="Adieresis" xMin="13" yMin="-443" xMax="1020" yMax="2143">
      <component glyphName="dieresis" x="-126" y="1" flags="0x1004"/>
      <component glyphName="A" x="0" y="0" flags="0x1204"/>
    </TTGlyph>
    <TTGlyph name="Agrave" xMin="-92" yMin="-443" xMax="964" yMax="2150">
      <component glyphName="grave" x="-195" y="78" flags="0x1004"/>
      <component glyphName="A" x="0" y="0" flags="0x1204"/>
    </TTGlyph>
    <TTGlyph name="Amacron" xMin="32" yMin="-443" xMax="964" yMax="1901">
      <component glyphName="macron" x="40" y="1054" flags="0x1004"/>
      <component glyphName="A" x="0" y="0" flags="0x1204"/>
    </TTGlyph>
    <TTGlyph name="Aogonek" xMin="32" yMin="-862" xMax="971" yMax="1478">
      <contour>
        <pt x="525" y="13" on="1"/>
        <pt x="525" y="19" on="1"/>
        <pt x="528" y="19" on="1"/>
        <pt x="525" y="19" on="0"/>
      </contour>
      <contour>
        <pt x="745" y="770" on="1"/>
        <pt x="745" y="760" on="1"/>
        <pt x="754" y="760" on="1"/>
        <pt x="750" y="760" on="0"/>
      </contour>
      <contour>
        <pt x="525" y="714" on="1"/>
        <pt x="517" y="712" on="1"/>
        <pt x="505" y="712" on="0"/>
        <pt x="505" y="777" on="1"/>
        <pt x="505" y="813" on="1"/>
        <pt x="501" y="769" on="0"/>
        <pt x="452" y="581" on="0"/>
        <pt x="452" y="528" on="1"/>
        <pt x="432" y="529" on="1"/>
        <pt x="432" y="505" on="1"/>
        <pt x="452" y="505" on="1"/>
        <pt x="452" y="491" on="0"/>
        <pt x="415" y="399" on="0"/>
        <pt x="412" y="389" on="1"/>
        <pt x="487" y="389" on="1"/>
        <pt x="535" y="389" on="0"/>
        <pt x="543" y="377" on="1"/>
        <pt x="541" y="401" on="0"/>
        <pt x="536" y="446" on="1"/>
        <pt x="525" y="545" on="0"/>
        <pt x="525" y="597" on="1"/>
        <pt x="528" y="597" on="1"/>
        <pt x="522" y="599" on="0"/>
        <pt x="522" y="658" on="0"/>
        <pt x="525" y="667" on="1"/>
        <pt x="505" y="690" on="1"/>
        <pt x="525" y="696" on="1"/>
      </contour>
      <contour>
        <pt x="971" y="-631" on="1"/>
        <pt x="952" y="-859" on="1"/>
        <pt x="934" y="-859" on="0"/>
        <pt x="918" y="-836" on="1"/>
        <pt x="912" y="-836" on="0"/>
        <pt x="880" y="-861" on="0"/>
        <pt x="781" y="-861" on="0"/>
        <pt x="656" y="-837" on="0"/>
        <pt x="568" y="-796" on="0"/>
        <pt x="503" y="-733" on="0"/>
        <pt x="464" y="-663" on="0"/>
        <pt x="452" y="-617" on="1"/>
        <pt x="433" y="-538" on="0"/>
        <pt x="433" y="-458" on="1"/>
        <pt x="433" y="-330" on="0"/>
        <pt x="472" y="-196" on="1"/>
        <pt x="486" y="-151" on="1"/>
        <pt x="532" y="-32" on="0"/>
        <pt x="546" y="13" on="1"/>
        <pt x="546" y="35" on="0"/>
        <pt x="483" y="110" on="0"/>
        <pt x="461" y="110" on="1"/>
        <pt x="432" y="89" on="1"/>
        <pt x="446" y="89" on="1"/>
        <pt x="452" y="65" on="1"/>
        <pt x="444" y="65" on="1"/>
        <pt x="432" y="-28" on="1"/>
        <pt x="420" y="-28" on="0"/>
        <pt x="406" y="-7" on="0"/>
        <pt x="392" y="-7" on="1"/>
        <pt x="392" y="-274" on="1"/>
        <pt x="370" y="-219" on="0"/>
        <pt x="370" y="-109" on="1"/>
        <pt x="367" y="-141" on="0"/>
        <pt x="341" y="-166" on="0"/>
        <pt x="312" y="-166" on="1"/>
        <pt x="312" y="-122" on="1"/>
        <pt x="290" y="-97" on="1"/>
        <pt x="272" y="-122" on="1"/>
        <pt x="294" y="-186" on="1"/>
        <pt x="290" y="-188" on="1"/>
        <pt x="280" y="-286" on="1"/>
        <pt x="272" y="-284" on="1"/>
        <pt x="230" y="-208" on="0"/>
        <pt x="230" y="-43" on="1"/>
        <pt x="230" y="46" on="1"/>
        <pt x="230" y="76" on="0"/>
        <pt x="196" y="226" on="0"/>
        <pt x="196" y="284" on="0"/>
        <pt x="212" y="338" on="0"/>
        <pt x="226" y="342" on="1"/>
        <pt x="210" y="342" on="1"/>
        <pt x="234" y="396" on="1"/>
        <pt x="208" y="460" on="1"/>
        <pt x="210" y="528" on="1"/>
        <pt x="230" y="528" on="1"/>
        <pt x="210" y="551" on="1"/>
        <pt x="230" y="667" on="1"/>
        <pt x="210" y="690" on="1"/>
        <pt x="232" y="712" on="0"/>
        <pt x="232" y="760" on="1"/>
        <pt x="210" y="969" on="1"/>
        <pt x="230" y="1060" on="1"/>
        <pt x="210" y="1291" on="1"/>
        <pt x="230" y="1291" on="1"/>
        <pt x="230" y="1316" on="1"/>
        <pt x="216" y="1316" on="0"/>
        <pt x="159" y="1359" on="0"/>
        <pt x="142" y="1362" on="1"/>
        <pt x="152" y="1362" on="1"/>
        <pt x="118" y="1400" on="0"/>
        <pt x="32" y="1431" on="1"/>
        <pt x="94" y="1478" on="0"/>
        <pt x="509" y="1478" on="1"/>
        <pt x="710" y="1478" on="0"/>
        <pt x="964" y="1431" on="1"/>
        <pt x="823" y="1351" on="0"/>
        <pt x="796" y="1212" on="1"/>
        <pt x="783" y="1145" on="0"/>
        <pt x="780" y="1082" on="1"/>
        <pt x="769" y="854" on="0"/>
        <pt x="753" y="785" on="1"/>
        <pt x="762" y="803" on="1"/>
        <pt x="761" y="782" on="0"/>
        <pt x="745" y="654" on="0"/>
        <pt x="745" y="620" on="1"/>
        <pt x="745" y="622" on="0"/>
        <pt x="762" y="687" on="0"/>
        <pt x="762" y="704" on="1"/>
        <pt x="762" y="640" on="1"/>
        <pt x="751" y="549" on="1"/>
        <pt x="751" y="524" on="0"/>
        <pt x="762" y="483" on="1"/>
        <pt x="762" y="541" on="1"/>
        <pt x="766" y="483" on="1"/>
        <pt x="766" y="474" on="0"/>
        <pt x="745" y="411" on="1"/>
        <pt x="762" y="373" on="0"/>
        <pt x="762" y="302" on="0"/>
        <pt x="741" y="204" on="0"/>
        <pt x="741" y="158" on="0"/>
        <pt x="703" y="46" on="0"/>
        <pt x="703" y="19" on="1"/>
        <pt x="723" y="19" on="1"/>
        <pt x="704" y="-24" on="0"/>
        <pt x="691" y="-132" on="1"/>
        <pt x="678" y="-242" on="0"/>
        <pt x="667" y="-284" on="0"/>
        <pt x="656" y="-355" on="0"/>
        <pt x="657" y="-427" on="0"/>
        <pt x="673" y="-488" on="0"/>
        <pt x="708" y="-542" on="0"/>
        <pt x="734" y="-561" on="1"/>
        <pt x="791" y="-601" on="0"/>
        <pt x="891" y="-601" on="1"/>
        <pt x="945" y="-599" on="1"/>
        <pt x="968" y="-591" on="1"/>
        <pt x="971" y="-614" on="0"/>
      </contour>
    </TTGlyph>
    <TTGlyph name="Aring" xMin="32" yMin="-443" xMax="964" yMax="2147">
      <component glyphName="ring" x="138" y="973" flags="0x1004"/>
      <component glyphName="A" x="0" y="0" flags="0x1204"/>
    </TTGlyph>
    <TTGlyph name="Atilde" xMin="31" yMin="-443" xMax="982" yMax="2103">
      <component glyphName="tilde" x="-43" y="1802" flags="0x1004"/>
      <component glyphName="A" x="0" y="0" flags="0x1204"/>
    </TTGlyph>
    <TTGlyph name="B" xMin="39" yMin="-96" xMax="989" yMax="1517">
      <contour>
        <pt x="697" y="-84" on="1"/>
        <pt x="687" y="-81" on="1"/>
        <pt x="687" y="-58" on="1"/>
        <pt x="672" y="-77" on="1"/>
        <pt x="661" y="-72" on="0"/>
        <pt x="642" y="-60" on="1"/>
        <pt x="598" y="-35" on="0"/>
        <pt x="576" y="-35" on="1"/>
        <pt x="541" y="-73" on="0"/>
        <pt x="538" y="-96" on="1"/>
        <pt x="522" y="-96" on="0"/>
        <pt x="520" y="-66" on="1"/>
        <pt x="518" y="-65" on="1"/>
        <pt x="502" y="-35" on="1"/>
        <pt x="502" y="-80" on="0"/>
        <pt x="461" y="-89" on="1"/>
        <pt x="454" y="13" on="0"/>
        <pt x="400" y="13" on="1"/>
        <pt x="353" y="13" on="0"/>
        <pt x="339" y="-35" on="1"/>
        <pt x="321" y="-66" on="1"/>
        <pt x="277" y="-51" on="0"/>
        <pt x="277" y="33" on="1"/>
        <pt x="280" y="268" on="1"/>
        <pt x="256" y="268" on="0"/>
        <pt x="256" y="409" on="0"/>
        <pt x="260" y="429" on="1"/>
        <pt x="236" y="429" on="0"/>
        <pt x="236" y="570" on="1"/>
        <pt x="240" y="706" on="1"/>
        <pt x="240" y="796" on="0"/>
        <pt x="219" y="1022" on="0"/>
        <pt x="199" y="1079" on="1"/>
        <pt x="240" y="1101" on="1"/>
        <pt x="240" y="1123" on="1"/>
        <pt x="199" y="1101" on="1"/>
        <pt x="199" y="1123" on="1"/>
        <pt x="221" y="1123" on="1"/>
        <pt x="221" y="1239" on="0"/>
        <pt x="39" y="1449" on="1"/>
        <pt x="74" y="1445" on="1"/>
        <pt x="79" y="1452" on="0"/>
        <pt x="490" y="1517" on="0"/>
        <pt x="523" y="1517" on="1"/>
        <pt x="574" y="1517" on="1"/>
        <pt x="748" y="1517" on="0"/>
        <pt x="840" y="1479" on="1"/>
        <pt x="916" y="1447" on="0"/>
        <pt x="940" y="1417" on="1"/>
        <pt x="989" y="1356" on="0"/>
        <pt x="989" y="1278" on="1"/>
        <pt x="989" y="1128" on="0"/>
        <pt x="910" y="718" on="1"/>
        <pt x="884" y="587" on="1"/>
        <pt x="873" y="587" on="0"/>
        <pt x="869" y="600" on="1"/>
        <pt x="869" y="559" on="0"/>
        <pt x="831" y="519" on="0"/>
        <pt x="788" y="498" on="1"/>
        <pt x="832" y="498" on="0"/>
        <pt x="869" y="414" on="0"/>
        <pt x="869" y="360" on="1"/>
        <pt x="849" y="81" on="1"/>
        <pt x="845" y="75" on="0"/>
        <pt x="826" y="32" on="1"/>
        <pt x="783" y="-63" on="0"/>
        <pt x="750" y="-63" on="1"/>
        <pt x="745" y="-63" on="1"/>
        <pt x="751" y="-70" on="1"/>
        <pt x="717" y="-84" on="0"/>
      </contour>
      <contour>
        <pt x="522" y="253" on="1"/>
        <pt x="521" y="197" on="1"/>
        <pt x="521" y="152" on="1"/>
        <pt x="525" y="152" on="0"/>
        <pt x="546" y="152" on="1"/>
        <pt x="588" y="152" on="0"/>
        <pt x="629" y="128" on="1"/>
        <pt x="622" y="128" on="1"/>
        <pt x="629" y="116" on="1"/>
        <pt x="629" y="150" on="0"/>
        <pt x="648" y="174" on="1"/>
        <pt x="648" y="255" on="1"/>
        <pt x="648" y="268" on="0"/>
        <pt x="657" y="268" on="1"/>
        <pt x="668" y="268" on="1"/>
        <pt x="668" y="277" on="0"/>
        <pt x="646" y="304" on="0"/>
        <pt x="646" y="347" on="0"/>
        <pt x="648" y="360" on="1"/>
        <pt x="635" y="377" on="0"/>
        <pt x="566" y="382" on="0"/>
        <pt x="556" y="406" on="1"/>
        <pt x="556" y="391" on="0"/>
        <pt x="545" y="384" on="0"/>
        <pt x="538" y="386" on="1"/>
        <pt x="521" y="391" on="0"/>
        <pt x="521" y="337" on="1"/>
        <pt x="502" y="337" on="1"/>
        <pt x="502" y="312" on="1"/>
        <pt x="522" y="312" on="0"/>
      </contour>
      <contour>
        <pt x="666" y="832" on="1"/>
        <pt x="668" y="845" on="1"/>
        <pt x="651" y="865" on="0"/>
        <pt x="575" y="871" on="0"/>
        <pt x="556" y="892" on="1"/>
        <pt x="556" y="868" on="1"/>
        <pt x="521" y="868" on="1"/>
        <pt x="538" y="845" on="1"/>
        <pt x="521" y="845" on="1"/>
        <pt x="521" y="837" on="1"/>
        <pt x="521" y="826" on="0"/>
        <pt x="524" y="822" on="1"/>
        <pt x="528" y="824" on="1"/>
        <pt x="538" y="824" on="0"/>
        <pt x="538" y="740" on="1"/>
        <pt x="538" y="706" on="1"/>
        <pt x="521" y="685" on="1"/>
        <pt x="538" y="685" on="1"/>
        <pt x="538" y="661" on="1"/>
        <pt x="544" y="661" on="0"/>
        <pt x="625" y="631" on="0"/>
        <pt x="629" y="623" on="1"/>
        <pt x="629" y="637" on="1"/>
        <pt x="650" y="632" on="1"/>
        <pt x="644" y="620" on="1"/>
        <pt x="648" y="615" on="1"/>
        <pt x="648" y="633" on="0"/>
        <pt x="669" y="633" on="0"/>
        <pt x="669" y="679" on="1"/>
        <pt x="664" y="773" on="1"/>
        <pt x="664" y="791" on="0"/>
        <pt x="676" y="796" on="1"/>
        <pt x="666" y="805" on="0"/>
      </contour>
    </TTGlyph>
    <TTGlyph name="C" xMin="57" yMin="-244" xMax="980" yMax="1517">
      <contour>
        <pt x="449" y="474" on="1"/>
        <pt x="469" y="266" on="1"/>
        <pt x="487" y="266" on="1"/>
        <pt x="487" y="219" on="1"/>
        <pt x="522" y="174" on="1"/>
        <pt x="538" y="174" on="1"/>
        <pt x="574" y="214" on="0"/>
        <pt x="595" y="243" on="1"/>
        <pt x="592" y="246" on="0"/>
        <pt x="592" y="258" on="0"/>
        <pt x="602" y="271" on="0"/>
        <pt x="608" y="271" on="0"/>
        <pt x="613" y="266" on="1"/>
        <pt x="613" y="334" on="1"/>
        <pt x="630" y="360" on="1"/>
        <pt x="630" y="406" on="1"/>
        <pt x="703" y="406" on="1"/>
        <pt x="718" y="404" on="0"/>
        <pt x="864" y="369" on="0"/>
        <pt x="886" y="360" on="1"/>
        <pt x="881" y="381" on="1"/>
        <pt x="901" y="360" on="1"/>
        <pt x="919" y="360" on="1"/>
        <pt x="901" y="334" on="1"/>
        <pt x="901" y="290" on="1"/>
        <pt x="877" y="290" on="0"/>
        <pt x="877" y="251" on="1"/>
        <pt x="881" y="207" on="1"/>
        <pt x="860" y="174" on="1"/>
        <pt x="860" y="128" on="1"/>
        <pt x="840" y="103" on="1"/>
        <pt x="820" y="103" on="1"/>
        <pt x="820" y="50" on="0"/>
        <pt x="802" y="34" on="1"/>
        <pt x="779" y="57" on="1"/>
        <pt x="781" y="55" on="0"/>
        <pt x="781" y="48" on="1"/>
        <pt x="781" y="31" on="0"/>
        <pt x="766" y="31" on="1"/>
        <pt x="761" y="34" on="1"/>
        <pt x="761" y="8" on="0"/>
        <pt x="754" y="-9" on="0"/>
        <pt x="731" y="-24" on="0"/>
        <pt x="722" y="-36" on="1"/>
        <pt x="722" y="-58" on="1"/>
        <pt x="706" y="-81" on="0"/>
        <pt x="683" y="-81" on="1"/>
        <pt x="648" y="-81" on="1"/>
        <pt x="652" y="-161" on="1"/>
        <pt x="655" y="-208" on="0"/>
        <pt x="630" y="-244" on="1"/>
        <pt x="613" y="-219" on="1"/>
        <pt x="613" y="-162" on="0"/>
        <pt x="576" y="-32" on="0"/>
        <pt x="576" y="-12" on="1"/>
        <pt x="559" y="-12" on="1"/>
        <pt x="559" y="-53" on="0"/>
        <pt x="576" y="-199" on="0"/>
        <pt x="576" y="-236" on="1"/>
        <pt x="559" y="-186" on="0"/>
        <pt x="557" y="-185" on="0"/>
        <pt x="552" y="-185" on="1"/>
        <pt x="537" y="-185" on="0"/>
        <pt x="537" y="-196" on="1"/>
        <pt x="526" y="-196" on="0"/>
        <pt x="520" y="-178" on="1"/>
        <pt x="520" y="-164" on="0"/>
        <pt x="540" y="-144" on="0"/>
        <pt x="540" y="-138" on="1"/>
        <pt x="540" y="-103" on="1"/>
        <pt x="522" y="-81" on="0"/>
        <pt x="522" y="-36" on="1"/>
        <pt x="487" y="-12" on="1"/>
        <pt x="469" y="-36" on="1"/>
        <pt x="449" y="-36" on="1"/>
        <pt x="432" y="-58" on="1"/>
        <pt x="432" y="-152" on="1"/>
        <pt x="437" y="-159" on="0"/>
        <pt x="445" y="-173" on="1"/>
        <pt x="432" y="-188" on="1"/>
        <pt x="432" y="-195" on="1"/>
        <pt x="396" y="-213" on="1"/>
        <pt x="396" y="-103" on="1"/>
        <pt x="396" y="-78" on="0"/>
        <pt x="359" y="-29" on="0"/>
        <pt x="359" y="-12" on="1"/>
        <pt x="287" y="-12" on="1"/>
        <pt x="287" y="13" on="1"/>
        <pt x="247" y="13" on="1"/>
        <pt x="224" y="41" on="0"/>
        <pt x="224" y="120" on="0"/>
        <pt x="226" y="128" on="1"/>
        <pt x="208" y="128" on="1"/>
        <pt x="226" y="151" on="1"/>
        <pt x="192" y="219" on="0"/>
        <pt x="166" y="243" on="1"/>
        <pt x="166" y="266" on="1"/>
        <pt x="185" y="290" on="1"/>
        <pt x="166" y="312" on="1"/>
        <pt x="167" y="322" on="1"/>
        <pt x="167" y="348" on="0"/>
        <pt x="147" y="381" on="1"/>
        <pt x="157" y="381" on="1"/>
        <pt x="106" y="637" on="1"/>
        <pt x="127" y="671" on="1"/>
        <pt x="106" y="659" on="1"/>
        <pt x="103" y="690" on="0"/>
        <pt x="57" y="971" on="0"/>
        <pt x="57" y="1133" on="0"/>
        <pt x="127" y="1328" on="0"/>
        <pt x="185" y="1377" on="1"/>
        <pt x="215" y="1354" on="1"/>
        <pt x="208" y="1377" on="1"/>
        <pt x="226" y="1400" on="1"/>
        <pt x="247" y="1400" on="1"/>
        <pt x="278" y="1454" on="0"/>
        <pt x="411" y="1517" on="0"/>
        <pt x="469" y="1517" on="1"/>
        <pt x="703" y="1517" on="1"/>
        <pt x="722" y="1490" on="0"/>
        <pt x="821" y="1444" on="0"/>
        <pt x="840" y="1423" on="1"/>
        <pt x="840" y="1377" on="1"/>
        <pt x="860" y="1377" on="1"/>
        <pt x="860" y="1400" on="1"/>
        <pt x="881" y="1400" on="1"/>
        <pt x="919" y="1354" on="1"/>
        <pt x="901" y="1332" on="1"/>
        <pt x="921" y="1332" on="0"/>
        <pt x="958" y="1261" on="0"/>
        <pt x="980" y="1261" on="1"/>
        <pt x="980" y="1170" on="1"/>
        <pt x="962" y="1170" on="1"/>
        <pt x="980" y="1145" on="1"/>
        <pt x="980" y="983" on="1"/>
        <pt x="980" y="930" on="0"/>
        <pt x="954" y="652" on="0"/>
        <pt x="941" y="637" on="1"/>
        <pt x="941" y="613" on="1"/>
        <pt x="904" y="630" on="0"/>
        <pt x="861" y="638" on="0"/>
        <pt x="745" y="638" on="0"/>
        <pt x="730" y="620" on="1"/>
        <pt x="710" y="638" on="0"/>
        <pt x="682" y="638" on="1"/>
        <pt x="668" y="637" on="1"/>
        <pt x="648" y="613" on="1"/>
        <pt x="630" y="637" on="1"/>
        <pt x="648" y="659" on="1"/>
        <pt x="648" y="683" on="1"/>
        <pt x="648" y="704" on="0"/>
        <pt x="613" y="774" on="0"/>
        <pt x="613" y="799" on="1"/>
        <pt x="595" y="799" on="1"/>
        <pt x="589" y="812" on="0"/>
        <pt x="579" y="855" on="0"/>
        <pt x="569" y="868" on="0"/>
        <pt x="554" y="868" on="0"/>
        <pt x="544" y="844" on="0"/>
        <pt x="540" y="844" on="0"/>
        <pt x="540" y="845" on="1"/>
        <pt x="522" y="824" on="1"/>
        <pt x="487" y="824" on="1"/>
        <pt x="467" y="774" on="0"/>
        <pt x="467" y="754" on="0"/>
        <pt x="469" y="752" on="1"/>
        <pt x="449" y="752" on="1"/>
        <pt x="449" y="727" on="1"/>
        <pt x="469" y="727" on="1"/>
        <pt x="469" y="613" on="1"/>
        <pt x="469" y="594" on="0"/>
        <pt x="449" y="501" on="0"/>
      </contour>
      <contour>
        <pt x="106" y="659" on="1"/>
        <pt x="126" y="679" on="0"/>
        <pt x="126" y="694" on="0"/>
        <pt x="127" y="701" on="0"/>
        <pt x="127" y="706" on="1"/>
        <pt x="106" y="691" on="0"/>
      </contour>
      <contour>
        <pt x="449" y="-166" on="1"/>
        <pt x="449" y="-190" on="1"/>
        <pt x="445" y="-173" on="1"/>
      </contour>
      <contour>
        <pt x="451" y="-217" on="1"/>
        <pt x="449" y="-201" on="1"/>
        <pt x="449" y="-190" on="1"/>
        <pt x="451" y="-198" on="0"/>
      </contour>
      <contour>
        <pt x="540" y="-204" on="1"/>
        <pt x="537" y="-201" on="0"/>
        <pt x="537" y="-196" on="1"/>
      </contour>
    </TTGlyph>
    <TTGlyph name="Cacute" xMin="57" yMin="-244" xMax="1120" yMax="2152">
      <component glyphName="acute" x="324" y="78" flags="0x1004"/>
      <component glyphName="C" x="0" y="0" flags="0x1204"/>
    </TTGlyph>
    <TTGlyph name="Ccaron" xMin="57" yMin="-244" xMax="992" yMax="2387">
      <component glyphName="caron" x="30" y="206" flags="0x1004"/>
      <component glyphName="C" x="0" y="0" flags="0x1204"/>
    </TTGlyph>
    <TTGlyph name="Ccedilla" xMin="57" yMin="-906" xMax="980" yMax="1517">
      <component glyphName="cedilla" x="481" y="-223" flags="0x1004"/>
      <component glyphName="C" x="0" y="0" flags="0x1204"/>
    </TTGlyph>
    <TTGlyph name="Ccircumflex" xMin="57" yMin="-244" xMax="1018" yMax="2348">
      <component glyphName="circumflex" x="11" y="206" flags="0x1004"/>
      <component glyphName="C" x="0" y="0" flags="0x1204"/>
    </TTGlyph>
    <TTGlyph name="Cdotaccent" xMin="57" yMin="-244" xMax="980" yMax="2292">
      <component glyphName="dotaccent" x="147" y="1195" flags="0x1004"/>
      <component glyphName="C" x="0" y="0" flags="0x1204"/>
    </TTGlyph>
    <TTGlyph name="D" xMin="39" yMin="-310" xMax="1033" yMax="1497">
      <contour>
        <pt x="637" y="-138" on="1"/>
        <pt x="641" y="-81" on="1"/>
        <pt x="625" y="-55" on="1"/>
        <pt x="625" y="-79" on="1"/>
        <pt x="612" y="-84" on="1"/>
        <pt x="608" y="-118" on="0"/>
        <pt x="594" y="-269" on="0"/>
        <pt x="589" y="-310" on="1"/>
        <pt x="552" y="-264" on="1"/>
        <pt x="534" y="62" on="1"/>
        <pt x="410" y="62" on="0"/>
        <pt x="380" y="7" on="1"/>
        <pt x="354" y="-38" on="0"/>
        <pt x="355" y="-92" on="1"/>
        <pt x="357" y="-197" on="0"/>
        <pt x="318" y="-241" on="1"/>
        <pt x="318" y="-195" on="0"/>
        <pt x="281" y="-7" on="0"/>
        <pt x="280" y="36" on="1"/>
        <pt x="295" y="36" on="1"/>
        <pt x="278" y="89" on="0"/>
        <pt x="278" y="110" on="1"/>
        <pt x="278" y="174" on="0"/>
        <pt x="301" y="176" on="1"/>
        <pt x="273" y="232" on="0"/>
        <pt x="209" y="773" on="0"/>
        <pt x="198" y="958" on="0"/>
        <pt x="190" y="1025" on="0"/>
        <pt x="175" y="1094" on="0"/>
        <pt x="165" y="1136" on="0"/>
        <pt x="138" y="1211" on="0"/>
        <pt x="127" y="1242" on="0"/>
        <pt x="88" y="1337" on="0"/>
        <pt x="81" y="1356" on="1"/>
        <pt x="101" y="1356" on="1"/>
        <pt x="101" y="1380" on="1"/>
        <pt x="101" y="1383" on="0"/>
        <pt x="81" y="1428" on="1"/>
        <pt x="59" y="1421" on="1"/>
        <pt x="66" y="1428" on="1"/>
        <pt x="39" y="1428" on="1"/>
        <pt x="155" y="1433" on="0"/>
        <pt x="627" y="1497" on="0"/>
        <pt x="752" y="1497" on="1"/>
        <pt x="788" y="1497" on="0"/>
        <pt x="835" y="1467" on="0"/>
        <pt x="842" y="1450" on="1"/>
        <pt x="863" y="1402" on="0"/>
        <pt x="887" y="1402" on="1"/>
        <pt x="889" y="1383" on="0"/>
        <pt x="950" y="1338" on="0"/>
        <pt x="1010" y="1293" on="0"/>
        <pt x="1013" y="1273" on="1"/>
        <pt x="991" y="1241" on="1"/>
        <pt x="1033" y="1232" on="0"/>
        <pt x="1033" y="967" on="0"/>
        <pt x="970" y="651" on="0"/>
        <pt x="907" y="352" on="0"/>
        <pt x="907" y="187" on="0"/>
        <pt x="886" y="104" on="0"/>
        <pt x="872" y="86" on="1"/>
        <pt x="820" y="20" on="0"/>
        <pt x="797" y="-33" on="1"/>
        <pt x="778" y="-8" on="1"/>
        <pt x="758" y="-33" on="1"/>
        <pt x="769" y="-33" on="1"/>
        <pt x="717" y="-55" on="1"/>
        <pt x="702" y="-45" on="1"/>
        <pt x="676" y="-49" on="0"/>
        <pt x="676" y="-155" on="1"/>
        <pt x="679" y="-195" on="1"/>
        <pt x="637" y="-195" on="0"/>
      </contour>
      <contour>
        <pt x="516" y="570" on="1"/>
        <pt x="516" y="548" on="0"/>
        <pt x="534" y="548" on="1"/>
        <pt x="534" y="477" on="1"/>
        <pt x="552" y="454" on="1"/>
        <pt x="534" y="454" on="1"/>
        <pt x="534" y="315" on="1"/>
        <pt x="547" y="315" on="0"/>
        <pt x="566" y="250" on="0"/>
        <pt x="570" y="245" on="1"/>
        <pt x="570" y="199" on="1"/>
        <pt x="589" y="199" on="1"/>
        <pt x="589" y="245" on="1"/>
        <pt x="610" y="251" on="0"/>
        <pt x="660" y="259" on="0"/>
        <pt x="676" y="262" on="0"/>
        <pt x="685" y="271" on="1"/>
        <pt x="697" y="283" on="0"/>
        <pt x="697" y="386" on="0"/>
        <pt x="717" y="408" on="1"/>
        <pt x="717" y="454" on="1"/>
        <pt x="735" y="454" on="0"/>
        <pt x="735" y="497" on="1"/>
        <pt x="735" y="526" on="1"/>
        <pt x="758" y="526" on="1"/>
        <pt x="758" y="548" on="1"/>
        <pt x="735" y="526" on="1"/>
        <pt x="735" y="570" on="1"/>
        <pt x="746" y="570" on="1"/>
        <pt x="735" y="579" on="0"/>
        <pt x="735" y="625" on="1"/>
        <pt x="737" y="669" on="1"/>
        <pt x="730" y="802" on="0"/>
        <pt x="680" y="833" on="1"/>
        <pt x="658" y="847" on="0"/>
        <pt x="625" y="847" on="1"/>
        <pt x="589" y="847" on="1"/>
        <pt x="589" y="824" on="1"/>
        <pt x="570" y="824" on="1"/>
        <pt x="570" y="803" on="1"/>
        <pt x="552" y="779" on="1"/>
        <pt x="552" y="733" on="1"/>
        <pt x="534" y="707" on="1"/>
        <pt x="534" y="570" on="1"/>
      </contour>
      <contour>
        <pt x="552" y="779" on="1"/>
        <pt x="534" y="803" on="1"/>
        <pt x="534" y="787" on="0"/>
        <pt x="539" y="779" on="0"/>
      </contour>
      <contour>
        <pt x="59" y="1421" on="1"/>
        <pt x="59" y="1421" on="0"/>
        <pt x="64" y="1419" on="1"/>
        <pt x="63" y="1419" on="0"/>
      </contour>
    </TTGlyph>
    <TTGlyph name="Dcaron" xMin="39" yMin="-310" xMax="1088" yMax="2377">
      <component glyphName="caron" x="126" y="196" flags="0x1004"/>
      <component glyphName="D" x="0" y="0" flags="0x1204"/>
    </TTGlyph>
    <TTGlyph name="E" xMin="49" yMin="-132" xMax="1108" yMax="1507">
      <contour>
        <pt x="850" y="238" on="1"/>
        <pt x="832" y="146" on="1"/>
        <pt x="811" y="122" on="1"/>
        <pt x="813" y="46" on="1"/>
        <pt x="813" y="21" on="0"/>
        <pt x="791" y="-80" on="0"/>
        <pt x="789" y="-91" on="1"/>
        <pt x="757" y="-132" on="1"/>
        <pt x="738" y="-86" on="1"/>
        <pt x="757" y="-87" on="0"/>
        <pt x="757" y="-96" on="1"/>
        <pt x="759" y="-92" on="0"/>
        <pt x="759" y="-12" on="0"/>
        <pt x="735" y="31" on="0"/>
        <pt x="686" y="31" on="1"/>
        <pt x="665" y="31" on="0"/>
        <pt x="638" y="-7" on="0"/>
        <pt x="627" y="-22" on="0"/>
        <pt x="618" y="-42" on="1"/>
        <pt x="608" y="-66" on="0"/>
        <pt x="598" y="-89" on="1"/>
        <pt x="596" y="-86" on="1"/>
        <pt x="552" y="-86" on="0"/>
        <pt x="541" y="-70" on="0"/>
        <pt x="541" y="-16" on="1"/>
        <pt x="525" y="6" on="1"/>
        <pt x="533" y="-60" on="1"/>
        <pt x="533" y="-113" on="0"/>
        <pt x="470" y="-113" on="1"/>
        <pt x="470" y="55" on="1"/>
        <pt x="447" y="79" on="0"/>
        <pt x="385" y="79" on="0"/>
        <pt x="381" y="77" on="1"/>
        <pt x="360" y="55" on="1"/>
        <pt x="340" y="55" on="0"/>
        <pt x="340" y="-20" on="0"/>
        <pt x="344" y="-38" on="1"/>
        <pt x="308" y="-86" on="1"/>
        <pt x="289" y="-86" on="1"/>
        <pt x="291" y="-45" on="1"/>
        <pt x="291" y="122" on="0"/>
        <pt x="233" y="564" on="0"/>
        <pt x="228" y="610" on="1"/>
        <pt x="250" y="610" on="1"/>
        <pt x="228" y="632" on="1"/>
        <pt x="189" y="1006" on="0"/>
        <pt x="189" y="1212" on="1"/>
        <pt x="210" y="1212" on="1"/>
        <pt x="210" y="1234" on="1"/>
        <pt x="169" y="1234" on="1"/>
        <pt x="169" y="1282" on="1"/>
        <pt x="129" y="1365" on="0"/>
        <pt x="49" y="1443" on="1"/>
        <pt x="67" y="1443" on="1"/>
        <pt x="88" y="1466" on="1"/>
        <pt x="300" y="1507" on="0"/>
        <pt x="783" y="1507" on="0"/>
        <pt x="1108" y="1443" on="1"/>
        <pt x="1068" y="1408" on="0"/>
        <pt x="1027" y="1329" on="1"/>
        <pt x="1027" y="1257" on="0"/>
        <pt x="967" y="1071" on="0"/>
        <pt x="907" y="878" on="0"/>
        <pt x="907" y="795" on="1"/>
        <pt x="848" y="795" on="0"/>
        <pt x="601" y="866" on="0"/>
        <pt x="541" y="866" on="1"/>
        <pt x="541" y="679" on="1"/>
        <pt x="525" y="656" on="1"/>
        <pt x="559" y="679" on="1"/>
        <pt x="722" y="679" on="1"/>
        <pt x="756" y="679" on="0"/>
        <pt x="777" y="656" on="1"/>
        <pt x="811" y="656" on="1"/>
        <pt x="811" y="581" on="0"/>
        <pt x="795" y="539" on="1"/>
        <pt x="799" y="499" on="0"/>
        <pt x="799" y="417" on="0"/>
        <pt x="777" y="377" on="1"/>
        <pt x="722" y="402" on="1"/>
        <pt x="559" y="402" on="1"/>
        <pt x="525" y="377" on="1"/>
        <pt x="525" y="238" on="1"/>
        <pt x="541" y="217" on="1"/>
        <pt x="541" y="261" on="1"/>
        <pt x="705" y="261" on="1"/>
        <pt x="724" y="261" on="0"/>
        <pt x="824" y="238" on="0"/>
      </contour>
      <contour>
        <pt x="794" y="-77" on="1"/>
        <pt x="793" y="-50" on="0"/>
        <pt x="808" y="-48" on="1"/>
        <pt x="811" y="-48" on="1"/>
        <pt x="811" y="-53" on="0"/>
        <pt x="795" y="-71" on="0"/>
      </contour>
      <contour>
        <pt x="792" y="-86" on="1"/>
        <pt x="790" y="-87" on="1"/>
      </contour>
    </TTGlyph>
    <TTGlyph name="Eacute" xMin="49" yMin="-132" xMax="1292" yMax="2154">
      <component glyphName="acute" x="497" y="80" flags="0x1004"/>
      <component glyphName="E" x="0" y="0" flags="0x1204"/>
    </TTGlyph>
    <TTGlyph name="Ebreve" xMin="49" yMin="-132" xMax="1108" yMax="2224">
      <component glyphName="breve" x="197" y="1796" flags="0x1004"/>
      <component glyphName="E" x="0" y="0" flags="0x1204"/>
    </TTGlyph>
    <TTGlyph name="Ecaron" xMin="49" yMin="-132" xMax="1108" yMax="2377">
      <component glyphName="caron" x="124" y="196" flags="0x1004"/>
      <component glyphName="E" x="0" y="0" flags="0x1204"/>
    </TTGlyph>
    <TTGlyph name="Ecircumflex" xMin="49" yMin="-132" xMax="1108" yMax="2338">
      <component glyphName="circumflex" x="35" y="196" flags="0x1004"/>
      <component glyphName="E" x="0" y="0" flags="0x1204"/>
    </TTGlyph>
    <TTGlyph name="Edieresis" xMin="49" yMin="-132" xMax="1108" yMax="2143">
      <component glyphName="dieresis" x="-43" y="1" flags="0x1004"/>
      <component glyphName="E" x="0" y="0" flags="0x1204"/>
    </TTGlyph>
    <TTGlyph name="Edotaccent" xMin="49" yMin="-132" xMax="1108" yMax="2282">
      <component glyphName="dotaccent" x="176" y="1185" flags="0x1004"/>
      <component glyphName="E" x="0" y="0" flags="0x1204"/>
    </TTGlyph>
    <TTGlyph name="Egrave" xMin="-9" yMin="-132" xMax="1108" yMax="2150">
      <component glyphName="grave" x="-112" y="78" flags="0x1004"/>
      <component glyphName="E" x="0" y="0" flags="0x1204"/>
    </TTGlyph>
    <TTGlyph name="Emacron" xMin="49" yMin="-132" xMax="1108" yMax="1901">
      <component glyphName="macron" x="122" y="1054" flags="0x1004"/>
      <component glyphName="E" x="0" y="0" flags="0x1204"/>
    </TTGlyph>
    <TTGlyph name="Eogonek" xMin="49" yMin="-667" xMax="1108" yMax="1507">
      <contour>
        <pt x="1041" y="-437" on="1"/>
        <pt x="1022" y="-665" on="1"/>
        <pt x="1005" y="-665" on="0"/>
        <pt x="988" y="-642" on="1"/>
        <pt x="982" y="-642" on="0"/>
        <pt x="950" y="-667" on="0"/>
        <pt x="929" y="-667" on="1"/>
        <pt x="639" y="-667" on="0"/>
        <pt x="550" y="-493" on="1"/>
        <pt x="503" y="-401" on="0"/>
        <pt x="503" y="-257" on="1"/>
        <pt x="503" y="-233" on="1"/>
        <pt x="551" y="18" on="1"/>
        <pt x="465" y="38" on="0"/>
        <pt x="386" y="-2" on="1"/>
        <pt x="377" y="-12" on="0"/>
        <pt x="362" y="-36" on="1"/>
        <pt x="330" y="-86" on="0"/>
        <pt x="289" y="-86" on="1"/>
        <pt x="291" y="-45" on="1"/>
        <pt x="291" y="122" on="0"/>
        <pt x="233" y="564" on="0"/>
        <pt x="228" y="610" on="1"/>
        <pt x="250" y="610" on="1"/>
        <pt x="228" y="632" on="1"/>
        <pt x="189" y="1006" on="0"/>
        <pt x="189" y="1212" on="1"/>
        <pt x="210" y="1212" on="1"/>
        <pt x="210" y="1234" on="1"/>
        <pt x="169" y="1234" on="1"/>
        <pt x="169" y="1282" on="1"/>
        <pt x="129" y="1365" on="0"/>
        <pt x="49" y="1443" on="1"/>
        <pt x="67" y="1443" on="1"/>
        <pt x="88" y="1466" on="1"/>
        <pt x="300" y="1507" on="0"/>
        <pt x="783" y="1507" on="0"/>
        <pt x="1108" y="1443" on="1"/>
        <pt x="1068" y="1408" on="0"/>
        <pt x="1027" y="1329" on="1"/>
        <pt x="1027" y="1257" on="0"/>
        <pt x="967" y="1071" on="0"/>
        <pt x="907" y="878" on="0"/>
        <pt x="907" y="795" on="1"/>
        <pt x="848" y="795" on="0"/>
        <pt x="601" y="866" on="0"/>
        <pt x="541" y="866" on="1"/>
        <pt x="541" y="679" on="1"/>
        <pt x="525" y="656" on="1"/>
        <pt x="559" y="679" on="1"/>
        <pt x="722" y="679" on="1"/>
        <pt x="756" y="679" on="0"/>
        <pt x="777" y="656" on="1"/>
        <pt x="811" y="656" on="1"/>
        <pt x="811" y="581" on="0"/>
        <pt x="795" y="539" on="1"/>
        <pt x="799" y="499" on="0"/>
        <pt x="799" y="417" on="0"/>
        <pt x="777" y="377" on="1"/>
        <pt x="722" y="402" on="1"/>
        <pt x="559" y="402" on="1"/>
        <pt x="525" y="377" on="1"/>
        <pt x="525" y="238" on="1"/>
        <pt x="541" y="217" on="1"/>
        <pt x="541" y="261" on="1"/>
        <pt x="705" y="261" on="1"/>
        <pt x="724" y="261" on="0"/>
        <pt x="824" y="238" on="0"/>
        <pt x="850" y="238" on="1"/>
        <pt x="832" y="146" on="1"/>
        <pt x="811" y="122" on="1"/>
        <pt x="810" y="-8" on="1"/>
        <pt x="810" y="-70" on="0"/>
        <pt x="768" y="-105" on="1"/>
        <pt x="751" y="-119" on="0"/>
        <pt x="715" y="-147" on="0"/>
        <pt x="695" y="-181" on="0"/>
        <pt x="695" y="-206" on="1"/>
        <pt x="696" y="-258" on="0"/>
        <pt x="779" y="-372" on="1"/>
        <pt x="829" y="-399" on="1"/>
        <pt x="844" y="-407" on="0"/>
        <pt x="961" y="-407" on="1"/>
        <pt x="1015" y="-405" on="1"/>
        <pt x="1038" y="-397" on="1"/>
        <pt x="1041" y="-419" on="0"/>
      </contour>
    </TTGlyph>
    <TTGlyph name="Eth" xMin="79" yMin="-310" xMax="1122" yMax="1512">
      <contour>
        <pt x="1087" y="1277" on="1"/>
        <pt x="1086" y="1270" on="1"/>
        <pt x="1087" y="1265" on="1"/>
        <pt x="1070" y="1241" on="1"/>
        <pt x="1090" y="1236" on="0"/>
        <pt x="1103" y="1187" on="1"/>
        <pt x="1122" y="1115" on="0"/>
        <pt x="1122" y="905" on="0"/>
        <pt x="1058" y="639" on="0"/>
        <pt x="981" y="359" on="0"/>
        <pt x="971" y="255" on="1"/>
        <pt x="977" y="254" on="0"/>
        <pt x="978" y="187" on="0"/>
        <pt x="954" y="110" on="0"/>
        <pt x="938" y="88" on="1"/>
        <pt x="888" y="17" on="0"/>
        <pt x="869" y="-33" on="1"/>
        <pt x="851" y="-8" on="1"/>
        <pt x="832" y="-33" on="1"/>
        <pt x="840" y="-33" on="1"/>
        <pt x="796" y="-55" on="1"/>
        <pt x="782" y="-45" on="1"/>
        <pt x="756" y="-46" on="0"/>
        <pt x="756" y="-196" on="1"/>
        <pt x="717" y="-196" on="0"/>
        <pt x="717" y="-138" on="1"/>
        <pt x="717" y="-114" on="0"/>
        <pt x="721" y="-84" on="1"/>
        <pt x="706" y="-55" on="1"/>
        <pt x="706" y="-79" on="1"/>
        <pt x="692" y="-84" on="1"/>
        <pt x="690" y="-103" on="0"/>
        <pt x="683" y="-152" on="1"/>
        <pt x="668" y="-259" on="0"/>
        <pt x="668" y="-310" on="1"/>
        <pt x="631" y="-264" on="1"/>
        <pt x="636" y="-33" on="1"/>
        <pt x="615" y="59" on="1"/>
        <pt x="491" y="53" on="0"/>
        <pt x="461" y="-4" on="1"/>
        <pt x="435" y="-52" on="0"/>
        <pt x="436" y="-101" on="1"/>
        <pt x="438" y="-194" on="0"/>
        <pt x="393" y="-231" on="1"/>
        <pt x="394" y="-219" on="1"/>
        <pt x="394" y="-182" on="0"/>
        <pt x="364" y="-28" on="0"/>
        <pt x="364" y="10" on="1"/>
        <pt x="367" y="33" on="1"/>
        <pt x="376" y="36" on="1"/>
        <pt x="360" y="98" on="0"/>
        <pt x="360" y="178" on="0"/>
        <pt x="381" y="178" on="1"/>
        <pt x="365" y="238" on="0"/>
        <pt x="323" y="478" on="0"/>
        <pt x="310" y="531" on="1"/>
        <pt x="275" y="526" on="0"/>
        <pt x="243" y="526" on="1"/>
        <pt x="97" y="538" on="1"/>
        <pt x="79" y="543" on="1"/>
        <pt x="79" y="645" on="1"/>
        <pt x="313" y="640" on="1"/>
        <pt x="298" y="738" on="0"/>
        <pt x="281" y="954" on="0"/>
        <pt x="276" y="1007" on="1"/>
        <pt x="261" y="1143" on="0"/>
        <pt x="148" y="1350" on="1"/>
        <pt x="186" y="1356" on="1"/>
        <pt x="186" y="1380" on="1"/>
        <pt x="186" y="1388" on="0"/>
        <pt x="166" y="1428" on="1"/>
        <pt x="144" y="1421" on="1"/>
        <pt x="559" y="1494" on="0"/>
        <pt x="759" y="1511" on="0"/>
        <pt x="858" y="1512" on="0"/>
        <pt x="905" y="1478" on="0"/>
        <pt x="914" y="1458" on="1"/>
        <pt x="938" y="1402" on="0"/>
        <pt x="966" y="1397" on="1"/>
        <pt x="968" y="1379" on="0"/>
        <pt x="1087" y="1294" on="0"/>
      </contour>
      <contour>
        <pt x="810" y="632" on="1"/>
        <pt x="812" y="690" on="1"/>
        <pt x="812" y="847" on="0"/>
        <pt x="721" y="847" on="1"/>
        <pt x="669" y="847" on="1"/>
        <pt x="669" y="824" on="1"/>
        <pt x="652" y="824" on="1"/>
        <pt x="652" y="803" on="1"/>
        <pt x="633" y="779" on="1"/>
        <pt x="633" y="733" on="1"/>
        <pt x="615" y="707" on="1"/>
        <pt x="615" y="645" on="1"/>
        <pt x="625" y="645" on="1"/>
        <pt x="631" y="645" on="0"/>
        <pt x="656" y="640" on="1"/>
        <pt x="660" y="645" on="1"/>
        <pt x="764" y="645" on="1"/>
        <pt x="737" y="605" on="1"/>
        <pt x="741" y="596" on="1"/>
        <pt x="737" y="596" on="1"/>
        <pt x="732" y="585" on="0"/>
        <pt x="731" y="539" on="0"/>
        <pt x="726" y="529" on="1"/>
        <pt x="617" y="524" on="1"/>
        <pt x="617" y="477" on="1"/>
        <pt x="633" y="454" on="1"/>
        <pt x="615" y="454" on="1"/>
        <pt x="615" y="315" on="1"/>
        <pt x="630" y="315" on="0"/>
        <pt x="649" y="250" on="0"/>
        <pt x="653" y="245" on="1"/>
        <pt x="652" y="199" on="1"/>
        <pt x="669" y="199" on="1"/>
        <pt x="669" y="245" on="1"/>
        <pt x="710" y="256" on="0"/>
        <pt x="758" y="263" on="0"/>
        <pt x="776" y="283" on="0"/>
        <pt x="777" y="312" on="0"/>
        <pt x="777" y="385" on="0"/>
        <pt x="800" y="411" on="1"/>
        <pt x="796" y="454" on="1"/>
        <pt x="814" y="454" on="0"/>
        <pt x="814" y="500" on="1"/>
        <pt x="814" y="526" on="1"/>
        <pt x="832" y="526" on="1"/>
        <pt x="832" y="548" on="1"/>
        <pt x="812" y="526" on="1"/>
        <pt x="812" y="570" on="1"/>
        <pt x="822" y="570" on="1"/>
        <pt x="810" y="580" on="0"/>
      </contour>
    </TTGlyph>
    <TTGlyph name="Euro" xMin="32" yMin="-446" xMax="1114" yMax="1518">
      <contour>
        <pt x="656" y="637" on="1"/>
        <pt x="663" y="617" on="1"/>
        <pt x="665" y="592" on="0"/>
        <pt x="621" y="595" on="1"/>
        <pt x="605" y="596" on="0"/>
        <pt x="578" y="571" on="0"/>
        <pt x="579" y="543" on="1"/>
        <pt x="580" y="472" on="1"/>
        <pt x="690" y="472" on="1"/>
        <pt x="691" y="390" on="1"/>
        <pt x="691" y="349" on="0"/>
        <pt x="644" y="349" on="1"/>
        <pt x="634" y="349" on="0"/>
        <pt x="598" y="355" on="1"/>
        <pt x="598" y="266" on="1"/>
        <pt x="619" y="266" on="1"/>
        <pt x="619" y="219" on="1"/>
        <pt x="653" y="174" on="1"/>
        <pt x="669" y="174" on="1"/>
        <pt x="705" y="214" on="0"/>
        <pt x="726" y="243" on="1"/>
        <pt x="723" y="249" on="0"/>
        <pt x="723" y="258" on="0"/>
        <pt x="732" y="271" on="0"/>
        <pt x="739" y="271" on="0"/>
        <pt x="744" y="266" on="1"/>
        <pt x="742" y="334" on="1"/>
        <pt x="761" y="360" on="1"/>
        <pt x="761" y="406" on="1"/>
        <pt x="837" y="408" on="1"/>
        <pt x="843" y="408" on="0"/>
        <pt x="991" y="368" on="0"/>
        <pt x="1016" y="360" on="1"/>
        <pt x="1011" y="381" on="1"/>
        <pt x="1031" y="360" on="1"/>
        <pt x="1050" y="360" on="1"/>
        <pt x="1031" y="334" on="1"/>
        <pt x="1031" y="290" on="1"/>
        <pt x="1009" y="290" on="0"/>
        <pt x="1009" y="250" on="1"/>
        <pt x="1011" y="217" on="1"/>
        <pt x="1011" y="174" on="0"/>
        <pt x="988" y="172" on="1"/>
        <pt x="990" y="128" on="1"/>
        <pt x="970" y="103" on="1"/>
        <pt x="950" y="103" on="1"/>
        <pt x="950" y="52" on="0"/>
        <pt x="932" y="34" on="1"/>
        <pt x="909" y="57" on="1"/>
        <pt x="911" y="55" on="0"/>
        <pt x="911" y="42" on="0"/>
        <pt x="902" y="31" on="0"/>
        <pt x="897" y="31" on="1"/>
        <pt x="891" y="34" on="1"/>
        <pt x="891" y="-3" on="0"/>
        <pt x="861" y="-22" on="0"/>
        <pt x="852" y="-35" on="1"/>
        <pt x="852" y="-58" on="1"/>
        <pt x="837" y="-78" on="0"/>
        <pt x="785" y="-83" on="0"/>
        <pt x="781" y="-84" on="1"/>
        <pt x="784" y="-138" on="1"/>
        <pt x="788" y="-200" on="0"/>
        <pt x="761" y="-241" on="1"/>
        <pt x="744" y="-219" on="1"/>
        <pt x="745" y="-106" on="1"/>
        <pt x="745" y="-87" on="0"/>
        <pt x="708" y="-30" on="0"/>
        <pt x="708" y="-12" on="1"/>
        <pt x="690" y="-12" on="1"/>
        <pt x="682" y="-294" on="1"/>
        <pt x="708" y="-332" on="0"/>
        <pt x="708" y="-381" on="0"/>
        <pt x="691" y="-430" on="1"/>
        <pt x="671" y="-430" on="1"/>
        <pt x="671" y="-446" on="1"/>
        <pt x="650" y="-411" on="0"/>
        <pt x="649" y="-224" on="0"/>
        <pt x="672" y="-157" on="0"/>
        <pt x="671" y="-138" on="1"/>
        <pt x="669" y="-101" on="1"/>
        <pt x="653" y="-81" on="0"/>
        <pt x="653" y="-45" on="1"/>
        <pt x="653" y="-36" on="1"/>
        <pt x="619" y="-12" on="1"/>
        <pt x="600" y="-36" on="1"/>
        <pt x="580" y="-36" on="1"/>
        <pt x="563" y="-58" on="1"/>
        <pt x="563" y="-152" on="1"/>
        <pt x="582" y="-171" on="0"/>
        <pt x="582" y="-207" on="1"/>
        <pt x="580" y="-267" on="1"/>
        <pt x="563" y="-290" on="1"/>
        <pt x="563" y="-337" on="1"/>
        <pt x="527" y="-314" on="1"/>
        <pt x="525" y="-96" on="1"/>
        <pt x="525" y="-78" on="0"/>
        <pt x="492" y="-30" on="0"/>
        <pt x="492" y="-16" on="1"/>
        <pt x="492" y="-10" on="1"/>
        <pt x="419" y="-10" on="1"/>
        <pt x="419" y="13" on="1"/>
        <pt x="383" y="13" on="1"/>
        <pt x="362" y="40" on="0"/>
        <pt x="362" y="120" on="0"/>
        <pt x="364" y="128" on="1"/>
        <pt x="348" y="128" on="1"/>
        <pt x="364" y="151" on="1"/>
        <pt x="330" y="225" on="0"/>
        <pt x="310" y="243" on="1"/>
        <pt x="310" y="266" on="1"/>
        <pt x="328" y="290" on="1"/>
        <pt x="310" y="312" on="1"/>
        <pt x="312" y="316" on="0"/>
        <pt x="312" y="327" on="1"/>
        <pt x="312" y="365" on="0"/>
        <pt x="218" y="365" on="1"/>
        <pt x="102" y="360" on="1"/>
        <pt x="91" y="360" on="0"/>
        <pt x="45" y="370" on="0"/>
        <pt x="38" y="371" on="1"/>
        <pt x="60" y="474" on="1"/>
        <pt x="287" y="474" on="1"/>
        <pt x="261" y="578" on="1"/>
        <pt x="171" y="572" on="1"/>
        <pt x="62" y="586" on="1"/>
        <pt x="47" y="586" on="0"/>
        <pt x="40" y="584" on="1"/>
        <pt x="32" y="694" on="1"/>
        <pt x="257" y="690" on="1"/>
        <pt x="254" y="746" on="0"/>
        <pt x="213" y="1009" on="0"/>
        <pt x="213" y="1157" on="0"/>
        <pt x="276" y="1337" on="0"/>
        <pt x="328" y="1377" on="1"/>
        <pt x="354" y="1354" on="1"/>
        <pt x="348" y="1377" on="1"/>
        <pt x="364" y="1400" on="1"/>
        <pt x="383" y="1400" on="1"/>
        <pt x="433" y="1472" on="1"/>
        <pt x="505" y="1518" on="0"/>
        <pt x="834" y="1518" on="1"/>
        <pt x="852" y="1487" on="0"/>
        <pt x="959" y="1442" on="0"/>
        <pt x="978" y="1423" on="1"/>
        <pt x="970" y="1377" on="1"/>
        <pt x="990" y="1377" on="1"/>
        <pt x="990" y="1400" on="1"/>
        <pt x="1011" y="1400" on="1"/>
        <pt x="1048" y="1354" on="1"/>
        <pt x="1031" y="1332" on="1"/>
        <pt x="1057" y="1332" on="0"/>
        <pt x="1087" y="1260" on="0"/>
        <pt x="1114" y="1260" on="1"/>
        <pt x="1110" y="1172" on="1"/>
        <pt x="1092" y="1170" on="1"/>
        <pt x="1110" y="1145" on="1"/>
        <pt x="1112" y="1026" on="1"/>
        <pt x="1112" y="943" on="0"/>
        <pt x="1094" y="888" on="1"/>
        <pt x="1103" y="843" on="0"/>
        <pt x="1103" y="791" on="1"/>
        <pt x="1103" y="679" on="0"/>
        <pt x="1062" y="628" on="1"/>
        <pt x="1071" y="613" on="1"/>
        <pt x="1001" y="638" on="0"/>
        <pt x="880" y="638" on="0"/>
        <pt x="861" y="620" on="1"/>
        <pt x="842" y="638" on="0"/>
        <pt x="812" y="638" on="1"/>
        <pt x="799" y="637" on="1"/>
        <pt x="779" y="613" on="1"/>
        <pt x="761" y="637" on="1"/>
        <pt x="779" y="659" on="1"/>
        <pt x="779" y="683" on="1"/>
        <pt x="779" y="703" on="0"/>
        <pt x="739" y="771" on="0"/>
        <pt x="739" y="799" on="1"/>
        <pt x="726" y="799" on="1"/>
        <pt x="720" y="812" on="0"/>
        <pt x="710" y="855" on="0"/>
        <pt x="700" y="868" on="0"/>
        <pt x="686" y="868" on="0"/>
        <pt x="674" y="844" on="0"/>
        <pt x="671" y="844" on="0"/>
        <pt x="671" y="845" on="1"/>
        <pt x="653" y="824" on="1"/>
        <pt x="619" y="824" on="1"/>
        <pt x="600" y="784" on="0"/>
        <pt x="600" y="752" on="1"/>
        <pt x="580" y="752" on="1"/>
        <pt x="580" y="727" on="1"/>
        <pt x="600" y="727" on="1"/>
        <pt x="600" y="712" on="1"/>
        <pt x="688" y="712" on="1"/>
        <pt x="684" y="667" on="1"/>
        <pt x="669" y="663" on="1"/>
        <pt x="686" y="649" on="1"/>
        <pt x="669" y="651" on="1"/>
        <pt x="656" y="641" on="0"/>
      </contour>
    </TTGlyph>
    <TTGlyph name="F" xMin="30" yMin="-170" xMax="1089" yMax="1495">
      <contour>
        <pt x="313" y="-128" on="1"/>
        <pt x="328" y="-138" on="1"/>
        <pt x="328" y="-147" on="1"/>
        <pt x="290" y="-136" on="0"/>
        <pt x="290" y="-125" on="1"/>
        <pt x="290" y="174" on="1"/>
        <pt x="308" y="198" on="0"/>
        <pt x="312" y="332" on="0"/>
        <pt x="328" y="361" on="1"/>
        <pt x="308" y="385" on="1"/>
        <pt x="308" y="408" on="1"/>
        <pt x="290" y="429" on="1"/>
        <pt x="308" y="452" on="1"/>
        <pt x="290" y="477" on="1"/>
        <pt x="290" y="755" on="1"/>
        <pt x="279" y="769" on="0"/>
        <pt x="271" y="828" on="0"/>
        <pt x="262" y="870" on="0"/>
        <pt x="248" y="870" on="1"/>
        <pt x="248" y="1046" on="1"/>
        <pt x="248" y="1124" on="0"/>
        <pt x="240" y="1203" on="0"/>
        <pt x="193" y="1292" on="0"/>
        <pt x="127" y="1361" on="0"/>
        <pt x="53" y="1428" on="1"/>
        <pt x="70" y="1450" on="1"/>
        <pt x="48" y="1429" on="1"/>
        <pt x="30" y="1450" on="1"/>
        <pt x="248" y="1495" on="1"/>
        <pt x="271" y="1472" on="0"/>
        <pt x="306" y="1472" on="1"/>
        <pt x="324" y="1495" on="1"/>
        <pt x="559" y="1495" on="1"/>
        <pt x="577" y="1470" on="0"/>
        <pt x="636" y="1470" on="0"/>
        <pt x="668" y="1495" on="1"/>
        <pt x="668" y="1450" on="1"/>
        <pt x="703" y="1495" on="1"/>
        <pt x="742" y="1488" on="0"/>
        <pt x="821" y="1480" on="1"/>
        <pt x="996" y="1461" on="0"/>
        <pt x="1089" y="1428" on="1"/>
        <pt x="1043" y="1428" on="0"/>
        <pt x="975" y="1265" on="0"/>
        <pt x="959" y="1147" on="1"/>
        <pt x="929" y="926" on="0"/>
        <pt x="929" y="779" on="1"/>
        <pt x="949" y="779" on="1"/>
        <pt x="949" y="733" on="1"/>
        <pt x="919" y="740" on="0"/>
        <pt x="782" y="801" on="0"/>
        <pt x="741" y="801" on="1"/>
        <pt x="741" y="824" on="1"/>
        <pt x="714" y="824" on="0"/>
        <pt x="714" y="807" on="0"/>
        <pt x="720" y="801" on="1"/>
        <pt x="711" y="799" on="0"/>
        <pt x="609" y="799" on="0"/>
        <pt x="576" y="824" on="1"/>
        <pt x="596" y="797" on="0"/>
        <pt x="596" y="735" on="1"/>
        <pt x="596" y="729" on="0"/>
        <pt x="627" y="710" on="0"/>
        <pt x="626" y="707" on="1"/>
        <pt x="608" y="685" on="1"/>
        <pt x="879" y="685" on="1"/>
        <pt x="893" y="663" on="1"/>
        <pt x="879" y="638" on="1"/>
        <pt x="879" y="500" on="1"/>
        <pt x="862" y="500" on="1"/>
        <pt x="879" y="468" on="0"/>
        <pt x="879" y="404" on="0"/>
        <pt x="872" y="385" on="0"/>
        <pt x="863" y="364" on="0"/>
        <pt x="862" y="361" on="1"/>
        <pt x="838" y="411" on="0"/>
        <pt x="749" y="411" on="1"/>
        <pt x="739" y="411" on="0"/>
        <pt x="700" y="408" on="1"/>
        <pt x="704" y="412" on="0"/>
        <pt x="704" y="428" on="0"/>
        <pt x="676" y="428" on="0"/>
        <pt x="676" y="413" on="0"/>
        <pt x="678" y="411" on="1"/>
        <pt x="662" y="429" on="1"/>
        <pt x="662" y="408" on="1"/>
        <pt x="626" y="408" on="1"/>
        <pt x="626" y="429" on="1"/>
        <pt x="608" y="405" on="0"/>
        <pt x="608" y="351" on="1"/>
        <pt x="608" y="315" on="1"/>
        <pt x="589" y="315" on="1"/>
        <pt x="608" y="292" on="1"/>
        <pt x="626" y="-33" on="1"/>
        <pt x="626" y="-120" on="1"/>
        <pt x="608" y="-142" on="1"/>
        <pt x="608" y="-120" on="1"/>
        <pt x="589" y="-96" on="1"/>
        <pt x="608" y="-62" on="0"/>
        <pt x="608" y="-51" on="1"/>
        <pt x="608" y="-43" on="1"/>
        <pt x="608" y="-33" on="0"/>
        <pt x="529" y="-33" on="1"/>
        <pt x="505" y="-46" on="0"/>
        <pt x="505" y="-113" on="1"/>
        <pt x="505" y="-124" on="0"/>
        <pt x="512" y="-160" on="0"/>
        <pt x="512" y="-170" on="1"/>
        <pt x="511" y="-169" on="0"/>
        <pt x="488" y="-166" on="1"/>
        <pt x="488" y="-144" on="1"/>
        <pt x="468" y="-120" on="1"/>
        <pt x="468" y="-79" on="1"/>
        <pt x="389" y="-10" on="1"/>
        <pt x="313" y="-10" on="0"/>
      </contour>
      <contour>
        <pt x="53" y="1428" on="1"/>
        <pt x="48" y="1428" on="1"/>
        <pt x="48" y="1429" on="1"/>
      </contour>
    </TTGlyph>
    <TTGlyph name="G" xMin="70" yMin="-207" xMax="981" yMax="1505">
      <contour>
        <pt x="928" y="681" on="1"/>
        <pt x="949" y="602" on="1"/>
        <pt x="904" y="602" on="1"/>
        <pt x="607" y="602" on="0"/>
        <pt x="603" y="667" on="1"/>
        <pt x="595" y="653" on="1"/>
        <pt x="601" y="668" on="0"/>
        <pt x="601" y="710" on="0"/>
        <pt x="584" y="742" on="1"/>
        <pt x="603" y="764" on="1"/>
        <pt x="584" y="764" on="1"/>
        <pt x="566" y="789" on="1"/>
        <pt x="566" y="820" on="1"/>
        <pt x="547" y="811" on="1"/>
        <pt x="542" y="858" on="0"/>
        <pt x="450" y="858" on="0"/>
        <pt x="422" y="804" on="0"/>
        <pt x="422" y="745" on="1"/>
        <pt x="418" y="748" on="1"/>
        <pt x="425" y="734" on="0"/>
        <pt x="425" y="714" on="1"/>
        <pt x="422" y="676" on="1"/>
        <pt x="420" y="667" on="0"/>
        <pt x="403" y="622" on="0"/>
        <pt x="403" y="602" on="1"/>
        <pt x="422" y="578" on="1"/>
        <pt x="403" y="534" on="1"/>
        <pt x="419" y="498" on="0"/>
        <pt x="439" y="336" on="0"/>
        <pt x="458" y="301" on="1"/>
        <pt x="439" y="301" on="1"/>
        <pt x="439" y="280" on="1"/>
        <pt x="472" y="280" on="0"/>
        <pt x="472" y="255" on="1"/>
        <pt x="468" y="255" on="1"/>
        <pt x="458" y="255" on="0"/>
        <pt x="458" y="231" on="1"/>
        <pt x="510" y="170" on="1"/>
        <pt x="547" y="185" on="1"/>
        <pt x="547" y="166" on="1"/>
        <pt x="566" y="164" on="1"/>
        <pt x="566" y="190" on="0"/>
        <pt x="626" y="214" on="1"/>
        <pt x="650" y="223" on="0"/>
        <pt x="657" y="231" on="1"/>
        <pt x="637" y="255" on="1"/>
        <pt x="657" y="307" on="0"/>
        <pt x="657" y="319" on="1"/>
        <pt x="657" y="324" on="1"/>
        <pt x="637" y="324" on="1"/>
        <pt x="584" y="324" on="0"/>
        <pt x="547" y="280" on="1"/>
        <pt x="547" y="329" on="0"/>
        <pt x="530" y="526" on="0"/>
        <pt x="530" y="578" on="1"/>
        <pt x="569" y="524" on="0"/>
        <pt x="643" y="524" on="1"/>
        <pt x="767" y="534" on="1"/>
        <pt x="888" y="534" on="0"/>
        <pt x="930" y="487" on="1"/>
        <pt x="930" y="380" on="1"/>
        <pt x="930" y="165" on="0"/>
        <pt x="890" y="62" on="1"/>
        <pt x="851" y="-36" on="0"/>
        <pt x="769" y="-65" on="1"/>
        <pt x="764" y="-74" on="0"/>
        <pt x="752" y="-77" on="1"/>
        <pt x="728" y="-83" on="0"/>
        <pt x="728" y="-138" on="1"/>
        <pt x="728" y="-153" on="0"/>
        <pt x="692" y="-161" on="1"/>
        <pt x="674" y="-135" on="1"/>
        <pt x="692" y="-138" on="1"/>
        <pt x="655" y="-63" on="1"/>
        <pt x="620" y="-78" on="0"/>
        <pt x="598" y="-111" on="0"/>
        <pt x="598" y="-142" on="0"/>
        <pt x="601" y="-157" on="0"/>
        <pt x="601" y="-163" on="1"/>
        <pt x="601" y="-138" on="0"/>
        <pt x="566" y="-138" on="1"/>
        <pt x="551" y="-138" on="0"/>
        <pt x="545" y="-116" on="1"/>
        <pt x="551" y="-107" on="1"/>
        <pt x="551" y="-91" on="0"/>
        <pt x="508" y="-25" on="0"/>
        <pt x="478" y="22" on="0"/>
        <pt x="476" y="24" on="1"/>
        <pt x="478" y="13" on="0"/>
        <pt x="478" y="-72" on="0"/>
        <pt x="464" y="-144" on="1"/>
        <pt x="448" y="-130" on="0"/>
        <pt x="422" y="-53" on="0"/>
        <pt x="422" y="-22" on="1"/>
        <pt x="403" y="-46" on="1"/>
        <pt x="385" y="-46" on="1"/>
        <pt x="389" y="-48" on="1"/>
        <pt x="367" y="-91" on="1"/>
        <pt x="367" y="-103" on="0"/>
        <pt x="424" y="-150" on="0"/>
        <pt x="424" y="-184" on="0"/>
        <pt x="414" y="-208" on="0"/>
        <pt x="399" y="-207" on="1"/>
        <pt x="367" y="-205" on="1"/>
        <pt x="349" y="-68" on="1"/>
        <pt x="328" y="-68" on="0"/>
        <pt x="294" y="-31" on="0"/>
        <pt x="279" y="-13" on="0"/>
        <pt x="256" y="21" on="0"/>
        <pt x="253" y="24" on="1"/>
        <pt x="248" y="21" on="1"/>
        <pt x="151" y="250" on="0"/>
        <pt x="151" y="462" on="1"/>
        <pt x="151" y="513" on="0"/>
        <pt x="70" y="1014" on="0"/>
        <pt x="70" y="1147" on="1"/>
        <pt x="70" y="1200" on="0"/>
        <pt x="93" y="1229" on="1"/>
        <pt x="98" y="1217" on="1"/>
        <pt x="102" y="1222" on="1"/>
        <pt x="93" y="1298" on="1"/>
        <pt x="110" y="1339" on="0"/>
        <pt x="151" y="1389" on="1"/>
        <pt x="194" y="1367" on="1"/>
        <pt x="207" y="1389" on="1"/>
        <pt x="194" y="1414" on="1"/>
        <pt x="237" y="1414" on="0"/>
        <pt x="391" y="1505" on="0"/>
        <pt x="439" y="1505" on="1"/>
        <pt x="439" y="1484" on="1"/>
        <pt x="449" y="1484" on="0"/>
        <pt x="461" y="1505" on="0"/>
        <pt x="476" y="1505" on="1"/>
        <pt x="458" y="1460" on="1"/>
        <pt x="493" y="1491" on="0"/>
        <pt x="493" y="1505" on="1"/>
        <pt x="600" y="1505" on="0"/>
        <pt x="848" y="1389" on="0"/>
        <pt x="930" y="1298" on="1"/>
        <pt x="907" y="1298" on="1"/>
        <pt x="930" y="1247" on="1"/>
        <pt x="930" y="1251" on="1"/>
        <pt x="981" y="1193" on="0"/>
        <pt x="981" y="1066" on="1"/>
        <pt x="981" y="1022" on="0"/>
        <pt x="928" y="764" on="0"/>
      </contour>
      <contour>
        <pt x="458" y="231" on="1"/>
        <pt x="476" y="255" on="1"/>
        <pt x="476" y="231" on="0"/>
      </contour>
      <contour>
        <pt x="476" y="255" on="1"/>
        <pt x="472" y="255" on="1"/>
        <pt x="476" y="271" on="1"/>
      </contour>
      <contour>
        <pt x="595" y="653" on="1"/>
        <pt x="590" y="643" on="0"/>
        <pt x="587" y="640" on="1"/>
      </contour>
      <contour>
        <pt x="586" y="638" on="1"/>
        <pt x="584" y="635" on="1"/>
      </contour>
    </TTGlyph>
    <TTGlyph name="Gbreve" xMin="70" yMin="-207" xMax="981" yMax="2224">
      <component glyphName="breve" x="68" y="1796" flags="0x1004"/>
      <component glyphName="G" x="0" y="0" flags="0x1204"/>
    </TTGlyph>
    <TTGlyph name="Gcircumflex" xMin="37" yMin="-207" xMax="981" yMax="2338">
      <component glyphName="circumflex" x="-43" y="196" flags="0x1004"/>
      <component glyphName="G" x="0" y="0" flags="0x1204"/>
    </TTGlyph>
    <TTGlyph name="Gcommaaccent" xMin="70" yMin="-1233" xMax="981" yMax="1505">
      <component glyphName="uni0326" x="198" y="-1045" flags="0x1004"/>
      <component glyphName="G" x="0" y="0" flags="0x1204"/>
    </TTGlyph>
    <TTGlyph name="Gdotaccent" xMin="70" yMin="-207" xMax="981" yMax="2282">
      <component glyphName="dotaccent" x="98" y="1185" flags="0x1004"/>
      <component glyphName="G" x="0" y="0" flags="0x1204"/>
    </TTGlyph>
    <TTGlyph name="H" xMin="-6" yMin="-412" xMax="1458" yMax="1510">
      <contour>
        <pt x="1140" y="491" on="1"/>
        <pt x="1119" y="329" on="1"/>
        <pt x="1083" y="296" on="1"/>
        <pt x="1099" y="306" on="1"/>
        <pt x="1099" y="239" on="0"/>
        <pt x="1059" y="-21" on="0"/>
        <pt x="1059" y="-121" on="0"/>
        <pt x="1010" y="-155" on="0"/>
        <pt x="979" y="-155" on="1"/>
        <pt x="1009" y="-89" on="1"/>
        <pt x="999" y="-63" on="1"/>
        <pt x="997" y="-65" on="1"/>
        <pt x="996" y="-65" on="0"/>
        <pt x="996" y="-63" on="1"/>
        <pt x="948" y="-91" on="1"/>
        <pt x="939" y="-89" on="1"/>
        <pt x="898" y="-48" on="1"/>
        <pt x="902" y="-73" on="1"/>
        <pt x="902" y="-134" on="0"/>
        <pt x="858" y="-134" on="1"/>
        <pt x="857" y="-131" on="0"/>
        <pt x="830" y="-104" on="0"/>
        <pt x="830" y="-92" on="0"/>
        <pt x="839" y="-89" on="1"/>
        <pt x="803" y="-65" on="1"/>
        <pt x="785" y="-94" on="1"/>
        <pt x="786" y="-75" on="0"/>
        <pt x="803" y="4" on="0"/>
        <pt x="803" y="26" on="1"/>
        <pt x="766" y="3" on="1"/>
        <pt x="748" y="51" on="1"/>
        <pt x="786" y="51" on="0"/>
        <pt x="786" y="219" on="1"/>
        <pt x="785" y="306" on="1"/>
        <pt x="804" y="411" on="1"/>
        <pt x="804" y="416" on="0"/>
        <pt x="796" y="424" on="0"/>
        <pt x="793" y="424" on="1"/>
        <pt x="785" y="421" on="1"/>
        <pt x="766" y="444" on="1"/>
        <pt x="766" y="444" on="0"/>
        <pt x="622" y="421" on="1"/>
        <pt x="622" y="398" on="1"/>
        <pt x="594" y="365" on="1"/>
        <pt x="613" y="375" on="1"/>
        <pt x="624" y="268" on="1"/>
        <pt x="622" y="3" on="1"/>
        <pt x="541" y="-41" on="1"/>
        <pt x="543" y="-26" on="1"/>
        <pt x="539" y="-22" on="1"/>
        <pt x="462" y="-18" on="1"/>
        <pt x="450" y="-18" on="0"/>
        <pt x="433" y="-34" on="1"/>
        <pt x="378" y="-83" on="0"/>
        <pt x="340" y="-89" on="1"/>
        <pt x="295" y="-46" on="1"/>
        <pt x="298" y="-41" on="0"/>
        <pt x="325" y="-41" on="0"/>
        <pt x="340" y="-51" on="1"/>
        <pt x="340" y="390" on="0"/>
        <pt x="221" y="983" on="1"/>
        <pt x="216" y="1008" on="0"/>
        <pt x="204" y="1054" on="1"/>
        <pt x="179" y="1154" on="0"/>
        <pt x="179" y="1294" on="0"/>
        <pt x="71" y="1411" on="0"/>
        <pt x="-6" y="1418" on="1"/>
        <pt x="161" y="1418" on="0"/>
        <pt x="396" y="1459" on="0"/>
        <pt x="421" y="1486" on="1"/>
        <pt x="427" y="1462" on="1"/>
        <pt x="430" y="1460" on="1"/>
        <pt x="443" y="1460" on="0"/>
        <pt x="443" y="1480" on="1"/>
        <pt x="441" y="1486" on="1"/>
        <pt x="485" y="1486" on="0"/>
        <pt x="655" y="1510" on="0"/>
        <pt x="693" y="1510" on="1"/>
        <pt x="685" y="1500" on="0"/>
        <pt x="667" y="1458" on="1"/>
        <pt x="620" y="1349" on="0"/>
        <pt x="601" y="1349" on="1"/>
        <pt x="622" y="1324" on="1"/>
        <pt x="601" y="675" on="1"/>
        <pt x="618" y="675" on="0"/>
        <pt x="677" y="700" on="0"/>
        <pt x="693" y="700" on="1"/>
        <pt x="693" y="675" on="1"/>
        <pt x="714" y="675" on="0"/>
        <pt x="798" y="700" on="0"/>
        <pt x="819" y="700" on="1"/>
        <pt x="819" y="688" on="1"/>
        <pt x="839" y="712" on="0"/>
        <pt x="839" y="742" on="1"/>
        <pt x="839" y="1118" on="1"/>
        <pt x="839" y="1149" on="0"/>
        <pt x="876" y="1255" on="0"/>
        <pt x="898" y="1255" on="1"/>
        <pt x="898" y="1273" on="0"/>
        <pt x="868" y="1301" on="0"/>
        <pt x="860" y="1312" on="1"/>
        <pt x="839" y="1340" on="0"/>
        <pt x="839" y="1395" on="1"/>
        <pt x="819" y="1510" on="1"/>
        <pt x="913" y="1510" on="0"/>
        <pt x="979" y="1486" on="1"/>
        <pt x="1001" y="1510" on="1"/>
        <pt x="1018" y="1510" on="0"/>
        <pt x="1082" y="1486" on="0"/>
        <pt x="1099" y="1486" on="1"/>
        <pt x="1099" y="1510" on="1"/>
        <pt x="1123" y="1482" on="1"/>
        <pt x="1259" y="1486" on="1"/>
        <pt x="1275" y="1464" on="0"/>
        <pt x="1381" y="1461" on="0"/>
        <pt x="1400" y="1441" on="1"/>
        <pt x="1458" y="1441" on="1"/>
        <pt x="1393" y="1441" on="0"/>
        <pt x="1284" y="1156" on="1"/>
        <pt x="1238" y="1012" on="1"/>
        <pt x="1240" y="1002" on="1"/>
        <pt x="1233" y="954" on="1"/>
        <pt x="1226" y="957" on="1"/>
        <pt x="1219" y="954" on="1"/>
        <pt x="1240" y="931" on="1"/>
        <pt x="1234" y="912" on="0"/>
        <pt x="1214" y="860" on="1"/>
        <pt x="1169" y="749" on="0"/>
        <pt x="1169" y="675" on="0"/>
        <pt x="1178" y="653" on="1"/>
        <pt x="1136" y="653" on="0"/>
        <pt x="1136" y="568" on="1"/>
      </contour>
      <contour>
        <pt x="785" y="-205" on="1"/>
        <pt x="785" y="-412" on="1"/>
        <pt x="748" y="-412" on="1"/>
        <pt x="748" y="-366" on="1"/>
        <pt x="748" y="-327" on="0"/>
        <pt x="768" y="-225" on="0"/>
      </contour>
    </TTGlyph>
    <TTGlyph name="Hcircumflex" xMin="-6" yMin="-412" xMax="1458" yMax="2341">
      <component glyphName="circumflex" x="175" y="199" flags="0x1004"/>
      <component glyphName="H" x="0" y="0" flags="0x1204"/>
    </TTGlyph>
    <TTGlyph name="I" xMin="12" yMin="-111" xMax="776" yMax="1515">
      <contour>
        <pt x="536" y="-45" on="1"/>
        <pt x="535" y="-65" on="1"/>
        <pt x="500" y="-111" on="1"/>
        <pt x="463" y="-87" on="1"/>
        <pt x="462" y="-61" on="0"/>
        <pt x="462" y="-30" on="0"/>
        <pt x="476" y="-28" on="1"/>
        <pt x="445" y="55" on="1"/>
        <pt x="392" y="55" on="1"/>
        <pt x="374" y="31" on="1"/>
        <pt x="374" y="-7" on="1"/>
        <pt x="374" y="-17" on="0"/>
        <pt x="392" y="-53" on="1"/>
        <pt x="374" y="-18" on="1"/>
        <pt x="374" y="-33" on="1"/>
        <pt x="374" y="-87" on="0"/>
        <pt x="354" y="-87" on="1"/>
        <pt x="337" y="-65" on="1"/>
        <pt x="328" y="1" on="0"/>
        <pt x="279" y="347" on="0"/>
        <pt x="265" y="454" on="1"/>
        <pt x="225" y="762" on="0"/>
        <pt x="225" y="957" on="1"/>
        <pt x="225" y="990" on="0"/>
        <pt x="247" y="1117" on="0"/>
        <pt x="247" y="1158" on="0"/>
        <pt x="236" y="1179" on="0"/>
        <pt x="209" y="1208" on="0"/>
        <pt x="206" y="1212" on="1"/>
        <pt x="206" y="1269" on="0"/>
        <pt x="174" y="1300" on="1"/>
        <pt x="136" y="1339" on="0"/>
        <pt x="84" y="1375" on="1"/>
        <pt x="64" y="1419" on="1"/>
        <pt x="84" y="1443" on="1"/>
        <pt x="70" y="1443" on="1"/>
        <pt x="45" y="1443" on="0"/>
        <pt x="26" y="1468" on="1"/>
        <pt x="12" y="1468" on="1"/>
        <pt x="69" y="1473" on="0"/>
        <pt x="107" y="1515" on="1"/>
        <pt x="374" y="1515" on="1"/>
        <pt x="374" y="1490" on="1"/>
        <pt x="424" y="1515" on="0"/>
        <pt x="427" y="1515" on="1"/>
        <pt x="518" y="1515" on="1"/>
        <pt x="535" y="1497" on="1"/>
        <pt x="554" y="1515" on="1"/>
        <pt x="694" y="1515" on="0"/>
        <pt x="776" y="1490" on="1"/>
        <pt x="717" y="1399" on="1"/>
        <pt x="695" y="1399" on="1"/>
        <pt x="695" y="1375" on="1"/>
        <pt x="717" y="1375" on="1"/>
        <pt x="635" y="1212" on="1"/>
        <pt x="659" y="1208" on="0"/>
        <pt x="677" y="1188" on="1"/>
        <pt x="668" y="1140" on="0"/>
        <pt x="634" y="841" on="0"/>
        <pt x="616" y="773" on="1"/>
        <pt x="595" y="773" on="1"/>
        <pt x="599" y="724" on="0"/>
        <pt x="616" y="704" on="1"/>
        <pt x="616" y="517" on="1"/>
        <pt x="581" y="517" on="1"/>
        <pt x="597" y="508" on="0"/>
        <pt x="597" y="464" on="1"/>
        <pt x="595" y="449" on="1"/>
        <pt x="577" y="426" on="1"/>
        <pt x="577" y="402" on="1"/>
        <pt x="599" y="402" on="0"/>
        <pt x="599" y="332" on="1"/>
        <pt x="577" y="79" on="1"/>
        <pt x="577" y="67" on="0"/>
        <pt x="595" y="31" on="1"/>
        <pt x="577" y="8" on="1"/>
        <pt x="595" y="8" on="1"/>
        <pt x="616" y="-38" on="1"/>
        <pt x="577" y="-38" on="1"/>
        <pt x="554" y="-16" on="1"/>
        <pt x="535" y="-16" on="1"/>
        <pt x="518" y="8" on="1"/>
        <pt x="518" y="-60" on="1"/>
        <pt x="533" y="-60" on="0"/>
      </contour>
    </TTGlyph>
    <TTGlyph name="IJ" xMin="12" yMin="-111" xMax="1798" yMax="1515">
      <contour>
        <pt x="567" y="-45" on="1"/>
        <pt x="566" y="-65" on="1"/>
        <pt x="527" y="-111" on="1"/>
        <pt x="486" y="-87" on="1"/>
        <pt x="485" y="-61" on="0"/>
        <pt x="485" y="-30" on="0"/>
        <pt x="501" y="-28" on="1"/>
        <pt x="466" y="55" on="1"/>
        <pt x="407" y="55" on="1"/>
        <pt x="387" y="31" on="1"/>
        <pt x="387" y="-7" on="1"/>
        <pt x="387" y="-10" on="0"/>
        <pt x="406" y="-50" on="0"/>
        <pt x="407" y="-53" on="1"/>
        <pt x="387" y="-18" on="1"/>
        <pt x="387" y="-33" on="1"/>
        <pt x="387" y="-87" on="0"/>
        <pt x="365" y="-87" on="1"/>
        <pt x="346" y="-65" on="1"/>
        <pt x="338" y="-7" on="0"/>
        <pt x="282" y="353" on="0"/>
        <pt x="268" y="456" on="1"/>
        <pt x="225" y="758" on="0"/>
        <pt x="225" y="957" on="1"/>
        <pt x="225" y="990" on="0"/>
        <pt x="247" y="1117" on="0"/>
        <pt x="247" y="1158" on="0"/>
        <pt x="236" y="1179" on="0"/>
        <pt x="209" y="1208" on="0"/>
        <pt x="206" y="1212" on="1"/>
        <pt x="206" y="1269" on="0"/>
        <pt x="174" y="1300" on="1"/>
        <pt x="136" y="1339" on="0"/>
        <pt x="84" y="1375" on="1"/>
        <pt x="64" y="1419" on="1"/>
        <pt x="84" y="1443" on="1"/>
        <pt x="70" y="1443" on="1"/>
        <pt x="45" y="1443" on="0"/>
        <pt x="26" y="1468" on="1"/>
        <pt x="12" y="1468" on="1"/>
        <pt x="69" y="1473" on="0"/>
        <pt x="107" y="1515" on="1"/>
        <pt x="387" y="1515" on="1"/>
        <pt x="387" y="1490" on="1"/>
        <pt x="443" y="1515" on="0"/>
        <pt x="446" y="1515" on="1"/>
        <pt x="547" y="1515" on="1"/>
        <pt x="566" y="1497" on="1"/>
        <pt x="585" y="1515" on="1"/>
        <pt x="725" y="1515" on="0"/>
        <pt x="807" y="1490" on="1"/>
        <pt x="748" y="1399" on="1"/>
        <pt x="726" y="1399" on="1"/>
        <pt x="726" y="1375" on="1"/>
        <pt x="748" y="1375" on="1"/>
        <pt x="666" y="1212" on="1"/>
        <pt x="690" y="1208" on="0"/>
        <pt x="708" y="1188" on="1"/>
        <pt x="699" y="1140" on="0"/>
        <pt x="665" y="841" on="0"/>
        <pt x="647" y="773" on="1"/>
        <pt x="626" y="773" on="1"/>
        <pt x="630" y="724" on="0"/>
        <pt x="647" y="704" on="1"/>
        <pt x="647" y="517" on="1"/>
        <pt x="612" y="517" on="1"/>
        <pt x="628" y="508" on="0"/>
        <pt x="628" y="464" on="1"/>
        <pt x="626" y="449" on="1"/>
        <pt x="608" y="426" on="1"/>
        <pt x="608" y="402" on="1"/>
        <pt x="630" y="402" on="0"/>
        <pt x="630" y="332" on="1"/>
        <pt x="608" y="79" on="1"/>
        <pt x="608" y="67" on="0"/>
        <pt x="626" y="31" on="1"/>
        <pt x="608" y="8" on="1"/>
        <pt x="626" y="8" on="1"/>
        <pt x="647" y="-38" on="1"/>
        <pt x="608" y="-38" on="1"/>
        <pt x="585" y="-16" on="1"/>
        <pt x="566" y="-16" on="1"/>
        <pt x="547" y="8" on="1"/>
        <pt x="547" y="-60" on="1"/>
        <pt x="564" y="-60" on="0"/>
      </contour>
      <contour>
        <pt x="1278" y="-81" on="1"/>
        <pt x="1258" y="-61" on="0"/>
        <pt x="1258" y="-32" on="1"/>
        <pt x="1258" y="13" on="1"/>
        <pt x="1217" y="57" on="1"/>
        <pt x="1171" y="57" on="0"/>
        <pt x="1171" y="-43" on="1"/>
        <pt x="1173" y="-28" on="0"/>
        <pt x="1180" y="-18" on="1"/>
        <pt x="1179" y="-61" on="0"/>
        <pt x="1156" y="-89" on="1"/>
        <pt x="1136" y="-66" on="1"/>
        <pt x="1144" y="-28" on="1"/>
        <pt x="1144" y="-19" on="0"/>
        <pt x="1122" y="-7" on="0"/>
        <pt x="1077" y="13" on="1"/>
        <pt x="1037" y="13" on="1"/>
        <pt x="977" y="57" on="1"/>
        <pt x="944" y="57" on="0"/>
        <pt x="912" y="167" on="1"/>
        <pt x="899" y="214" on="0"/>
        <pt x="896" y="221" on="1"/>
        <pt x="917" y="268" on="1"/>
        <pt x="896" y="290" on="0"/>
        <pt x="896" y="337" on="1"/>
        <pt x="875" y="362" on="0"/>
        <pt x="875" y="432" on="0"/>
        <pt x="910" y="470" on="0"/>
        <pt x="934" y="470" on="1"/>
        <pt x="1007" y="468" on="0"/>
        <pt x="1037" y="498" on="1"/>
        <pt x="1092" y="498" on="1"/>
        <pt x="1046" y="474" on="1"/>
        <pt x="1056" y="452" on="1"/>
        <pt x="1118" y="521" on="1"/>
        <pt x="1136" y="521" on="1"/>
        <pt x="1156" y="546" on="1"/>
        <pt x="1156" y="498" on="1"/>
        <pt x="1136" y="498" on="1"/>
        <pt x="1156" y="474" on="1"/>
        <pt x="1155" y="385" on="1"/>
        <pt x="1148" y="197" on="0"/>
        <pt x="1236" y="197" on="1"/>
        <pt x="1274" y="255" on="0"/>
        <pt x="1300" y="338" on="0"/>
        <pt x="1300" y="390" on="1"/>
        <pt x="1297" y="546" on="1"/>
        <pt x="1297" y="552" on="0"/>
        <pt x="1317" y="599" on="0"/>
        <pt x="1317" y="615" on="1"/>
        <pt x="1297" y="685" on="1"/>
        <pt x="1297" y="868" on="1"/>
        <pt x="1317" y="1079" on="1"/>
        <pt x="1337" y="1101" on="0"/>
        <pt x="1337" y="1158" on="1"/>
        <pt x="1337" y="1170" on="1"/>
        <pt x="1317" y="1170" on="1"/>
        <pt x="1317" y="1240" on="1"/>
        <pt x="1297" y="1267" on="0"/>
        <pt x="1297" y="1310" on="1"/>
        <pt x="1249" y="1375" on="0"/>
        <pt x="1236" y="1449" on="1"/>
        <pt x="1258" y="1449" on="1"/>
        <pt x="1236" y="1472" on="1"/>
        <pt x="1236" y="1495" on="1"/>
        <pt x="1517" y="1495" on="1"/>
        <pt x="1602" y="1495" on="0"/>
        <pt x="1660" y="1481" on="1"/>
        <pt x="1776" y="1453" on="0"/>
        <pt x="1798" y="1449" on="1"/>
        <pt x="1737" y="1379" on="1"/>
        <pt x="1719" y="1379" on="1"/>
        <pt x="1737" y="1356" on="1"/>
        <pt x="1719" y="1332" on="1"/>
        <pt x="1719" y="1165" on="0"/>
        <pt x="1637" y="1101" on="1"/>
        <pt x="1658" y="1054" on="1"/>
        <pt x="1633" y="1028" on="0"/>
        <pt x="1633" y="854" on="0"/>
        <pt x="1637" y="824" on="1"/>
        <pt x="1606" y="785" on="0"/>
        <pt x="1595" y="558" on="0"/>
        <pt x="1578" y="521" on="1"/>
        <pt x="1558" y="521" on="1"/>
        <pt x="1558" y="498" on="1"/>
        <pt x="1578" y="498" on="1"/>
        <pt x="1578" y="447" on="0"/>
        <pt x="1538" y="249" on="0"/>
        <pt x="1538" y="197" on="1"/>
        <pt x="1479" y="108" on="0"/>
        <pt x="1479" y="-10" on="0"/>
        <pt x="1457" y="-35" on="1"/>
        <pt x="1457" y="-33" on="1"/>
        <pt x="1436" y="-48" on="1"/>
        <pt x="1417" y="-52" on="0"/>
        <pt x="1416" y="-53" on="1"/>
        <pt x="1416" y="-48" on="0"/>
        <pt x="1418" y="-45" on="1"/>
        <pt x="1436" y="-22" on="1"/>
        <pt x="1436" y="13" on="1"/>
        <pt x="1418" y="36" on="1"/>
        <pt x="1337" y="-35" on="1"/>
        <pt x="1337" y="-55" on="1"/>
        <pt x="1317" y="-77" on="1"/>
        <pt x="1278" y="-77" on="1"/>
      </contour>
    </TTGlyph>
    <TTGlyph name="Iacute" xMin="12" yMin="-111" xMax="1106" yMax="2162">
      <component glyphName="acute" x="311" y="88" flags="0x1004"/>
      <component glyphName="I" x="0" y="0" flags="0x1204"/>
    </TTGlyph>
    <TTGlyph name="Ibreve" xMin="12" yMin="-111" xMax="851" yMax="2232">
      <component glyphName="breve" x="-24" y="1804" flags="0x1004"/>
      <component glyphName="I" x="0" y="0" flags="0x1204"/>
    </TTGlyph>
    <TTGlyph name="Icircumflex" xMin="-71" yMin="-111" xMax="856" yMax="2346">
      <component glyphName="circumflex" x="-151" y="204" flags="0x1004"/>
      <component glyphName="I" x="0" y="0" flags="0x1204"/>
    </TTGlyph>
    <TTGlyph name="Idieresis" xMin="-90" yMin="-111" xMax="917" yMax="2151">
      <component glyphName="dieresis" x="-229" y="9" flags="0x1004"/>
      <component glyphName="I" x="0" y="0" flags="0x1204"/>
    </TTGlyph>
    <TTGlyph name="Idotaccent" xMin="12" yMin="-111" xMax="776" yMax="2289">
      <component glyphName="dotaccent" x="-9" y="1192" flags="0x1004"/>
      <component glyphName="I" x="0" y="0" flags="0x1204"/>
    </TTGlyph>
    <TTGlyph name="Igrave" xMin="-195" yMin="-111" xMax="776" yMax="2158">
      <component glyphName="grave" x="-298" y="86" flags="0x1004"/>
      <component glyphName="I" x="0" y="0" flags="0x1204"/>
    </TTGlyph>
    <TTGlyph name="Imacron" xMin="12" yMin="-111" xMax="776" yMax="1909">
      <component glyphName="macron" x="-63" y="1062" flags="0x1004"/>
      <component glyphName="I" x="0" y="0" flags="0x1204"/>
    </TTGlyph>
    <TTGlyph name="Iogonek" xMin="12" yMin="-796" xMax="776" yMax="1515">
      <contour>
        <pt x="577" y="-38" on="1"/>
        <pt x="545" y="-35" on="0"/>
        <pt x="513" y="-35" on="1"/>
        <pt x="505" y="-64" on="0"/>
        <pt x="473" y="-166" on="0"/>
        <pt x="464" y="-198" on="1"/>
        <pt x="439" y="-283" on="0"/>
        <pt x="439" y="-344" on="1"/>
        <pt x="439" y="-466" on="0"/>
        <pt x="553" y="-528" on="1"/>
        <pt x="547" y="-528" on="0"/>
        <pt x="554" y="-529" on="1"/>
        <pt x="606" y="-536" on="0"/>
        <pt x="656" y="-536" on="1"/>
        <pt x="724" y="-536" on="0"/>
        <pt x="739" y="-534" on="1"/>
        <pt x="762" y="-526" on="1"/>
        <pt x="765" y="-548" on="0"/>
        <pt x="765" y="-566" on="1"/>
        <pt x="746" y="-794" on="1"/>
        <pt x="729" y="-794" on="0"/>
        <pt x="712" y="-771" on="1"/>
        <pt x="706" y="-771" on="0"/>
        <pt x="674" y="-796" on="0"/>
        <pt x="653" y="-796" on="1"/>
        <pt x="344" y="-796" on="0"/>
        <pt x="265" y="-623" on="1"/>
        <pt x="210" y="-501" on="0"/>
        <pt x="254" y="-257" on="1"/>
        <pt x="268" y="-180" on="0"/>
        <pt x="311" y="23" on="0"/>
        <pt x="319" y="65" on="1"/>
        <pt x="317" y="80" on="0"/>
        <pt x="286" y="294" on="0"/>
        <pt x="278" y="357" on="0"/>
        <pt x="253" y="544" on="0"/>
        <pt x="244" y="639" on="0"/>
        <pt x="237" y="713" on="1"/>
        <pt x="216" y="937" on="0"/>
        <pt x="247" y="1117" on="0"/>
        <pt x="247" y="1158" on="0"/>
        <pt x="236" y="1179" on="0"/>
        <pt x="209" y="1208" on="0"/>
        <pt x="206" y="1212" on="1"/>
        <pt x="206" y="1269" on="0"/>
        <pt x="174" y="1300" on="1"/>
        <pt x="136" y="1339" on="0"/>
        <pt x="84" y="1375" on="1"/>
        <pt x="64" y="1419" on="1"/>
        <pt x="84" y="1443" on="1"/>
        <pt x="70" y="1443" on="1"/>
        <pt x="45" y="1443" on="0"/>
        <pt x="26" y="1468" on="1"/>
        <pt x="12" y="1468" on="1"/>
        <pt x="69" y="1473" on="0"/>
        <pt x="107" y="1515" on="1"/>
        <pt x="374" y="1515" on="1"/>
        <pt x="374" y="1490" on="1"/>
        <pt x="424" y="1515" on="0"/>
        <pt x="427" y="1515" on="1"/>
        <pt x="518" y="1515" on="1"/>
        <pt x="535" y="1497" on="1"/>
        <pt x="554" y="1515" on="1"/>
        <pt x="694" y="1515" on="0"/>
        <pt x="776" y="1490" on="1"/>
        <pt x="717" y="1399" on="1"/>
        <pt x="695" y="1399" on="1"/>
        <pt x="695" y="1375" on="1"/>
        <pt x="717" y="1375" on="1"/>
        <pt x="635" y="1212" on="1"/>
        <pt x="659" y="1208" on="0"/>
        <pt x="677" y="1188" on="1"/>
        <pt x="668" y="1140" on="0"/>
        <pt x="634" y="841" on="0"/>
        <pt x="616" y="773" on="1"/>
        <pt x="595" y="773" on="1"/>
        <pt x="599" y="724" on="0"/>
        <pt x="616" y="704" on="1"/>
        <pt x="616" y="517" on="1"/>
        <pt x="581" y="517" on="1"/>
        <pt x="597" y="508" on="0"/>
        <pt x="597" y="464" on="1"/>
        <pt x="595" y="449" on="1"/>
        <pt x="577" y="426" on="1"/>
        <pt x="577" y="402" on="1"/>
        <pt x="599" y="402" on="0"/>
        <pt x="599" y="341" on="1"/>
        <pt x="577" y="79" on="1"/>
        <pt x="577" y="67" on="0"/>
        <pt x="595" y="31" on="1"/>
        <pt x="577" y="8" on="1"/>
        <pt x="595" y="8" on="1"/>
        <pt x="616" y="-38" on="1"/>
      </contour>
    </TTGlyph>
    <TTGlyph name="Itilde" xMin="-109" yMin="-111" xMax="842" yMax="2111">
      <component glyphName="tilde" x="-183" y="1810" flags="0x1004"/>
      <component glyphName="I" x="0" y="0" flags="0x1204"/>
    </TTGlyph>
    <TTGlyph name="J" xMin="-46" yMin="-89" xMax="877" yMax="1495">
      <contour>
        <pt x="357" y="-81" on="1"/>
        <pt x="337" y="-61" on="0"/>
        <pt x="337" y="-32" on="1"/>
        <pt x="337" y="13" on="1"/>
        <pt x="296" y="57" on="1"/>
        <pt x="250" y="57" on="0"/>
        <pt x="250" y="-43" on="1"/>
        <pt x="252" y="-28" on="0"/>
        <pt x="259" y="-18" on="1"/>
        <pt x="258" y="-61" on="0"/>
        <pt x="235" y="-89" on="1"/>
        <pt x="215" y="-66" on="1"/>
        <pt x="223" y="-28" on="1"/>
        <pt x="223" y="-19" on="0"/>
        <pt x="201" y="-7" on="0"/>
        <pt x="156" y="13" on="1"/>
        <pt x="116" y="13" on="1"/>
        <pt x="56" y="57" on="1"/>
        <pt x="23" y="57" on="0"/>
        <pt x="-8" y="167" on="1"/>
        <pt x="-22" y="214" on="0"/>
        <pt x="-25" y="221" on="1"/>
        <pt x="-4" y="268" on="1"/>
        <pt x="-25" y="290" on="0"/>
        <pt x="-25" y="337" on="1"/>
        <pt x="-46" y="362" on="0"/>
        <pt x="-46" y="432" on="0"/>
        <pt x="-11" y="470" on="0"/>
        <pt x="12" y="470" on="1"/>
        <pt x="86" y="468" on="0"/>
        <pt x="116" y="498" on="1"/>
        <pt x="171" y="498" on="1"/>
        <pt x="125" y="474" on="1"/>
        <pt x="135" y="452" on="1"/>
        <pt x="197" y="521" on="1"/>
        <pt x="215" y="521" on="1"/>
        <pt x="235" y="546" on="1"/>
        <pt x="235" y="498" on="1"/>
        <pt x="215" y="498" on="1"/>
        <pt x="235" y="474" on="1"/>
        <pt x="234" y="385" on="1"/>
        <pt x="227" y="197" on="0"/>
        <pt x="315" y="197" on="1"/>
        <pt x="353" y="255" on="0"/>
        <pt x="379" y="338" on="0"/>
        <pt x="379" y="390" on="1"/>
        <pt x="376" y="546" on="1"/>
        <pt x="376" y="552" on="0"/>
        <pt x="396" y="599" on="0"/>
        <pt x="396" y="615" on="1"/>
        <pt x="376" y="685" on="1"/>
        <pt x="376" y="868" on="1"/>
        <pt x="396" y="1079" on="1"/>
        <pt x="416" y="1101" on="0"/>
        <pt x="416" y="1158" on="1"/>
        <pt x="416" y="1170" on="1"/>
        <pt x="396" y="1170" on="1"/>
        <pt x="396" y="1240" on="1"/>
        <pt x="376" y="1267" on="0"/>
        <pt x="376" y="1310" on="1"/>
        <pt x="328" y="1375" on="0"/>
        <pt x="315" y="1449" on="1"/>
        <pt x="337" y="1449" on="1"/>
        <pt x="315" y="1472" on="1"/>
        <pt x="315" y="1495" on="1"/>
        <pt x="596" y="1495" on="1"/>
        <pt x="681" y="1495" on="0"/>
        <pt x="739" y="1481" on="1"/>
        <pt x="855" y="1453" on="0"/>
        <pt x="877" y="1449" on="1"/>
        <pt x="816" y="1379" on="1"/>
        <pt x="798" y="1379" on="1"/>
        <pt x="816" y="1356" on="1"/>
        <pt x="798" y="1332" on="1"/>
        <pt x="798" y="1165" on="0"/>
        <pt x="716" y="1101" on="1"/>
        <pt x="737" y="1054" on="1"/>
        <pt x="712" y="1028" on="0"/>
        <pt x="712" y="854" on="0"/>
        <pt x="716" y="824" on="1"/>
        <pt x="685" y="785" on="0"/>
        <pt x="674" y="558" on="0"/>
        <pt x="657" y="521" on="1"/>
        <pt x="637" y="521" on="1"/>
        <pt x="637" y="498" on="1"/>
        <pt x="657" y="498" on="1"/>
        <pt x="657" y="447" on="0"/>
        <pt x="617" y="249" on="0"/>
        <pt x="617" y="197" on="1"/>
        <pt x="558" y="108" on="0"/>
        <pt x="558" y="-10" on="0"/>
        <pt x="536" y="-35" on="1"/>
        <pt x="536" y="-33" on="1"/>
        <pt x="515" y="-48" on="1"/>
        <pt x="496" y="-52" on="0"/>
        <pt x="495" y="-53" on="1"/>
        <pt x="495" y="-48" on="0"/>
        <pt x="497" y="-45" on="1"/>
        <pt x="515" y="-22" on="1"/>
        <pt x="515" y="13" on="1"/>
        <pt x="497" y="36" on="1"/>
        <pt x="416" y="-35" on="1"/>
        <pt x="416" y="-55" on="1"/>
        <pt x="396" y="-77" on="1"/>
        <pt x="357" y="-77" on="1"/>
      </contour>
    </TTGlyph>
    <TTGlyph name="Jcircumflex" xMin="-46" yMin="-89" xMax="1035" yMax="2338">
      <component glyphName="circumflex" x="28" y="196" flags="0x1004"/>
      <component glyphName="J" x="0" y="0" flags="0x1204"/>
    </TTGlyph>
    <TTGlyph name="K" xMin="14" yMin="-109" xMax="1162" yMax="1515">
      <contour>
        <pt x="778" y="-70" on="1"/>
        <pt x="760" y="-41" on="1"/>
        <pt x="723" y="-41" on="1"/>
        <pt x="705" y="-18" on="1"/>
        <pt x="703" y="-15" on="0"/>
        <pt x="703" y="8" on="0"/>
        <pt x="723" y="75" on="1"/>
        <pt x="719" y="75" on="1"/>
        <pt x="670" y="214" on="1"/>
        <pt x="686" y="238" on="1"/>
        <pt x="670" y="238" on="1"/>
        <pt x="618" y="306" on="0"/>
        <pt x="611" y="355" on="1"/>
        <pt x="603" y="290" on="0"/>
        <pt x="580" y="280" on="1"/>
        <pt x="554" y="269" on="0"/>
        <pt x="542" y="238" on="1"/>
        <pt x="579" y="53" on="1"/>
        <pt x="569" y="29" on="1"/>
        <pt x="580" y="-15" on="0"/>
        <pt x="597" y="-41" on="1"/>
        <pt x="561" y="-18" on="1"/>
        <pt x="561" y="-28" on="0"/>
        <pt x="581" y="-56" on="0"/>
        <pt x="583" y="-63" on="1"/>
        <pt x="579" y="-76" on="1"/>
        <pt x="595" y="-96" on="1"/>
        <pt x="561" y="-96" on="1"/>
        <pt x="542" y="-65" on="0"/>
        <pt x="542" y="-18" on="1"/>
        <pt x="513" y="6" on="0"/>
        <pt x="471" y="6" on="1"/>
        <pt x="443" y="6" on="0"/>
        <pt x="434" y="-60" on="1"/>
        <pt x="417" y="-84" on="1"/>
        <pt x="400" y="-60" on="1"/>
        <pt x="400" y="-36" on="1"/>
        <pt x="388" y="-34" on="0"/>
        <pt x="360" y="42" on="0"/>
        <pt x="360" y="67" on="0"/>
        <pt x="361" y="75" on="1"/>
        <pt x="380" y="100" on="1"/>
        <pt x="380" y="122" on="1"/>
        <pt x="360" y="122" on="0"/>
        <pt x="348" y="250" on="0"/>
        <pt x="341" y="402" on="0"/>
        <pt x="327" y="421" on="1"/>
        <pt x="347" y="452" on="1"/>
        <pt x="345" y="470" on="1"/>
        <pt x="325" y="470" on="0"/>
        <pt x="325" y="517" on="1"/>
        <pt x="327" y="538" on="1"/>
        <pt x="306" y="562" on="1"/>
        <pt x="308" y="586" on="1"/>
        <pt x="327" y="586" on="1"/>
        <pt x="321" y="603" on="0"/>
        <pt x="270" y="817" on="0"/>
        <pt x="271" y="822" on="1"/>
        <pt x="290" y="831" on="0"/>
        <pt x="290" y="858" on="1"/>
        <pt x="290" y="865" on="1"/>
        <pt x="271" y="886" on="1"/>
        <pt x="286" y="886" on="1"/>
        <pt x="286" y="961" on="0"/>
        <pt x="200" y="1250" on="0"/>
        <pt x="154" y="1301" on="1"/>
        <pt x="154" y="1349" on="1"/>
        <pt x="172" y="1349" on="1"/>
        <pt x="127" y="1357" on="0"/>
        <pt x="14" y="1464" on="1"/>
        <pt x="186" y="1512" on="0"/>
        <pt x="345" y="1512" on="1"/>
        <pt x="361" y="1470" on="1"/>
        <pt x="400" y="1512" on="1"/>
        <pt x="417" y="1464" on="1"/>
        <pt x="434" y="1495" on="1"/>
        <pt x="434" y="1488" on="1"/>
        <pt x="434" y="1464" on="0"/>
        <pt x="471" y="1464" on="1"/>
        <pt x="471" y="1505" on="1"/>
        <pt x="506" y="1464" on="1"/>
        <pt x="529" y="1512" on="1"/>
        <pt x="561" y="1512" on="1"/>
        <pt x="561" y="1405" on="1"/>
        <pt x="561" y="1337" on="0"/>
        <pt x="579" y="1068" on="0"/>
        <pt x="579" y="1002" on="1"/>
        <pt x="627" y="1062" on="0"/>
        <pt x="670" y="1178" on="0"/>
        <pt x="670" y="1257" on="1"/>
        <pt x="693" y="1259" on="0"/>
        <pt x="704" y="1432" on="1"/>
        <pt x="709" y="1498" on="0"/>
        <pt x="715" y="1515" on="1"/>
        <pt x="723" y="1512" on="1"/>
        <pt x="723" y="1488" on="1"/>
        <pt x="741" y="1464" on="1"/>
        <pt x="741" y="1488" on="1"/>
        <pt x="768" y="1512" on="0"/>
        <pt x="813" y="1512" on="1"/>
        <pt x="819" y="1493" on="0"/>
        <pt x="1107" y="1443" on="0"/>
        <pt x="1162" y="1441" on="1"/>
        <pt x="1103" y="1408" on="0"/>
        <pt x="920" y="1217" on="0"/>
        <pt x="868" y="1186" on="1"/>
        <pt x="886" y="1186" on="1"/>
        <pt x="868" y="1164" on="1"/>
        <pt x="868" y="1112" on="0"/>
        <pt x="811" y="918" on="0"/>
        <pt x="811" y="866" on="1"/>
        <pt x="838" y="834" on="0"/>
        <pt x="838" y="758" on="1"/>
        <pt x="831" y="632" on="1"/>
        <pt x="851" y="447" on="1"/>
        <pt x="831" y="447" on="1"/>
        <pt x="862" y="370" on="0"/>
        <pt x="907" y="146" on="0"/>
        <pt x="917" y="108" on="1"/>
        <pt x="922" y="122" on="1"/>
        <pt x="922" y="-22" on="1"/>
        <pt x="922" y="-74" on="0"/>
        <pt x="907" y="-109" on="1"/>
        <pt x="904" y="-107" on="1"/>
        <pt x="904" y="-77" on="0"/>
        <pt x="857" y="-5" on="0"/>
        <pt x="851" y="6" on="1"/>
        <pt x="805" y="6" on="0"/>
        <pt x="805" y="-59" on="1"/>
        <pt x="805" y="-73" on="1"/>
        <pt x="803" y="-72" on="0"/>
      </contour>
      <contour>
        <pt x="713" y="-41" on="1"/>
        <pt x="705" y="-41" on="1"/>
        <pt x="705" y="-36" on="1"/>
        <pt x="705" y="-37" on="0"/>
      </contour>
      <contour>
        <pt x="431" y="-68" on="1"/>
        <pt x="431" y="-66" on="1"/>
      </contour>
    </TTGlyph>
    <TTGlyph name="Kcommaaccent" xMin="14" yMin="-1135" xMax="1162" yMax="1515">
      <component glyphName="uni0326" x="275" y="-947" flags="0x1004"/>
      <component glyphName="K" x="0" y="0" flags="0x1204"/>
    </TTGlyph>
    <TTGlyph name="L" xMin="-3" yMin="-155" xMax="920" yMax="1508">
      <contour>
        <pt x="551" y="-84" on="1"/>
        <pt x="539" y="-103" on="0"/>
        <pt x="530" y="-130" on="1"/>
        <pt x="512" y="-130" on="1"/>
        <pt x="490" y="-107" on="1"/>
        <pt x="490" y="-22" on="1"/>
        <pt x="472" y="-22" on="1"/>
        <pt x="451" y="-7" on="1"/>
        <pt x="431" y="-22" on="1"/>
        <pt x="367" y="-22" on="0"/>
        <pt x="356" y="-68" on="1"/>
        <pt x="283" y="0" on="0"/>
        <pt x="253" y="252" on="1"/>
        <pt x="240" y="361" on="0"/>
        <pt x="231" y="396" on="1"/>
        <pt x="250" y="418" on="1"/>
        <pt x="231" y="464" on="1"/>
        <pt x="250" y="487" on="1"/>
        <pt x="231" y="510" on="1"/>
        <pt x="231" y="534" on="1"/>
        <pt x="210" y="534" on="1"/>
        <pt x="210" y="789" on="1"/>
        <pt x="171" y="834" on="1"/>
        <pt x="190" y="880" on="1"/>
        <pt x="171" y="880" on="1"/>
        <pt x="171" y="1135" on="1"/>
        <pt x="157" y="1156" on="0"/>
        <pt x="143" y="1253" on="0"/>
        <pt x="129" y="1275" on="1"/>
        <pt x="151" y="1322" on="1"/>
        <pt x="129" y="1367" on="1"/>
        <pt x="116" y="1367" on="1"/>
        <pt x="129" y="1390" on="1"/>
        <pt x="111" y="1390" on="1"/>
        <pt x="90" y="1414" on="1"/>
        <pt x="90" y="1460" on="1"/>
        <pt x="70" y="1438" on="1"/>
        <pt x="50" y="1438" on="1"/>
        <pt x="50" y="1460" on="1"/>
        <pt x="-3" y="1484" on="1"/>
        <pt x="13" y="1484" on="0"/>
        <pt x="73" y="1507" on="0"/>
        <pt x="90" y="1507" on="1"/>
        <pt x="431" y="1507" on="1"/>
        <pt x="451" y="1488" on="1"/>
        <pt x="458" y="1508" on="0"/>
        <pt x="490" y="1508" on="1"/>
        <pt x="512" y="1507" on="1"/>
        <pt x="530" y="1484" on="1"/>
        <pt x="570" y="1484" on="1"/>
        <pt x="570" y="1507" on="1"/>
        <pt x="739" y="1507" on="1"/>
        <pt x="735" y="1503" on="0"/>
        <pt x="711" y="1476" on="0"/>
        <pt x="703" y="1468" on="0"/>
        <pt x="682" y="1445" on="0"/>
        <pt x="671" y="1436" on="0"/>
        <pt x="651" y="1418" on="0"/>
        <pt x="644" y="1413" on="1"/>
        <pt x="618" y="1396" on="0"/>
        <pt x="606" y="1390" on="1"/>
        <pt x="606" y="1348" on="0"/>
        <pt x="581" y="1311" on="0"/>
        <pt x="568" y="1296" on="1"/>
        <pt x="551" y="1275" on="1"/>
        <pt x="551" y="1229" on="1"/>
        <pt x="530" y="1229" on="1"/>
        <pt x="530" y="1207" on="1"/>
        <pt x="551" y="1207" on="0"/>
        <pt x="572" y="1192" on="0"/>
        <pt x="572" y="1170" on="1"/>
        <pt x="570" y="1112" on="1"/>
        <pt x="549" y="1084" on="0"/>
        <pt x="549" y="1003" on="1"/>
        <pt x="551" y="928" on="1"/>
        <pt x="551" y="917" on="0"/>
        <pt x="530" y="858" on="1"/>
        <pt x="555" y="837" on="0"/>
        <pt x="555" y="635" on="1"/>
        <pt x="551" y="418" on="1"/>
        <pt x="537" y="418" on="1"/>
        <pt x="537" y="410" on="0"/>
        <pt x="572" y="332" on="0"/>
        <pt x="572" y="312" on="1"/>
        <pt x="571" y="301" on="1"/>
        <pt x="589" y="280" on="1"/>
        <pt x="650" y="282" on="1"/>
        <pt x="673" y="283" on="0"/>
        <pt x="767" y="254" on="0"/>
        <pt x="802" y="255" on="0"/>
        <pt x="838" y="280" on="0"/>
        <pt x="848" y="280" on="1"/>
        <pt x="879" y="280" on="1"/>
        <pt x="883" y="280" on="0"/>
        <pt x="919" y="300" on="0"/>
        <pt x="920" y="301" on="1"/>
        <pt x="920" y="255" on="1"/>
        <pt x="899" y="255" on="1"/>
        <pt x="899" y="185" on="1"/>
        <pt x="879" y="185" on="1"/>
        <pt x="899" y="164" on="1"/>
        <pt x="860" y="75" on="0"/>
        <pt x="860" y="-68" on="1"/>
        <pt x="839" y="-68" on="1"/>
        <pt x="800" y="-113" on="1"/>
        <pt x="804" y="-117" on="0"/>
        <pt x="804" y="-124" on="1"/>
        <pt x="804" y="-151" on="0"/>
        <pt x="759" y="-155" on="1"/>
        <pt x="726" y="-118" on="1"/>
        <pt x="737" y="-116" on="1"/>
        <pt x="744" y="-138" on="0"/>
        <pt x="759" y="-138" on="1"/>
        <pt x="759" y="-91" on="1"/>
        <pt x="739" y="-91" on="1"/>
        <pt x="759" y="-68" on="1"/>
        <pt x="719" y="-68" on="1"/>
        <pt x="678" y="-22" on="1"/>
        <pt x="662" y="-46" on="1"/>
        <pt x="662" y="-87" on="1"/>
        <pt x="656" y="-60" on="0"/>
        <pt x="644" y="-60" on="1"/>
        <pt x="623" y="-138" on="1"/>
        <pt x="623" y="-81" on="0"/>
        <pt x="589" y="44" on="0"/>
        <pt x="589" y="46" on="1"/>
        <pt x="547" y="43" on="0"/>
        <pt x="547" y="-87" on="1"/>
        <pt x="547" y="-86" on="0"/>
        <pt x="550" y="-85" on="0"/>
      </contour>
      <contour>
        <pt x="350" y="-138" on="1"/>
        <pt x="350" y="-87" on="0"/>
        <pt x="356" y="-68" on="1"/>
        <pt x="372" y="-97" on="1"/>
        <pt x="372" y="-134" on="0"/>
        <pt x="356" y="-137" on="1"/>
      </contour>
      <contour>
        <pt x="879" y="233" on="1"/>
        <pt x="879" y="209" on="1"/>
        <pt x="899" y="209" on="1"/>
      </contour>
      <contour>
        <pt x="726" y="-118" on="1"/>
        <pt x="719" y="-120" on="1"/>
        <pt x="719" y="-109" on="1"/>
      </contour>
    </TTGlyph>
    <TTGlyph name="Lacute" xMin="-3" yMin="-155" xMax="1119" yMax="2155">
      <component glyphName="acute" x="324" y="81" flags="0x1004"/>
      <component glyphName="L" x="0" y="0" flags="0x1204"/>
    </TTGlyph>
    <TTGlyph name="Lcaron" xMin="-2" yMin="-155" xMax="1390" yMax="1508">
      <component glyphName="comma" x="752" y="804" flags="0x1004"/>
      <component glyphName="L" x="1" y="0" flags="0x1004"/>
    </TTGlyph>
    <TTGlyph name="Lcommaaccent" xMin="-3" yMin="-1181" xMax="920" yMax="1508">
      <component glyphName="uni0326" x="100" y="-993" flags="0x1004"/>
      <component glyphName="L" x="0" y="0" flags="0x1204"/>
    </TTGlyph>
    <TTGlyph name="Ldotaccent" xMin="-3" yMin="-155" xMax="1263" yMax="1508">
      <contour>
        <pt x="551" y="-84" on="1"/>
        <pt x="539" y="-103" on="0"/>
        <pt x="530" y="-130" on="1"/>
        <pt x="512" y="-130" on="1"/>
        <pt x="490" y="-107" on="1"/>
        <pt x="490" y="-22" on="1"/>
        <pt x="472" y="-22" on="1"/>
        <pt x="451" y="-7" on="1"/>
        <pt x="431" y="-22" on="1"/>
        <pt x="367" y="-22" on="0"/>
        <pt x="356" y="-68" on="1"/>
        <pt x="283" y="0" on="0"/>
        <pt x="253" y="252" on="1"/>
        <pt x="240" y="361" on="0"/>
        <pt x="231" y="396" on="1"/>
        <pt x="250" y="418" on="1"/>
        <pt x="231" y="464" on="1"/>
        <pt x="250" y="487" on="1"/>
        <pt x="231" y="510" on="1"/>
        <pt x="231" y="534" on="1"/>
        <pt x="210" y="534" on="1"/>
        <pt x="210" y="789" on="1"/>
        <pt x="171" y="834" on="1"/>
        <pt x="190" y="880" on="1"/>
        <pt x="171" y="880" on="1"/>
        <pt x="171" y="1135" on="1"/>
        <pt x="157" y="1156" on="0"/>
        <pt x="143" y="1253" on="0"/>
        <pt x="129" y="1275" on="1"/>
        <pt x="151" y="1322" on="1"/>
        <pt x="129" y="1367" on="1"/>
        <pt x="116" y="1367" on="1"/>
        <pt x="129" y="1390" on="1"/>
        <pt x="111" y="1390" on="1"/>
        <pt x="90" y="1414" on="1"/>
        <pt x="90" y="1460" on="1"/>
        <pt x="70" y="1438" on="1"/>
        <pt x="50" y="1438" on="1"/>
        <pt x="50" y="1460" on="1"/>
        <pt x="-3" y="1484" on="1"/>
        <pt x="13" y="1484" on="0"/>
        <pt x="73" y="1507" on="0"/>
        <pt x="90" y="1507" on="1"/>
        <pt x="431" y="1507" on="1"/>
        <pt x="451" y="1488" on="1"/>
        <pt x="458" y="1508" on="0"/>
        <pt x="490" y="1508" on="1"/>
        <pt x="512" y="1507" on="1"/>
        <pt x="530" y="1484" on="1"/>
        <pt x="570" y="1484" on="1"/>
        <pt x="570" y="1507" on="1"/>
        <pt x="739" y="1507" on="1"/>
        <pt x="735" y="1503" on="0"/>
        <pt x="711" y="1476" on="0"/>
        <pt x="703" y="1468" on="0"/>
        <pt x="682" y="1445" on="0"/>
        <pt x="671" y="1436" on="0"/>
        <pt x="651" y="1418" on="0"/>
        <pt x="644" y="1413" on="1"/>
        <pt x="618" y="1396" on="0"/>
        <pt x="606" y="1390" on="1"/>
        <pt x="606" y="1348" on="0"/>
        <pt x="581" y="1311" on="0"/>
        <pt x="568" y="1296" on="1"/>
        <pt x="551" y="1275" on="1"/>
        <pt x="551" y="1229" on="1"/>
        <pt x="530" y="1229" on="1"/>
        <pt x="530" y="1207" on="1"/>
        <pt x="551" y="1207" on="0"/>
        <pt x="572" y="1192" on="0"/>
        <pt x="572" y="1170" on="1"/>
        <pt x="570" y="1112" on="1"/>
        <pt x="549" y="1084" on="0"/>
        <pt x="549" y="1003" on="1"/>
        <pt x="551" y="928" on="1"/>
        <pt x="551" y="917" on="0"/>
        <pt x="530" y="858" on="1"/>
        <pt x="555" y="837" on="0"/>
        <pt x="555" y="635" on="1"/>
        <pt x="551" y="418" on="1"/>
        <pt x="537" y="418" on="1"/>
        <pt x="537" y="410" on="0"/>
        <pt x="572" y="332" on="0"/>
        <pt x="572" y="312" on="1"/>
        <pt x="571" y="301" on="1"/>
        <pt x="589" y="280" on="1"/>
        <pt x="650" y="282" on="1"/>
        <pt x="673" y="283" on="0"/>
        <pt x="767" y="254" on="0"/>
        <pt x="802" y="255" on="0"/>
        <pt x="838" y="280" on="0"/>
        <pt x="848" y="280" on="1"/>
        <pt x="879" y="280" on="1"/>
        <pt x="883" y="280" on="0"/>
        <pt x="919" y="300" on="0"/>
        <pt x="920" y="301" on="1"/>
        <pt x="920" y="255" on="1"/>
        <pt x="899" y="255" on="1"/>
        <pt x="899" y="185" on="1"/>
        <pt x="879" y="185" on="1"/>
        <pt x="899" y="164" on="1"/>
        <pt x="860" y="75" on="0"/>
        <pt x="860" y="-68" on="1"/>
        <pt x="839" y="-68" on="1"/>
        <pt x="800" y="-113" on="1"/>
        <pt x="804" y="-117" on="0"/>
        <pt x="804" y="-124" on="1"/>
        <pt x="804" y="-151" on="0"/>
        <pt x="759" y="-155" on="1"/>
        <pt x="726" y="-118" on="1"/>
        <pt x="737" y="-116" on="1"/>
        <pt x="744" y="-138" on="0"/>
        <pt x="759" y="-138" on="1"/>
        <pt x="759" y="-91" on="1"/>
        <pt x="739" y="-91" on="1"/>
        <pt x="759" y="-68" on="1"/>
        <pt x="719" y="-68" on="1"/>
        <pt x="678" y="-22" on="1"/>
        <pt x="662" y="-46" on="1"/>
        <pt x="662" y="-87" on="1"/>
        <pt x="656" y="-60" on="0"/>
        <pt x="644" y="-60" on="1"/>
        <pt x="623" y="-138" on="1"/>
        <pt x="623" y="-81" on="0"/>
        <pt x="589" y="44" on="0"/>
        <pt x="589" y="46" on="1"/>
        <pt x="547" y="43" on="0"/>
        <pt x="547" y="-87" on="1"/>
        <pt x="547" y="-86" on="0"/>
        <pt x="550" y="-85" on="0"/>
      </contour>
      <contour>
        <pt x="350" y="-138" on="1"/>
        <pt x="350" y="-87" on="0"/>
        <pt x="356" y="-68" on="1"/>
        <pt x="372" y="-97" on="1"/>
        <pt x="372" y="-134" on="0"/>
        <pt x="356" y="-137" on="1"/>
      </contour>
      <contour>
        <pt x="879" y="233" on="1"/>
        <pt x="879" y="209" on="1"/>
        <pt x="899" y="209" on="1"/>
      </contour>
      <contour>
        <pt x="726" y="-118" on="1"/>
        <pt x="719" y="-120" on="1"/>
        <pt x="719" y="-109" on="1"/>
      </contour>
      <contour>
        <pt x="1099" y="621" on="1"/>
        <pt x="953" y="621" on="0"/>
        <pt x="928" y="594" on="1"/>
        <pt x="896" y="594" on="0"/>
        <pt x="828" y="594" on="0"/>
        <pt x="810" y="576" on="1"/>
        <pt x="810" y="594" on="0"/>
        <pt x="791" y="594" on="1"/>
        <pt x="788" y="592" on="0"/>
        <pt x="782" y="585" on="1"/>
        <pt x="769" y="572" on="0"/>
        <pt x="758" y="572" on="1"/>
        <pt x="758" y="796" on="0"/>
        <pt x="719" y="1108" on="1"/>
        <pt x="717" y="1110" on="0"/>
        <pt x="701" y="1129" on="0"/>
        <pt x="696" y="1134" on="1"/>
        <pt x="681" y="1149" on="0"/>
        <pt x="668" y="1149" on="1"/>
        <pt x="686" y="1166" on="1"/>
        <pt x="721" y="1162" on="1"/>
        <pt x="745" y="1162" on="0"/>
        <pt x="756" y="1185" on="1"/>
        <pt x="893" y="1185" on="1"/>
        <pt x="937" y="1213" on="0"/>
        <pt x="1095" y="1213" on="1"/>
        <pt x="1122" y="1213" on="0"/>
        <pt x="1229" y="1188" on="0"/>
        <pt x="1252" y="1188" on="1"/>
        <pt x="1252" y="955" on="0"/>
        <pt x="1229" y="955" on="1"/>
        <pt x="1248" y="938" on="0"/>
        <pt x="1263" y="938" on="1"/>
        <pt x="1243" y="597" on="1"/>
        <pt x="1227" y="616" on="1"/>
        <pt x="1208" y="616" on="1"/>
        <pt x="1160" y="601" on="1"/>
        <pt x="1145" y="601" on="0"/>
        <pt x="1125" y="621" on="0"/>
      </contour>
    </TTGlyph>
    <TTGlyph name="Lslash" xMin="14" yMin="-155" xMax="964" yMax="1508">
      <contour>
        <pt x="496" y="1508" on="1"/>
        <pt x="516" y="1507" on="1"/>
        <pt x="532" y="1484" on="1"/>
        <pt x="570" y="1484" on="1"/>
        <pt x="570" y="1507" on="1"/>
        <pt x="738" y="1507" on="1"/>
        <pt x="733" y="1502" on="0"/>
        <pt x="707" y="1473" on="0"/>
        <pt x="696" y="1462" on="0"/>
        <pt x="674" y="1438" on="0"/>
        <pt x="659" y="1426" on="0"/>
        <pt x="648" y="1418" on="1"/>
        <pt x="632" y="1404" on="0"/>
        <pt x="606" y="1390" on="1"/>
        <pt x="606" y="1348" on="0"/>
        <pt x="581" y="1311" on="0"/>
        <pt x="568" y="1296" on="1"/>
        <pt x="551" y="1275" on="1"/>
        <pt x="551" y="1229" on="1"/>
        <pt x="532" y="1229" on="1"/>
        <pt x="532" y="1207" on="1"/>
        <pt x="572" y="1207" on="0"/>
        <pt x="572" y="1170" on="1"/>
        <pt x="570" y="1112" on="1"/>
        <pt x="549" y="1084" on="0"/>
        <pt x="549" y="1003" on="1"/>
        <pt x="549" y="998" on="0"/>
        <pt x="549" y="993" on="1"/>
        <pt x="685" y="1043" on="0"/>
        <pt x="711" y="1044" on="1"/>
        <pt x="708" y="1059" on="1"/>
        <pt x="881" y="1130" on="1"/>
        <pt x="885" y="985" on="1"/>
        <pt x="878" y="986" on="1"/>
        <pt x="898" y="962" on="1"/>
        <pt x="889" y="961" on="1"/>
        <pt x="898" y="915" on="0"/>
        <pt x="918" y="871" on="1"/>
        <pt x="956" y="787" on="0"/>
        <pt x="963" y="747" on="1"/>
        <pt x="871" y="705" on="1"/>
        <pt x="855" y="753" on="0"/>
        <pt x="835" y="744" on="1"/>
        <pt x="829" y="740" on="1"/>
        <pt x="860" y="728" on="1"/>
        <pt x="825" y="705" on="0"/>
        <pt x="593" y="610" on="0"/>
        <pt x="583" y="606" on="1"/>
        <pt x="564" y="600" on="0"/>
        <pt x="555" y="595" on="1"/>
        <pt x="554" y="551" on="0"/>
        <pt x="551" y="429" on="0"/>
        <pt x="551" y="418" on="1"/>
        <pt x="538" y="418" on="1"/>
        <pt x="538" y="410" on="0"/>
        <pt x="546" y="391" on="1"/>
        <pt x="572" y="334" on="0"/>
        <pt x="572" y="312" on="1"/>
        <pt x="570" y="301" on="1"/>
        <pt x="588" y="280" on="1"/>
        <pt x="649" y="282" on="1"/>
        <pt x="672" y="283" on="0"/>
        <pt x="766" y="254" on="0"/>
        <pt x="801" y="255" on="0"/>
        <pt x="837" y="280" on="0"/>
        <pt x="847" y="280" on="1"/>
        <pt x="878" y="280" on="1"/>
        <pt x="882" y="280" on="0"/>
        <pt x="918" y="300" on="0"/>
        <pt x="919" y="301" on="1"/>
        <pt x="919" y="255" on="1"/>
        <pt x="898" y="255" on="1"/>
        <pt x="898" y="185" on="1"/>
        <pt x="878" y="185" on="1"/>
        <pt x="898" y="164" on="1"/>
        <pt x="859" y="75" on="0"/>
        <pt x="859" y="-68" on="1"/>
        <pt x="838" y="-68" on="1"/>
        <pt x="799" y="-113" on="1"/>
        <pt x="803" y="-117" on="0"/>
        <pt x="803" y="-124" on="1"/>
        <pt x="803" y="-151" on="0"/>
        <pt x="758" y="-155" on="1"/>
        <pt x="725" y="-118" on="1"/>
        <pt x="736" y="-116" on="1"/>
        <pt x="743" y="-138" on="0"/>
        <pt x="758" y="-138" on="1"/>
        <pt x="758" y="-91" on="1"/>
        <pt x="738" y="-91" on="1"/>
        <pt x="758" y="-68" on="1"/>
        <pt x="718" y="-68" on="1"/>
        <pt x="677" y="-22" on="1"/>
        <pt x="661" y="-46" on="1"/>
        <pt x="662" y="-87" on="1"/>
        <pt x="656" y="-60" on="0"/>
        <pt x="643" y="-60" on="1"/>
        <pt x="622" y="-138" on="1"/>
        <pt x="622" y="-81" on="0"/>
        <pt x="588" y="44" on="0"/>
        <pt x="588" y="46" on="1"/>
        <pt x="547" y="44" on="0"/>
        <pt x="547" y="-87" on="1"/>
        <pt x="547" y="-86" on="0"/>
        <pt x="550" y="-85" on="0"/>
        <pt x="551" y="-84" on="1"/>
        <pt x="547" y="-91" on="1"/>
        <pt x="532" y="-130" on="1"/>
        <pt x="516" y="-130" on="1"/>
        <pt x="496" y="-107" on="1"/>
        <pt x="496" y="-22" on="1"/>
        <pt x="480" y="-22" on="1"/>
        <pt x="461" y="-7" on="1"/>
        <pt x="443" y="-22" on="1"/>
        <pt x="385" y="-22" on="0"/>
        <pt x="376" y="-68" on="1"/>
        <pt x="309" y="-1" on="0"/>
        <pt x="282" y="252" on="1"/>
        <pt x="271" y="360" on="0"/>
        <pt x="262" y="396" on="1"/>
        <pt x="280" y="418" on="1"/>
        <pt x="262" y="464" on="1"/>
        <pt x="274" y="479" on="1"/>
        <pt x="213" y="493" on="1"/>
        <pt x="224" y="466" on="0"/>
        <pt x="178" y="447" on="0"/>
        <pt x="133" y="460" on="1"/>
        <pt x="15" y="783" on="1"/>
        <pt x="215" y="865" on="1"/>
        <pt x="221" y="880" on="1"/>
        <pt x="202" y="880" on="1"/>
        <pt x="202" y="1135" on="1"/>
        <pt x="188" y="1156" on="0"/>
        <pt x="174" y="1253" on="0"/>
        <pt x="160" y="1275" on="1"/>
        <pt x="182" y="1322" on="1"/>
        <pt x="160" y="1367" on="1"/>
        <pt x="147" y="1367" on="1"/>
        <pt x="160" y="1390" on="1"/>
        <pt x="142" y="1390" on="1"/>
        <pt x="121" y="1414" on="1"/>
        <pt x="121" y="1460" on="1"/>
        <pt x="101" y="1438" on="1"/>
        <pt x="81" y="1438" on="1"/>
        <pt x="81" y="1460" on="1"/>
        <pt x="28" y="1484" on="1"/>
        <pt x="44" y="1484" on="0"/>
        <pt x="104" y="1507" on="0"/>
        <pt x="121" y="1507" on="1"/>
        <pt x="443" y="1507" on="1"/>
        <pt x="461" y="1488" on="1"/>
        <pt x="467" y="1508" on="0"/>
      </contour>
      <contour>
        <pt x="376" y="-68" on="1"/>
        <pt x="390" y="-97" on="1"/>
        <pt x="390" y="-134" on="0"/>
        <pt x="375" y="-137" on="1"/>
        <pt x="370" y="-138" on="1"/>
        <pt x="370" y="-91" on="0"/>
      </contour>
      <contour>
        <pt x="725" y="-118" on="1"/>
        <pt x="718" y="-120" on="1"/>
        <pt x="718" y="-109" on="1"/>
      </contour>
    </TTGlyph>
    <TTGlyph name="M" xMin="44" yMin="-86" xMax="1469" yMax="1555">
      <contour>
        <pt x="896" y="21" on="1"/>
        <pt x="885" y="21" on="0"/>
        <pt x="885" y="46" on="0"/>
        <pt x="887" y="48" on="1"/>
        <pt x="949" y="60" on="0"/>
        <pt x="949" y="365" on="1"/>
        <pt x="949" y="421" on="0"/>
        <pt x="925" y="599" on="0"/>
        <pt x="925" y="645" on="1"/>
        <pt x="947" y="651" on="1"/>
        <pt x="947" y="696" on="1"/>
        <pt x="911" y="654" on="0"/>
        <pt x="866" y="352" on="0"/>
        <pt x="866" y="257" on="1"/>
        <pt x="857" y="260" on="1"/>
        <pt x="852" y="260" on="0"/>
        <pt x="846" y="248" on="1"/>
        <pt x="846" y="250" on="1"/>
        <pt x="835" y="219" on="0"/>
        <pt x="825" y="142" on="1"/>
        <pt x="844" y="118" on="1"/>
        <pt x="824" y="115" on="0"/>
        <pt x="814" y="76" on="1"/>
        <pt x="795" y="4" on="0"/>
        <pt x="726" y="2" on="1"/>
        <pt x="730" y="29" on="1"/>
        <pt x="730" y="44" on="0"/>
        <pt x="650" y="321" on="0"/>
        <pt x="645" y="327" on="1"/>
        <pt x="656" y="360" on="0"/>
        <pt x="656" y="367" on="1"/>
        <pt x="656" y="437" on="0"/>
        <pt x="568" y="645" on="0"/>
        <pt x="565" y="694" on="1"/>
        <pt x="565" y="602" on="1"/>
        <pt x="565" y="541" on="0"/>
        <pt x="607" y="304" on="0"/>
        <pt x="607" y="257" on="1"/>
        <pt x="602" y="257" on="1"/>
        <pt x="607" y="24" on="1"/>
        <pt x="560" y="24" on="0"/>
        <pt x="525" y="72" on="1"/>
        <pt x="501" y="29" on="1"/>
        <pt x="505" y="24" on="1"/>
        <pt x="504" y="20" on="0"/>
        <pt x="527" y="4" on="0"/>
        <pt x="527" y="0" on="1"/>
        <pt x="525" y="-38" on="1"/>
        <pt x="498" y="-33" on="1"/>
        <pt x="466" y="72" on="1"/>
        <pt x="424" y="72" on="1"/>
        <pt x="400" y="46" on="1"/>
        <pt x="400" y="32" on="0"/>
        <pt x="446" y="13" on="1"/>
        <pt x="446" y="2" on="1"/>
        <pt x="446" y="-24" on="0"/>
        <pt x="424" y="-84" on="1"/>
        <pt x="379" y="-84" on="0"/>
        <pt x="361" y="-36" on="1"/>
        <pt x="347" y="2" on="0"/>
        <pt x="345" y="24" on="1"/>
        <pt x="342" y="162" on="0"/>
        <pt x="292" y="510" on="0"/>
        <pt x="256" y="638" on="1"/>
        <pt x="266" y="651" on="1"/>
        <pt x="245" y="675" on="1"/>
        <pt x="266" y="696" on="1"/>
        <pt x="229" y="745" on="1"/>
        <pt x="240" y="813" on="1"/>
        <pt x="245" y="813" on="1"/>
        <pt x="243" y="822" on="0"/>
        <pt x="224" y="1011" on="0"/>
        <pt x="204" y="1044" on="1"/>
        <pt x="204" y="1031" on="1"/>
        <pt x="199" y="1031" on="0"/>
        <pt x="197" y="1044" on="1"/>
        <pt x="185" y="1160" on="1"/>
        <pt x="204" y="1207" on="1"/>
        <pt x="180" y="1207" on="1"/>
        <pt x="178" y="1209" on="0"/>
        <pt x="178" y="1219" on="0"/>
        <pt x="190" y="1231" on="0"/>
        <pt x="201" y="1231" on="0"/>
        <pt x="203" y="1229" on="1"/>
        <pt x="44" y="1462" on="1"/>
        <pt x="78" y="1470" on="0"/>
        <pt x="226" y="1489" on="1"/>
        <pt x="628" y="1541" on="0"/>
        <pt x="645" y="1555" on="1"/>
        <pt x="645" y="1528" on="0"/>
        <pt x="669" y="1528" on="1"/>
        <pt x="676" y="1528" on="0"/>
        <pt x="680" y="1530" on="1"/>
        <pt x="645" y="1484" on="1"/>
        <pt x="649" y="1429" on="0"/>
        <pt x="746" y="1150" on="0"/>
        <pt x="746" y="1087" on="1"/>
        <pt x="746" y="1069" on="1"/>
        <pt x="749" y="1082" on="0"/>
        <pt x="782" y="1203" on="0"/>
        <pt x="794" y="1251" on="1"/>
        <pt x="829" y="1383" on="0"/>
        <pt x="829" y="1439" on="1"/>
        <pt x="806" y="1543" on="1"/>
        <pt x="806" y="1551" on="0"/>
        <pt x="807" y="1555" on="1"/>
        <pt x="825" y="1555" on="1"/>
        <pt x="846" y="1530" on="1"/>
        <pt x="846" y="1555" on="1"/>
        <pt x="900" y="1555" on="0"/>
        <pt x="906" y="1507" on="0"/>
        <pt x="947" y="1507" on="1"/>
        <pt x="967" y="1527" on="0"/>
        <pt x="1001" y="1527" on="1"/>
        <pt x="1008" y="1527" on="1"/>
        <pt x="1026" y="1555" on="1"/>
        <pt x="1047" y="1555" on="1"/>
        <pt x="1049" y="1520" on="0"/>
        <pt x="1338" y="1467" on="1"/>
        <pt x="1448" y="1447" on="0"/>
        <pt x="1469" y="1439" on="1"/>
        <pt x="1367" y="1370" on="1"/>
        <pt x="1327" y="1370" on="0"/>
        <pt x="1317" y="1328" on="1"/>
        <pt x="1309" y="1296" on="0"/>
        <pt x="1309" y="1253" on="1"/>
        <pt x="1327" y="1229" on="1"/>
        <pt x="1292" y="1184" on="1"/>
        <pt x="1309" y="1160" on="1"/>
        <pt x="1286" y="1113" on="1"/>
        <pt x="1272" y="1125" on="1"/>
        <pt x="1268" y="1113" on="1"/>
        <pt x="1293" y="1082" on="1"/>
        <pt x="1265" y="1045" on="0"/>
        <pt x="1265" y="842" on="1"/>
        <pt x="1268" y="651" on="1"/>
        <pt x="1268" y="549" on="0"/>
        <pt x="1240" y="294" on="0"/>
        <pt x="1207" y="257" on="1"/>
        <pt x="1222" y="233" on="1"/>
        <pt x="1213" y="168" on="1"/>
        <pt x="1187" y="-18" on="0"/>
        <pt x="1187" y="-45" on="1"/>
        <pt x="1168" y="-20" on="1"/>
        <pt x="1163" y="-27" on="0"/>
        <pt x="1151" y="-41" on="1"/>
        <pt x="1126" y="-70" on="0"/>
        <pt x="1126" y="-86" on="1"/>
        <pt x="1102" y="-38" on="1"/>
        <pt x="1115" y="-35" on="0"/>
        <pt x="1126" y="-20" on="1"/>
        <pt x="1108" y="2" on="1"/>
        <pt x="1108" y="44" on="0"/>
        <pt x="1069" y="73" on="0"/>
        <pt x="1028" y="73" on="1"/>
        <pt x="1006" y="72" on="1"/>
        <pt x="980" y="67" on="0"/>
        <pt x="958" y="18" on="0"/>
        <pt x="947" y="13" on="1"/>
        <pt x="922" y="13" on="0"/>
        <pt x="924" y="21" on="0"/>
        <pt x="924" y="22" on="1"/>
        <pt x="924" y="24" on="1"/>
        <pt x="947" y="24" on="1"/>
        <pt x="925" y="48" on="1"/>
        <pt x="901" y="23" on="1"/>
        <pt x="899" y="21" on="0"/>
      </contour>
      <contour>
        <pt x="1309" y="1091" on="1"/>
        <pt x="1293" y="1082" on="1"/>
        <pt x="1296" y="1091" on="0"/>
      </contour>
      <contour>
        <pt x="816" y="1530" on="1"/>
        <pt x="816" y="1527" on="0"/>
        <pt x="822" y="1527" on="0"/>
        <pt x="822" y="1536" on="0"/>
        <pt x="820" y="1536" on="1"/>
      </contour>
      <contour>
        <pt x="846" y="233" on="1"/>
        <pt x="844" y="238" on="1"/>
        <pt x="844" y="243" on="1"/>
        <pt x="844" y="244" on="0"/>
        <pt x="846" y="247" on="0"/>
        <pt x="846" y="248" on="1"/>
      </contour>
      <contour>
        <pt x="595" y="257" on="1"/>
        <pt x="586" y="257" on="1"/>
        <pt x="586" y="255" on="0"/>
        <pt x="593" y="255" on="0"/>
      </contour>
      <contour>
        <pt x="1222" y="191" on="1"/>
        <pt x="1228" y="187" on="1"/>
        <pt x="1224" y="189" on="0"/>
        <pt x="1218" y="189" on="1"/>
        <pt x="1220" y="191" on="0"/>
      </contour>
      <contour>
        <pt x="1209" y="185" on="1"/>
        <pt x="1211" y="185" on="1"/>
        <pt x="1214" y="189" on="1"/>
      </contour>
    </TTGlyph>
    <TTGlyph name="N" xMin="45" yMin="-337" xMax="1211" yMax="1515">
      <contour>
        <pt x="624" y="195" on="1"/>
        <pt x="607" y="334" on="1"/>
        <pt x="571" y="381" on="1"/>
        <pt x="571" y="450" on="1"/>
        <pt x="543" y="491" on="0"/>
        <pt x="529" y="531" on="1"/>
        <pt x="536" y="456" on="0"/>
        <pt x="536" y="364" on="0"/>
        <pt x="534" y="297" on="0"/>
        <pt x="534" y="288" on="1"/>
        <pt x="528" y="294" on="0"/>
        <pt x="516" y="294" on="0"/>
        <pt x="516" y="266" on="1"/>
        <pt x="534" y="266" on="1"/>
        <pt x="553" y="-118" on="1"/>
        <pt x="553" y="-173" on="0"/>
        <pt x="534" y="-198" on="1"/>
        <pt x="555" y="-230" on="0"/>
        <pt x="555" y="-306" on="0"/>
        <pt x="553" y="-314" on="1"/>
        <pt x="534" y="-337" on="1"/>
        <pt x="516" y="-314" on="1"/>
        <pt x="526" y="-293" on="1"/>
        <pt x="515" y="-265" on="0"/>
        <pt x="515" y="-122" on="0"/>
        <pt x="516" y="-106" on="1"/>
        <pt x="482" y="-60" on="1"/>
        <pt x="443" y="-81" on="1"/>
        <pt x="443" y="-106" on="1"/>
        <pt x="426" y="-124" on="1"/>
        <pt x="409" y="-106" on="1"/>
        <pt x="409" y="-81" on="1"/>
        <pt x="372" y="-106" on="1"/>
        <pt x="372" y="-245" on="1"/>
        <pt x="385" y="-267" on="1"/>
        <pt x="372" y="-293" on="1"/>
        <pt x="376" y="-295" on="0"/>
        <pt x="376" y="-306" on="0"/>
        <pt x="365" y="-318" on="0"/>
        <pt x="357" y="-318" on="0"/>
        <pt x="353" y="-314" on="1"/>
        <pt x="337" y="-293" on="1"/>
        <pt x="281" y="472" on="1"/>
        <pt x="261" y="472" on="1"/>
        <pt x="261" y="543" on="1"/>
        <pt x="242" y="566" on="0"/>
        <pt x="181" y="1122" on="0"/>
        <pt x="181" y="1282" on="0"/>
        <pt x="160" y="1308" on="1"/>
        <pt x="180" y="1330" on="1"/>
        <pt x="108" y="1330" on="0"/>
        <pt x="86" y="1355" on="0"/>
        <pt x="84" y="1364" on="1"/>
        <pt x="77" y="1387" on="0"/>
        <pt x="45" y="1399" on="1"/>
        <pt x="81" y="1423" on="1"/>
        <pt x="100" y="1423" on="1"/>
        <pt x="102" y="1425" on="0"/>
        <pt x="102" y="1436" on="0"/>
        <pt x="94" y="1449" on="0"/>
        <pt x="89" y="1449" on="0"/>
        <pt x="86" y="1445" on="1"/>
        <pt x="100" y="1470" on="1"/>
        <pt x="174" y="1470" on="0"/>
        <pt x="450" y="1493" on="0"/>
        <pt x="516" y="1493" on="1"/>
        <pt x="516" y="1515" on="1"/>
        <pt x="553" y="1515" on="1"/>
        <pt x="574" y="1515" on="0"/>
        <pt x="574" y="1452" on="1"/>
        <pt x="571" y="1399" on="1"/>
        <pt x="582" y="1385" on="0"/>
        <pt x="589" y="1326" on="0"/>
        <pt x="595" y="1284" on="0"/>
        <pt x="607" y="1284" on="1"/>
        <pt x="624" y="1260" on="1"/>
        <pt x="624" y="1240" on="1"/>
        <pt x="642" y="1214" on="1"/>
        <pt x="624" y="1214" on="1"/>
        <pt x="662" y="1168" on="1"/>
        <pt x="662" y="1141" on="0"/>
        <pt x="716" y="978" on="0"/>
        <pt x="734" y="936" on="1"/>
        <pt x="742" y="1221" on="1"/>
        <pt x="742" y="1390" on="0"/>
        <pt x="678" y="1515" on="1"/>
        <pt x="697" y="1515" on="1"/>
        <pt x="742" y="1515" on="0"/>
        <pt x="947" y="1472" on="0"/>
        <pt x="1069" y="1472" on="0"/>
        <pt x="1093" y="1445" on="1"/>
        <pt x="1149" y="1449" on="1"/>
        <pt x="1156" y="1449" on="0"/>
        <pt x="1208" y="1424" on="0"/>
        <pt x="1211" y="1423" on="1"/>
        <pt x="1170" y="1421" on="0"/>
        <pt x="1092" y="1313" on="1"/>
        <pt x="1058" y="1266" on="0"/>
        <pt x="1053" y="1260" on="1"/>
        <pt x="1053" y="1120" on="0"/>
        <pt x="978" y="620" on="0"/>
        <pt x="971" y="543" on="1"/>
        <pt x="952" y="151" on="1"/>
        <pt x="929" y="122" on="0"/>
        <pt x="929" y="75" on="1"/>
        <pt x="934" y="-7" on="1"/>
        <pt x="934" y="-50" on="0"/>
        <pt x="913" y="-81" on="1"/>
        <pt x="913" y="-118" on="0"/>
        <pt x="885" y="-154" on="0"/>
        <pt x="878" y="-168" on="1"/>
        <pt x="860" y="-152" on="1"/>
        <pt x="864" y="-66" on="1"/>
        <pt x="864" y="-60" on="0"/>
        <pt x="841" y="-14" on="1"/>
        <pt x="823" y="-50" on="0"/>
        <pt x="823" y="-92" on="0"/>
        <pt x="841" y="-130" on="1"/>
        <pt x="818" y="-148" on="0"/>
        <pt x="805" y="-198" on="1"/>
        <pt x="807" y="-180" on="1"/>
        <pt x="807" y="-142" on="0"/>
        <pt x="789" y="-106" on="1"/>
        <pt x="768" y="-176" on="1"/>
        <pt x="734" y="-130" on="1"/>
        <pt x="734" y="-168" on="1"/>
        <pt x="715" y="-152" on="1"/>
        <pt x="715" y="-106" on="1"/>
        <pt x="704" y="-92" on="0"/>
        <pt x="698" y="-32" on="0"/>
        <pt x="691" y="10" on="0"/>
        <pt x="678" y="10" on="1"/>
        <pt x="680" y="55" on="1"/>
        <pt x="680" y="75" on="0"/>
        <pt x="662" y="102" on="1"/>
        <pt x="678" y="102" on="1"/>
        <pt x="655" y="134" on="0"/>
        <pt x="642" y="174" on="0"/>
        <pt x="642" y="217" on="1"/>
      </contour>
      <contour>
        <pt x="752" y="-245" on="1"/>
        <pt x="752" y="-268" on="0"/>
        <pt x="734" y="-293" on="1"/>
        <pt x="734" y="-314" on="1"/>
        <pt x="727" y="-314" on="0"/>
        <pt x="715" y="-301" on="0"/>
        <pt x="715" y="-293" on="1"/>
        <pt x="715" y="-211" on="1"/>
        <pt x="715" y="-176" on="0"/>
        <pt x="734" y="-176" on="1"/>
        <pt x="734" y="-198" on="1"/>
        <pt x="734" y="-245" on="0"/>
      </contour>
    </TTGlyph>
    <TTGlyph name="Nacute" xMin="45" yMin="-337" xMax="1338" yMax="2162">
      <component glyphName="acute" x="543" y="88" flags="0x1004"/>
      <component glyphName="N" x="0" y="0" flags="0x1204"/>
    </TTGlyph>
    <TTGlyph name="Ncaron" xMin="45" yMin="-337" xMax="1211" yMax="2385">
      <component glyphName="caron" x="150" y="204" flags="0x1004"/>
      <component glyphName="N" x="0" y="0" flags="0x1204"/>
    </TTGlyph>
    <TTGlyph name="Ncommaaccent" xMin="45" yMin="-1363" xMax="1211" yMax="1515">
      <component glyphName="uni0326" x="335" y="-1175" flags="0x1004"/>
      <component glyphName="N" x="0" y="0" flags="0x1204"/>
    </TTGlyph>
    <TTGlyph name="Ntilde" xMin="45" yMin="-337" xMax="1211" yMax="2111">
      <component glyphName="tilde" x="49" y="1810" flags="0x1004"/>
      <component glyphName="N" x="0" y="0" flags="0x1204"/>
    </TTGlyph>
    <TTGlyph name="O" xMin="53" yMin="-175" xMax="999" yMax="1507">
      <contour>
        <pt x="576" y="-175" on="1"/>
        <pt x="578" y="-138" on="1"/>
        <pt x="578" y="2" on="0"/>
        <pt x="528" y="2" on="1"/>
        <pt x="502" y="2" on="0"/>
        <pt x="482" y="-15" on="0"/>
        <pt x="470" y="-27" on="0"/>
        <pt x="462" y="-50" on="0"/>
        <pt x="456" y="-66" on="0"/>
        <pt x="451" y="-96" on="0"/>
        <pt x="449" y="-111" on="0"/>
        <pt x="445" y="-146" on="0"/>
        <pt x="444" y="-152" on="1"/>
        <pt x="396" y="-152" on="0"/>
        <pt x="396" y="-91" on="1"/>
        <pt x="396" y="-45" on="0"/>
        <pt x="304" y="10" on="1"/>
        <pt x="265" y="34" on="0"/>
        <pt x="253" y="46" on="1"/>
        <pt x="253" y="24" on="1"/>
        <pt x="235" y="24" on="1"/>
        <pt x="253" y="46" on="1"/>
        <pt x="249" y="51" on="0"/>
        <pt x="210" y="99" on="0"/>
        <pt x="202" y="112" on="1"/>
        <pt x="174" y="152" on="0"/>
        <pt x="174" y="187" on="1"/>
        <pt x="195" y="187" on="1"/>
        <pt x="195" y="242" on="0"/>
        <pt x="134" y="448" on="0"/>
        <pt x="134" y="598" on="0"/>
        <pt x="75" y="901" on="0"/>
        <pt x="75" y="974" on="1"/>
        <pt x="53" y="998" on="1"/>
        <pt x="75" y="979" on="1"/>
        <pt x="69" y="1046" on="1"/>
        <pt x="62" y="1041" on="1"/>
        <pt x="53" y="1044" on="1"/>
        <pt x="75" y="1069" on="1"/>
        <pt x="53" y="1089" on="1"/>
        <pt x="53" y="1197" on="0"/>
        <pt x="194" y="1395" on="0"/>
        <pt x="395" y="1507" on="0"/>
        <pt x="487" y="1507" on="1"/>
        <pt x="505" y="1484" on="1"/>
        <pt x="524" y="1507" on="1"/>
        <pt x="539" y="1507" on="0"/>
        <pt x="597" y="1484" on="0"/>
        <pt x="613" y="1484" on="1"/>
        <pt x="632" y="1507" on="1"/>
        <pt x="677" y="1451" on="0"/>
        <pt x="798" y="1438" on="1"/>
        <pt x="838" y="1390" on="1"/>
        <pt x="838" y="1416" on="1"/>
        <pt x="859" y="1416" on="1"/>
        <pt x="857" y="1390" on="1"/>
        <pt x="877" y="1367" on="1"/>
        <pt x="859" y="1344" on="1"/>
        <pt x="882" y="1344" on="0"/>
        <pt x="942" y="1329" on="0"/>
        <pt x="942" y="1310" on="1"/>
        <pt x="942" y="1306" on="0"/>
        <pt x="938" y="1300" on="1"/>
        <pt x="979" y="1251" on="1"/>
        <pt x="959" y="1251" on="1"/>
        <pt x="959" y="1128" on="0"/>
        <pt x="984" y="1061" on="0"/>
        <pt x="999" y="1044" on="1"/>
        <pt x="959" y="1044" on="0"/>
        <pt x="959" y="962" on="0"/>
        <pt x="973" y="942" on="1"/>
        <pt x="957" y="912" on="0"/>
        <pt x="957" y="885" on="0"/>
        <pt x="959" y="882" on="1"/>
        <pt x="979" y="882" on="1"/>
        <pt x="979" y="868" on="1"/>
        <pt x="979" y="464" on="0"/>
        <pt x="918" y="464" on="1"/>
        <pt x="899" y="324" on="1"/>
        <pt x="918" y="324" on="1"/>
        <pt x="870" y="250" on="1"/>
        <pt x="877" y="233" on="1"/>
        <pt x="869" y="143" on="0"/>
        <pt x="798" y="46" on="1"/>
        <pt x="798" y="-2" on="0"/>
        <pt x="763" y="-115" on="0"/>
        <pt x="759" y="-130" on="1"/>
        <pt x="740" y="-130" on="0"/>
        <pt x="738" y="-140" on="1"/>
        <pt x="741" y="-60" on="1"/>
        <pt x="741" y="-49" on="0"/>
        <pt x="726" y="-20" on="0"/>
        <pt x="716" y="-20" on="1"/>
        <pt x="705" y="-22" on="1"/>
        <pt x="671" y="-63" on="0"/>
        <pt x="649" y="-108" on="0"/>
        <pt x="648" y="-135" on="1"/>
        <pt x="649" y="-130" on="1"/>
        <pt x="649" y="-134" on="0"/>
        <pt x="648" y="-135" on="1"/>
        <pt x="648" y="-140" on="1"/>
        <pt x="643" y="-154" on="0"/>
        <pt x="622" y="-175" on="0"/>
        <pt x="613" y="-175" on="1"/>
      </contour>
      <contour>
        <pt x="560" y="835" on="1"/>
        <pt x="560" y="858" on="0"/>
        <pt x="536" y="858" on="1"/>
        <pt x="524" y="858" on="1"/>
        <pt x="524" y="882" on="1"/>
        <pt x="505" y="882" on="1"/>
        <pt x="505" y="858" on="0"/>
        <pt x="487" y="858" on="1"/>
        <pt x="487" y="835" on="1"/>
        <pt x="469" y="835" on="1"/>
        <pt x="434" y="766" on="1"/>
        <pt x="434" y="739" on="0"/>
        <pt x="414" y="646" on="0"/>
        <pt x="414" y="535" on="0"/>
        <pt x="434" y="510" on="1"/>
        <pt x="414" y="510" on="1"/>
        <pt x="414" y="496" on="0"/>
        <pt x="422" y="488" on="0"/>
        <pt x="434" y="488" on="1"/>
        <pt x="434" y="373" on="1"/>
        <pt x="443" y="362" on="0"/>
        <pt x="463" y="257" on="0"/>
        <pt x="469" y="257" on="1"/>
        <pt x="473" y="250" on="0"/>
        <pt x="482" y="229" on="1"/>
        <pt x="499" y="187" on="0"/>
        <pt x="524" y="187" on="1"/>
        <pt x="557" y="187" on="0"/>
        <pt x="595" y="301" on="0"/>
        <pt x="595" y="349" on="1"/>
        <pt x="578" y="349" on="1"/>
        <pt x="578" y="373" on="1"/>
        <pt x="595" y="373" on="1"/>
        <pt x="613" y="396" on="1"/>
        <pt x="613" y="580" on="1"/>
        <pt x="613" y="611" on="0"/>
        <pt x="595" y="701" on="0"/>
        <pt x="595" y="746" on="1"/>
        <pt x="595" y="766" on="1"/>
      </contour>
      <contour>
        <pt x="449" y="-135" on="1"/>
        <pt x="449" y="-136" on="0"/>
        <pt x="448" y="-140" on="0"/>
        <pt x="448" y="-142" on="1"/>
        <pt x="448" y="-138" on="1"/>
        <pt x="448" y="-137" on="0"/>
      </contour>
    </TTGlyph>
    <TTGlyph name="OE" xMin="52" yMin="-316" xMax="1557" yMax="1507">
      <contour>
        <pt x="448" y="-161" on="1"/>
        <pt x="450" y="-239" on="1"/>
        <pt x="444" y="-254" on="1"/>
        <pt x="395" y="-254" on="0"/>
        <pt x="395" y="-91" on="1"/>
        <pt x="395" y="-44" on="0"/>
        <pt x="304" y="10" on="1"/>
        <pt x="264" y="34" on="0"/>
        <pt x="252" y="46" on="1"/>
        <pt x="255" y="44" on="0"/>
        <pt x="255" y="32" on="0"/>
        <pt x="245" y="21" on="0"/>
        <pt x="240" y="21" on="1"/>
        <pt x="234" y="24" on="1"/>
        <pt x="252" y="46" on="1"/>
        <pt x="247" y="53" on="0"/>
        <pt x="211" y="98" on="0"/>
        <pt x="202" y="112" on="1"/>
        <pt x="173" y="152" on="0"/>
        <pt x="173" y="187" on="1"/>
        <pt x="194" y="187" on="1"/>
        <pt x="194" y="237" on="0"/>
        <pt x="133" y="422" on="0"/>
        <pt x="133" y="571" on="0"/>
        <pt x="74" y="897" on="0"/>
        <pt x="74" y="974" on="1"/>
        <pt x="52" y="998" on="1"/>
        <pt x="74" y="979" on="1"/>
        <pt x="74" y="992" on="1"/>
        <pt x="74" y="1016" on="0"/>
        <pt x="69" y="1046" on="1"/>
        <pt x="61" y="1041" on="1"/>
        <pt x="52" y="1044" on="1"/>
        <pt x="74" y="1069" on="1"/>
        <pt x="52" y="1089" on="1"/>
        <pt x="52" y="1197" on="0"/>
        <pt x="193" y="1395" on="0"/>
        <pt x="394" y="1507" on="0"/>
        <pt x="486" y="1507" on="1"/>
        <pt x="504" y="1484" on="1"/>
        <pt x="523" y="1507" on="1"/>
        <pt x="539" y="1507" on="0"/>
        <pt x="597" y="1484" on="0"/>
        <pt x="612" y="1484" on="1"/>
        <pt x="631" y="1507" on="1"/>
        <pt x="654" y="1484" on="1"/>
        <pt x="802" y="1507" on="0"/>
        <pt x="1232" y="1507" on="0"/>
        <pt x="1557" y="1443" on="1"/>
        <pt x="1519" y="1407" on="0"/>
        <pt x="1388" y="1073" on="0"/>
        <pt x="1375" y="1000" on="1"/>
        <pt x="1376" y="1002" on="1"/>
        <pt x="1357" y="795" on="1"/>
        <pt x="1298" y="795" on="0"/>
        <pt x="1050" y="866" on="0"/>
        <pt x="990" y="866" on="1"/>
        <pt x="990" y="679" on="1"/>
        <pt x="974" y="656" on="1"/>
        <pt x="1009" y="679" on="1"/>
        <pt x="1172" y="679" on="1"/>
        <pt x="1185" y="679" on="0"/>
        <pt x="1234" y="653" on="0"/>
        <pt x="1254" y="653" on="0"/>
        <pt x="1261" y="656" on="1"/>
        <pt x="1261" y="614" on="0"/>
        <pt x="1236" y="393" on="0"/>
        <pt x="1226" y="377" on="1"/>
        <pt x="1172" y="402" on="1"/>
        <pt x="1009" y="402" on="1"/>
        <pt x="974" y="377" on="1"/>
        <pt x="974" y="238" on="1"/>
        <pt x="990" y="217" on="1"/>
        <pt x="990" y="261" on="1"/>
        <pt x="1155" y="261" on="1"/>
        <pt x="1175" y="261" on="0"/>
        <pt x="1255" y="235" on="0"/>
        <pt x="1290" y="235" on="0"/>
        <pt x="1299" y="238" on="1"/>
        <pt x="1299" y="208" on="0"/>
        <pt x="1261" y="111" on="0"/>
        <pt x="1261" y="85" on="1"/>
        <pt x="1261" y="-94" on="0"/>
        <pt x="1221" y="-165" on="1"/>
        <pt x="1226" y="-248" on="1"/>
        <pt x="1190" y="-294" on="1"/>
        <pt x="1172" y="-248" on="1"/>
        <pt x="1176" y="-239" on="0"/>
        <pt x="1208" y="-87" on="0"/>
        <pt x="1208" y="-15" on="0"/>
        <pt x="1184" y="31" on="0"/>
        <pt x="1135" y="31" on="1"/>
        <pt x="1096" y="31" on="0"/>
        <pt x="1047" y="-89" on="1"/>
        <pt x="1005" y="-89" on="0"/>
        <pt x="990" y="-67" on="0"/>
        <pt x="990" y="-16" on="1"/>
        <pt x="974" y="6" on="1"/>
        <pt x="982" y="-165" on="1"/>
        <pt x="982" y="-316" on="0"/>
        <pt x="919" y="-316" on="1"/>
        <pt x="919" y="55" on="1"/>
        <pt x="898" y="79" on="0"/>
        <pt x="826" y="79" on="0"/>
        <pt x="790" y="21" on="0"/>
        <pt x="790" y="-32" on="0"/>
        <pt x="794" y="-38" on="1"/>
        <pt x="777" y="-67" on="0"/>
        <pt x="759" y="-231" on="1"/>
        <pt x="738" y="-190" on="0"/>
        <pt x="738" y="-130" on="1"/>
        <pt x="740" y="-55" on="1"/>
        <pt x="715" y="-20" on="1"/>
        <pt x="704" y="-22" on="1"/>
        <pt x="668" y="-67" on="0"/>
        <pt x="647" y="-116" on="0"/>
        <pt x="647" y="-152" on="1"/>
        <pt x="648" y="-231" on="1"/>
        <pt x="612" y="-275" on="1"/>
        <pt x="575" y="-275" on="0"/>
        <pt x="575" y="-188" on="1"/>
        <pt x="577" y="-138" on="1"/>
        <pt x="577" y="2" on="0"/>
        <pt x="528" y="2" on="1"/>
        <pt x="448" y="2" on="0"/>
      </contour>
      <contour>
        <pt x="559" y="835" on="1"/>
        <pt x="559" y="858" on="0"/>
        <pt x="535" y="858" on="1"/>
        <pt x="523" y="858" on="1"/>
        <pt x="523" y="882" on="1"/>
        <pt x="504" y="882" on="1"/>
        <pt x="504" y="858" on="0"/>
        <pt x="486" y="858" on="1"/>
        <pt x="486" y="835" on="1"/>
        <pt x="468" y="835" on="1"/>
        <pt x="433" y="766" on="1"/>
        <pt x="433" y="739" on="0"/>
        <pt x="413" y="646" on="0"/>
        <pt x="413" y="535" on="0"/>
        <pt x="433" y="510" on="1"/>
        <pt x="413" y="510" on="1"/>
        <pt x="413" y="496" on="0"/>
        <pt x="420" y="488" on="0"/>
        <pt x="433" y="488" on="1"/>
        <pt x="433" y="373" on="1"/>
        <pt x="442" y="362" on="0"/>
        <pt x="462" y="257" on="0"/>
        <pt x="468" y="257" on="1"/>
        <pt x="473" y="249" on="0"/>
        <pt x="481" y="228" on="1"/>
        <pt x="497" y="187" on="0"/>
        <pt x="523" y="187" on="1"/>
        <pt x="556" y="187" on="0"/>
        <pt x="594" y="301" on="0"/>
        <pt x="594" y="349" on="1"/>
        <pt x="577" y="349" on="1"/>
        <pt x="577" y="373" on="1"/>
        <pt x="594" y="373" on="1"/>
        <pt x="612" y="396" on="1"/>
        <pt x="612" y="580" on="1"/>
        <pt x="612" y="611" on="0"/>
        <pt x="594" y="701" on="0"/>
        <pt x="594" y="746" on="1"/>
        <pt x="594" y="766" on="1"/>
      </contour>
    </TTGlyph>
    <TTGlyph name="Oacute" xMin="53" yMin="-175" xMax="1204" yMax="2154">
      <component glyphName="acute" x="409" y="80" flags="0x1004"/>
      <component glyphName="O" x="0" y="0" flags="0x1204"/>
    </TTGlyph>
    <TTGlyph name="Obreve" xMin="53" yMin="-175" xMax="999" yMax="2224">
      <component glyphName="breve" x="85" y="1796" flags="0x1004"/>
      <component glyphName="O" x="0" y="0" flags="0x1204"/>
    </TTGlyph>
    <TTGlyph name="Ocircumflex" xMin="28" yMin="-175" xMax="999" yMax="2338">
      <component glyphName="circumflex" x="-52" y="196" flags="0x1004"/>
      <component glyphName="O" x="0" y="0" flags="0x1204"/>
    </TTGlyph>
    <TTGlyph name="Odieresis" xMin="8" yMin="-175" xMax="1015" yMax="2143">
      <component glyphName="dieresis" x="-131" y="1" flags="0x1004"/>
      <component glyphName="O" x="0" y="0" flags="0x1204"/>
    </TTGlyph>
    <TTGlyph name="Ograve" xMin="-97" yMin="-175" xMax="999" yMax="2150">
      <component glyphName="grave" x="-200" y="78" flags="0x1004"/>
      <component glyphName="O" x="0" y="0" flags="0x1204"/>
    </TTGlyph>
    <TTGlyph name="Ohungarumlaut" xMin="53" yMin="-175" xMax="1073" yMax="2329">
      <component glyphName="hungarumlaut" x="-32" y="196" flags="0x1004"/>
      <component glyphName="O" x="0" y="0" flags="0x1204"/>
    </TTGlyph>
    <TTGlyph name="Omacron" xMin="53" yMin="-175" xMax="999" yMax="1901">
      <component glyphName="macron" x="35" y="1054" flags="0x1004"/>
      <component glyphName="O" x="0" y="0" flags="0x1204"/>
    </TTGlyph>
    <TTGlyph name="Oslash" xMin="-50" yMin="-175" xMax="1361" yMax="1507">
      <contour>
        <pt x="513" y="-135" on="1"/>
        <pt x="513" y="-136" on="0"/>
        <pt x="512" y="-140" on="0"/>
        <pt x="512" y="-142" on="1"/>
        <pt x="512" y="-138" on="1"/>
        <pt x="512" y="-137" on="0"/>
      </contour>
      <contour>
        <pt x="692" y="625" on="1"/>
        <pt x="519" y="444" on="0"/>
        <pt x="496" y="425" on="1"/>
        <pt x="496" y="373" on="1"/>
        <pt x="505" y="363" on="0"/>
        <pt x="512" y="334" on="1"/>
        <pt x="528" y="257" on="0"/>
        <pt x="536" y="257" on="1"/>
        <pt x="541" y="250" on="0"/>
        <pt x="550" y="229" on="1"/>
        <pt x="566" y="187" on="0"/>
        <pt x="621" y="187" on="0"/>
        <pt x="640" y="218" on="1"/>
        <pt x="676" y="276" on="0"/>
        <pt x="676" y="349" on="1"/>
        <pt x="656" y="349" on="1"/>
        <pt x="656" y="373" on="1"/>
        <pt x="676" y="373" on="1"/>
        <pt x="696" y="396" on="1"/>
        <pt x="696" y="580" on="1"/>
        <pt x="696" y="603" on="0"/>
      </contour>
      <contour>
        <pt x="654" y="-175" on="1"/>
        <pt x="656" y="-138" on="1"/>
        <pt x="656" y="2" on="0"/>
        <pt x="602" y="2" on="1"/>
        <pt x="549" y="4" on="0"/>
        <pt x="530" y="-44" on="1"/>
        <pt x="517" y="-78" on="0"/>
        <pt x="509" y="-144" on="0"/>
        <pt x="508" y="-149" on="0"/>
        <pt x="508" y="-152" on="1"/>
        <pt x="456" y="-152" on="0"/>
        <pt x="456" y="-91" on="1"/>
        <pt x="456" y="-44" on="0"/>
        <pt x="365" y="10" on="1"/>
        <pt x="326" y="34" on="0"/>
        <pt x="314" y="46" on="1"/>
        <pt x="314" y="24" on="1"/>
        <pt x="296" y="24" on="1"/>
        <pt x="314" y="46" on="1"/>
        <pt x="309" y="53" on="0"/>
        <pt x="287" y="79" on="0"/>
        <pt x="271" y="99" on="0"/>
        <pt x="262" y="112" on="1"/>
        <pt x="243" y="138" on="0"/>
        <pt x="237" y="164" on="1"/>
        <pt x="-37" y="-119" on="0"/>
        <pt x="-42" y="-124" on="1"/>
        <pt x="-32" y="-103" on="1"/>
        <pt x="-34" y="-103" on="0"/>
        <pt x="-34" y="-82" on="0"/>
        <pt x="-4" y="-64" on="0"/>
        <pt x="-4" y="-51" on="0"/>
        <pt x="-14" y="-51" on="0"/>
        <pt x="-48" y="-68" on="1"/>
        <pt x="-46" y="-66" on="1"/>
        <pt x="-50" y="-65" on="1"/>
        <pt x="17" y="41" on="0"/>
        <pt x="196" y="210" on="1"/>
        <pt x="231" y="243" on="0"/>
        <pt x="248" y="259" on="1"/>
        <pt x="243" y="287" on="0"/>
        <pt x="228" y="335" on="1"/>
        <pt x="194" y="443" on="0"/>
        <pt x="194" y="598" on="0"/>
        <pt x="136" y="900" on="0"/>
        <pt x="136" y="974" on="1"/>
        <pt x="114" y="998" on="1"/>
        <pt x="136" y="979" on="1"/>
        <pt x="130" y="1046" on="1"/>
        <pt x="122" y="1041" on="1"/>
        <pt x="114" y="1044" on="1"/>
        <pt x="136" y="1069" on="1"/>
        <pt x="114" y="1089" on="1"/>
        <pt x="114" y="1197" on="0"/>
        <pt x="256" y="1395" on="0"/>
        <pt x="460" y="1507" on="0"/>
        <pt x="556" y="1507" on="1"/>
        <pt x="576" y="1484" on="1"/>
        <pt x="596" y="1507" on="1"/>
        <pt x="613" y="1507" on="0"/>
        <pt x="678" y="1484" on="0"/>
        <pt x="696" y="1484" on="1"/>
        <pt x="716" y="1507" on="1"/>
        <pt x="765" y="1452" on="0"/>
        <pt x="896" y="1438" on="1"/>
        <pt x="936" y="1390" on="1"/>
        <pt x="936" y="1416" on="1"/>
        <pt x="958" y="1416" on="1"/>
        <pt x="956" y="1390" on="1"/>
        <pt x="976" y="1367" on="1"/>
        <pt x="958" y="1344" on="1"/>
        <pt x="994" y="1344" on="0"/>
        <pt x="1040" y="1323" on="0"/>
        <pt x="1040" y="1310" on="1"/>
        <pt x="1040" y="1306" on="0"/>
        <pt x="1036" y="1300" on="1"/>
        <pt x="1074" y="1251" on="1"/>
        <pt x="1056" y="1251" on="1"/>
        <pt x="1056" y="1169" on="0"/>
        <pt x="1061" y="1133" on="1"/>
        <pt x="1283" y="1359" on="0"/>
        <pt x="1340" y="1390" on="1"/>
        <pt x="1333" y="1371" on="1"/>
        <pt x="1312" y="1371" on="1"/>
        <pt x="1317" y="1362" on="1"/>
        <pt x="1342" y="1365" on="1"/>
        <pt x="1340" y="1354" on="1"/>
        <pt x="1347" y="1356" on="1"/>
        <pt x="1361" y="1340" on="1"/>
        <pt x="1245" y="1204" on="0"/>
        <pt x="1134" y="1113" on="1"/>
        <pt x="1138" y="1101" on="1"/>
        <pt x="1131" y="1092" on="0"/>
        <pt x="1090" y="1047" on="1"/>
        <pt x="1091" y="1045" on="0"/>
        <pt x="1092" y="1044" on="1"/>
        <pt x="1089" y="1044" on="0"/>
        <pt x="1087" y="1044" on="1"/>
        <pt x="1074" y="1029" on="0"/>
        <pt x="1058" y="1012" on="1"/>
        <pt x="1049" y="973" on="0"/>
        <pt x="1068" y="942" on="1"/>
        <pt x="1054" y="912" on="0"/>
        <pt x="1054" y="885" on="0"/>
        <pt x="1056" y="882" on="1"/>
        <pt x="1074" y="882" on="1"/>
        <pt x="1074" y="868" on="1"/>
        <pt x="1074" y="464" on="0"/>
        <pt x="1016" y="464" on="1"/>
        <pt x="998" y="324" on="1"/>
        <pt x="1016" y="324" on="1"/>
        <pt x="968" y="250" on="1"/>
        <pt x="976" y="233" on="1"/>
        <pt x="968" y="145" on="0"/>
        <pt x="896" y="46" on="1"/>
        <pt x="896" y="-6" on="0"/>
        <pt x="858" y="-130" on="1"/>
        <pt x="836" y="-130" on="0"/>
        <pt x="834" y="-140" on="1"/>
        <pt x="838" y="-60" on="1"/>
        <pt x="838" y="-49" on="0"/>
        <pt x="821" y="-20" on="0"/>
        <pt x="810" y="-20" on="1"/>
        <pt x="798" y="-22" on="1"/>
        <pt x="760" y="-64" on="0"/>
        <pt x="735" y="-108" on="0"/>
        <pt x="734" y="-135" on="1"/>
        <pt x="736" y="-130" on="1"/>
        <pt x="736" y="-133" on="0"/>
        <pt x="734" y="-135" on="1"/>
        <pt x="734" y="-140" on="1"/>
        <pt x="719" y="-175" on="0"/>
        <pt x="696" y="-175" on="1"/>
      </contour>
      <contour>
        <pt x="494" y="424" on="1"/>
        <pt x="490" y="419" on="1"/>
        <pt x="490" y="418" on="1"/>
        <pt x="486" y="414" on="1"/>
        <pt x="492" y="418" on="1"/>
        <pt x="494" y="423" on="0"/>
      </contour>
      <contour>
        <pt x="676" y="728" on="1"/>
        <pt x="676" y="737" on="0"/>
        <pt x="676" y="746" on="1"/>
        <pt x="676" y="766" on="1"/>
        <pt x="636" y="835" on="1"/>
        <pt x="636" y="858" on="0"/>
        <pt x="599" y="858" on="1"/>
        <pt x="598" y="858" on="0"/>
        <pt x="598" y="858" on="1"/>
        <pt x="596" y="858" on="1"/>
        <pt x="596" y="882" on="1"/>
        <pt x="576" y="882" on="1"/>
        <pt x="576" y="858" on="0"/>
        <pt x="556" y="858" on="1"/>
        <pt x="556" y="835" on="1"/>
        <pt x="536" y="835" on="1"/>
        <pt x="496" y="766" on="1"/>
        <pt x="496" y="739" on="0"/>
        <pt x="474" y="646" on="0"/>
        <pt x="474" y="591" on="0"/>
        <pt x="487" y="534" on="0"/>
        <pt x="487" y="523" on="1"/>
        <pt x="594" y="640" on="0"/>
      </contour>
      <contour>
        <pt x="475" y="510" on="1"/>
        <pt x="474" y="510" on="1"/>
        <pt x="474" y="510" on="0"/>
        <pt x="474" y="509" on="1"/>
        <pt x="475" y="509" on="0"/>
      </contour>
    </TTGlyph>
    <TTGlyph name="Otilde" xMin="-10" yMin="-175" xMax="999" yMax="2103">
      <component glyphName="tilde" x="-84" y="1802" flags="0x1004"/>
      <component glyphName="O" x="0" y="0" flags="0x1204"/>
    </TTGlyph>
    <TTGlyph name="P" xMin="29" yMin="-135" xMax="1070" yMax="1527">
      <contour>
        <pt x="325" y="362" on="1"/>
        <pt x="325" y="399" on="1"/>
        <pt x="325" y="505" on="0"/>
        <pt x="230" y="975" on="0"/>
        <pt x="230" y="1246" on="0"/>
        <pt x="173" y="1322" on="1"/>
        <pt x="154" y="1348" on="0"/>
        <pt x="51" y="1425" on="0"/>
        <pt x="29" y="1454" on="1"/>
        <pt x="298" y="1500" on="0"/>
        <pt x="499" y="1500" on="1"/>
        <pt x="541" y="1500" on="1"/>
        <pt x="558" y="1525" on="0"/>
        <pt x="573" y="1525" on="1"/>
        <pt x="588" y="1522" on="1"/>
        <pt x="594" y="1522" on="0"/>
        <pt x="599" y="1527" on="1"/>
        <pt x="599" y="1500" on="0"/>
        <pt x="649" y="1500" on="1"/>
        <pt x="667" y="1482" on="1"/>
        <pt x="720" y="1525" on="1"/>
        <pt x="721" y="1511" on="0"/>
        <pt x="746" y="1502" on="1"/>
        <pt x="779" y="1490" on="0"/>
        <pt x="831" y="1490" on="1"/>
        <pt x="831" y="1500" on="1"/>
        <pt x="887" y="1500" on="0"/>
        <pt x="981" y="1435" on="0"/>
        <pt x="1010" y="1383" on="1"/>
        <pt x="1070" y="1273" on="0"/>
        <pt x="1070" y="1154" on="1"/>
        <pt x="1018" y="1097" on="0"/>
        <pt x="1016" y="878" on="1"/>
        <pt x="1014" y="662" on="0"/>
        <pt x="977" y="506" on="1"/>
        <pt x="958" y="426" on="0"/>
        <pt x="855" y="320" on="0"/>
        <pt x="774" y="320" on="1"/>
        <pt x="757" y="342" on="1"/>
        <pt x="752" y="342" on="1"/>
        <pt x="744" y="342" on="0"/>
        <pt x="735" y="320" on="0"/>
        <pt x="726" y="320" on="1"/>
        <pt x="720" y="320" on="1"/>
        <pt x="720" y="342" on="1"/>
        <pt x="674" y="315" on="1"/>
        <pt x="667" y="342" on="1"/>
        <pt x="649" y="342" on="1"/>
        <pt x="649" y="320" on="1"/>
        <pt x="630" y="342" on="1"/>
        <pt x="630" y="320" on="1"/>
        <pt x="614" y="296" on="1"/>
        <pt x="630" y="43" on="1"/>
        <pt x="614" y="19" on="1"/>
        <pt x="627" y="19" on="0"/>
        <pt x="632" y="-28" on="0"/>
        <pt x="635" y="-89" on="0"/>
        <pt x="645" y="-101" on="1"/>
        <pt x="630" y="-87" on="1"/>
        <pt x="630" y="-106" on="1"/>
        <pt x="612" y="-106" on="0"/>
        <pt x="611" y="-111" on="1"/>
        <pt x="611" y="-90" on="0"/>
        <pt x="614" y="-81" on="1"/>
        <pt x="604" y="-56" on="1"/>
        <pt x="576" y="-73" on="1"/>
        <pt x="576" y="-97" on="1"/>
        <pt x="559" y="-97" on="1"/>
        <pt x="576" y="-111" on="0"/>
        <pt x="576" y="-135" on="1"/>
        <pt x="559" y="-97" on="1"/>
        <pt x="538" y="-99" on="1"/>
        <pt x="541" y="-84" on="1"/>
        <pt x="541" y="-80" on="0"/>
        <pt x="523" y="-58" on="0"/>
        <pt x="523" y="-51" on="1"/>
        <pt x="486" y="-24" on="1"/>
        <pt x="480" y="-26" on="0"/>
        <pt x="459" y="-30" on="0"/>
        <pt x="450" y="-33" on="0"/>
        <pt x="444" y="-38" on="1"/>
        <pt x="434" y="-45" on="0"/>
        <pt x="434" y="-73" on="1"/>
        <pt x="448" y="-97" on="1"/>
        <pt x="434" y="-97" on="1"/>
        <pt x="398" y="-97" on="0"/>
        <pt x="340" y="140" on="0"/>
        <pt x="340" y="248" on="0"/>
        <pt x="360" y="274" on="1"/>
        <pt x="347" y="274" on="0"/>
        <pt x="336" y="294" on="0"/>
        <pt x="330" y="307" on="0"/>
        <pt x="328" y="317" on="1"/>
        <pt x="325" y="340" on="0"/>
      </contour>
      <contour>
        <pt x="774" y="805" on="1"/>
        <pt x="740" y="876" on="1"/>
        <pt x="594" y="876" on="1"/>
        <pt x="594" y="854" on="1"/>
        <pt x="607" y="854" on="0"/>
        <pt x="614" y="846" on="0"/>
        <pt x="614" y="829" on="1"/>
        <pt x="614" y="783" on="1"/>
        <pt x="614" y="766" on="0"/>
        <pt x="608" y="760" on="0"/>
        <pt x="594" y="760" on="1"/>
        <pt x="614" y="738" on="1"/>
        <pt x="614" y="574" on="1"/>
        <pt x="630" y="551" on="1"/>
        <pt x="630" y="528" on="1"/>
        <pt x="649" y="528" on="0"/>
        <pt x="649" y="551" on="1"/>
        <pt x="774" y="551" on="1"/>
      </contour>
    </TTGlyph>
    <TTGlyph name="Q" xMin="39" yMin="-304" xMax="1046" yMax="1503">
      <contour>
        <pt x="120" y="1257" on="1"/>
        <pt x="103" y="1257" on="0"/>
        <pt x="103" y="1275" on="1"/>
        <pt x="103" y="1301" on="0"/>
        <pt x="287" y="1414" on="0"/>
        <pt x="492" y="1503" on="0"/>
        <pt x="524" y="1503" on="1"/>
        <pt x="694" y="1503" on="0"/>
        <pt x="750" y="1463" on="1"/>
        <pt x="776" y="1445" on="0"/>
        <pt x="792" y="1426" on="1"/>
        <pt x="835" y="1372" on="0"/>
        <pt x="895" y="1352" on="1"/>
        <pt x="886" y="1375" on="1"/>
        <pt x="963" y="1283" on="0"/>
        <pt x="1006" y="1168" on="0"/>
        <pt x="1006" y="1020" on="0"/>
        <pt x="1024" y="911" on="0"/>
        <pt x="1026" y="888" on="1"/>
        <pt x="1006" y="888" on="1"/>
        <pt x="1006" y="767" on="0"/>
        <pt x="986" y="393" on="0"/>
        <pt x="967" y="355" on="1"/>
        <pt x="985" y="355" on="1"/>
        <pt x="977" y="336" on="0"/>
        <pt x="965" y="294" on="1"/>
        <pt x="940" y="210" on="0"/>
        <pt x="906" y="170" on="1"/>
        <pt x="926" y="146" on="1"/>
        <pt x="916" y="148" on="1"/>
        <pt x="904" y="135" on="1"/>
        <pt x="906" y="123" on="1"/>
        <pt x="926" y="123" on="1"/>
        <pt x="926" y="100" on="1"/>
        <pt x="997" y="31" on="1"/>
        <pt x="1035" y="31" on="0"/>
        <pt x="1046" y="55" on="1"/>
        <pt x="1046" y="-22" on="0"/>
        <pt x="1017" y="-40" on="1"/>
        <pt x="987" y="-59" on="0"/>
        <pt x="985" y="-86" on="1"/>
        <pt x="942" y="-86" on="0"/>
        <pt x="892" y="-226" on="1"/>
        <pt x="885" y="-245" on="0"/>
        <pt x="881" y="-256" on="1"/>
        <pt x="868" y="-291" on="0"/>
        <pt x="865" y="-304" on="1"/>
        <pt x="865" y="-270" on="1"/>
        <pt x="845" y="-270" on="1"/>
        <pt x="845" y="-211" on="0"/>
        <pt x="797" y="-133" on="0"/>
        <pt x="746" y="-132" on="1"/>
        <pt x="747" y="-122" on="1"/>
        <pt x="747" y="-95" on="0"/>
        <pt x="726" y="-60" on="1"/>
        <pt x="653" y="-86" on="0"/>
        <pt x="522" y="-86" on="1"/>
        <pt x="518" y="-86" on="0"/>
        <pt x="422" y="-18" on="0"/>
        <pt x="418" y="-16" on="1"/>
        <pt x="432" y="-16" on="1"/>
        <pt x="412" y="11" on="0"/>
        <pt x="326" y="99" on="0"/>
        <pt x="307" y="123" on="1"/>
        <pt x="307" y="108" on="1"/>
        <pt x="301" y="140" on="0"/>
        <pt x="237" y="205" on="0"/>
        <pt x="229" y="217" on="1"/>
        <pt x="249" y="217" on="1"/>
        <pt x="239" y="228" on="0"/>
        <pt x="165" y="362" on="0"/>
        <pt x="168" y="367" on="1"/>
        <pt x="179" y="398" on="1"/>
        <pt x="131" y="449" on="1"/>
        <pt x="152" y="489" on="0"/>
        <pt x="152" y="555" on="0"/>
        <pt x="150" y="564" on="1"/>
        <pt x="129" y="586" on="0"/>
        <pt x="48" y="912" on="0"/>
        <pt x="48" y="975" on="0"/>
        <pt x="68" y="1039" on="0"/>
        <pt x="68" y="1049" on="1"/>
        <pt x="68" y="1072" on="0"/>
        <pt x="46" y="1072" on="1"/>
        <pt x="39" y="1072" on="1"/>
        <pt x="58" y="1114" on="0"/>
        <pt x="81" y="1122" on="1"/>
        <pt x="68" y="1122" on="1"/>
        <pt x="92" y="1148" on="0"/>
        <pt x="127" y="1226" on="0"/>
        <pt x="127" y="1260" on="1"/>
        <pt x="124" y="1257" on="0"/>
      </contour>
      <contour>
        <pt x="504" y="657" on="1"/>
        <pt x="488" y="493" on="1"/>
        <pt x="501" y="492" on="0"/>
        <pt x="522" y="401" on="0"/>
        <pt x="522" y="377" on="1"/>
        <pt x="536" y="360" on="0"/>
        <pt x="562" y="276" on="0"/>
        <pt x="591" y="217" on="0"/>
        <pt x="614" y="217" on="1"/>
        <pt x="614" y="224" on="0"/>
        <pt x="638" y="286" on="0"/>
        <pt x="649" y="286" on="1"/>
        <pt x="649" y="380" on="1"/>
        <pt x="655" y="377" on="0"/>
        <pt x="667" y="377" on="1"/>
        <pt x="667" y="391" on="0"/>
        <pt x="685" y="416" on="0"/>
        <pt x="685" y="449" on="1"/>
        <pt x="668" y="449" on="1"/>
        <pt x="687" y="457" on="0"/>
        <pt x="687" y="597" on="0"/>
        <pt x="669" y="722" on="0"/>
        <pt x="666" y="754" on="0"/>
        <pt x="664" y="796" on="0"/>
        <pt x="661" y="818" on="0"/>
        <pt x="656" y="856" on="0"/>
        <pt x="646" y="877" on="0"/>
        <pt x="638" y="888" on="1"/>
        <pt x="624" y="911" on="0"/>
        <pt x="566" y="911" on="0"/>
        <pt x="527" y="854" on="0"/>
        <pt x="518" y="808" on="1"/>
        <pt x="504" y="731" on="0"/>
      </contour>
      <contour>
        <pt x="662" y="766" on="1"/>
        <pt x="665" y="757" on="0"/>
        <pt x="665" y="750" on="1"/>
      </contour>
    </TTGlyph>
    <TTGlyph name="R" xMin="41" yMin="-138" xMax="1181" yMax="1515">
      <contour>
        <pt x="831" y="-91" on="1"/>
        <pt x="850" y="-38" on="1"/>
        <pt x="838" y="-28" on="1"/>
        <pt x="812" y="-28" on="1"/>
        <pt x="812" y="-30" on="0"/>
        <pt x="790" y="-36" on="1"/>
        <pt x="769" y="9" on="0"/>
        <pt x="769" y="102" on="0"/>
        <pt x="771" y="125" on="1"/>
        <pt x="753" y="156" on="1"/>
        <pt x="758" y="231" on="1"/>
        <pt x="763" y="221" on="1"/>
        <pt x="766" y="228" on="1"/>
        <pt x="753" y="250" on="1"/>
        <pt x="753" y="272" on="1"/>
        <pt x="735" y="296" on="1"/>
        <pt x="737" y="319" on="1"/>
        <pt x="737" y="339" on="0"/>
        <pt x="729" y="367" on="1"/>
        <pt x="708" y="367" on="0"/>
        <pt x="649" y="344" on="0"/>
        <pt x="643" y="342" on="1"/>
        <pt x="643" y="365" on="1"/>
        <pt x="627" y="342" on="1"/>
        <pt x="635" y="342" on="1"/>
        <pt x="643" y="272" on="1"/>
        <pt x="622" y="233" on="1"/>
        <pt x="643" y="228" on="1"/>
        <pt x="643" y="166" on="0"/>
        <pt x="662" y="-69" on="0"/>
        <pt x="662" y="-130" on="1"/>
        <pt x="647" y="-101" on="1"/>
        <pt x="645" y="-96" on="1"/>
        <pt x="647" y="-99" on="1"/>
        <pt x="647" y="-54" on="0"/>
        <pt x="616" y="-7" on="0"/>
        <pt x="572" y="-7" on="1"/>
        <pt x="535" y="-53" on="0"/>
        <pt x="535" y="-122" on="1"/>
        <pt x="568" y="-92" on="0"/>
        <pt x="572" y="-81" on="1"/>
        <pt x="572" y="-109" on="1"/>
        <pt x="554" y="-132" on="1"/>
        <pt x="518" y="-132" on="0"/>
        <pt x="514" y="-101" on="1"/>
        <pt x="514" y="-105" on="0"/>
        <pt x="518" y="-119" on="0"/>
        <pt x="518" y="-122" on="1"/>
        <pt x="510" y="-111" on="0"/>
        <pt x="498" y="-61" on="0"/>
        <pt x="480" y="-28" on="0"/>
        <pt x="462" y="-28" on="1"/>
        <pt x="430" y="-28" on="0"/>
        <pt x="430" y="-66" on="1"/>
        <pt x="431" y="-59" on="0"/>
        <pt x="443" y="-45" on="0"/>
        <pt x="446" y="-45" on="1"/>
        <pt x="428" y="-89" on="1"/>
        <pt x="423" y="-74" on="0"/>
        <pt x="413" y="-54" on="1"/>
        <pt x="391" y="-12" on="0"/>
        <pt x="391" y="23" on="1"/>
        <pt x="391" y="190" on="0"/>
        <pt x="356" y="272" on="1"/>
        <pt x="373" y="272" on="1"/>
        <pt x="355" y="460" on="1"/>
        <pt x="356" y="483" on="1"/>
        <pt x="336" y="483" on="1"/>
        <pt x="318" y="574" on="1"/>
        <pt x="336" y="597" on="1"/>
        <pt x="336" y="623" on="0"/>
        <pt x="312" y="623" on="1"/>
        <pt x="299" y="620" on="1"/>
        <pt x="301" y="667" on="1"/>
        <pt x="318" y="680" on="0"/>
        <pt x="318" y="714" on="1"/>
        <pt x="282" y="714" on="1"/>
        <pt x="262" y="1107" on="1"/>
        <pt x="236" y="1136" on="0"/>
        <pt x="206" y="1239" on="0"/>
        <pt x="170" y="1284" on="0"/>
        <pt x="142" y="1291" on="1"/>
        <pt x="142" y="1341" on="0"/>
        <pt x="41" y="1388" on="0"/>
        <pt x="41" y="1429" on="1"/>
        <pt x="86" y="1429" on="0"/>
        <pt x="257" y="1478" on="0"/>
        <pt x="301" y="1478" on="1"/>
        <pt x="336" y="1454" on="1"/>
        <pt x="374" y="1500" on="0"/>
        <pt x="420" y="1507" on="1"/>
        <pt x="482" y="1515" on="0"/>
        <pt x="538" y="1515" on="1"/>
        <pt x="727" y="1515" on="0"/>
        <pt x="790" y="1482" on="1"/>
        <pt x="821" y="1503" on="1"/>
        <pt x="871" y="1500" on="1"/>
        <pt x="883" y="1484" on="0"/>
        <pt x="1004" y="1418" on="0"/>
        <pt x="1054" y="1401" on="0"/>
        <pt x="1130" y="1313" on="0"/>
        <pt x="1151" y="1313" on="1"/>
        <pt x="1181" y="1283" on="0"/>
        <pt x="1181" y="988" on="0"/>
        <pt x="1151" y="714" on="1"/>
        <pt x="1149" y="695" on="0"/>
        <pt x="1079" y="529" on="0"/>
        <pt x="1079" y="473" on="0"/>
        <pt x="1086" y="462" on="1"/>
        <pt x="1070" y="459" on="1"/>
        <pt x="1060" y="447" on="0"/>
        <pt x="1017" y="435" on="0"/>
        <pt x="991" y="414" on="0"/>
        <pt x="991" y="387" on="1"/>
        <pt x="1041" y="329" on="0"/>
        <pt x="1048" y="226" on="1"/>
        <pt x="1051" y="190" on="0"/>
        <pt x="1051" y="133" on="1"/>
        <pt x="1028" y="118" on="1"/>
        <pt x="1031" y="89" on="1"/>
        <pt x="1075" y="32" on="0"/>
        <pt x="1075" y="-65" on="1"/>
        <pt x="1040" y="-124" on="1"/>
        <pt x="1031" y="-122" on="1"/>
        <pt x="991" y="-76" on="1"/>
        <pt x="991" y="-97" on="1"/>
        <pt x="935" y="-97" on="0"/>
        <pt x="928" y="-76" on="1"/>
        <pt x="918" y="-45" on="0"/>
        <pt x="891" y="-28" on="1"/>
        <pt x="895" y="-70" on="1"/>
        <pt x="895" y="-79" on="0"/>
        <pt x="873" y="-112" on="0"/>
        <pt x="871" y="-116" on="1"/>
      </contour>
      <contour>
        <pt x="657" y="625" on="0"/>
        <pt x="692" y="617" on="0"/>
        <pt x="771" y="615" on="0"/>
        <pt x="769" y="642" on="1"/>
        <pt x="790" y="642" on="1"/>
        <pt x="790" y="669" on="0"/>
        <pt x="812" y="690" on="1"/>
        <pt x="812" y="760" on="1"/>
        <pt x="820" y="760" on="0"/>
        <pt x="831" y="775" on="0"/>
        <pt x="831" y="792" on="0"/>
        <pt x="812" y="819" on="0"/>
        <pt x="812" y="829" on="1"/>
        <pt x="735" y="898" on="1"/>
        <pt x="662" y="898" on="1"/>
        <pt x="643" y="876" on="1"/>
        <pt x="627" y="898" on="1"/>
        <pt x="627" y="876" on="1"/>
        <pt x="608" y="876" on="1"/>
        <pt x="627" y="851" on="1"/>
        <pt x="627" y="760" on="1"/>
        <pt x="608" y="760" on="0"/>
        <pt x="608" y="736" on="1"/>
        <pt x="627" y="736" on="1"/>
        <pt x="627" y="730" on="0"/>
        <pt x="627" y="691" on="0"/>
        <pt x="628" y="667" on="0"/>
        <pt x="637" y="636" on="0"/>
      </contour>
      <contour>
        <pt x="769" y="597" on="1"/>
        <pt x="753" y="620" on="1"/>
        <pt x="753" y="597" on="1"/>
      </contour>
      <contour>
        <pt x="662" y="-130" on="1"/>
        <pt x="664" y="-132" on="0"/>
        <pt x="664" y="-136" on="0"/>
        <pt x="662" y="-138" on="1"/>
      </contour>
      <contour>
        <pt x="645" y="-96" on="1"/>
        <pt x="643" y="-96" on="0"/>
        <pt x="643" y="-91" on="1"/>
      </contour>
    </TTGlyph>
    <TTGlyph name="Racute" xMin="41" yMin="-138" xMax="1311" yMax="2162">
      <component glyphName="acute" x="516" y="88" flags="0x1004"/>
      <component glyphName="R" x="0" y="0" flags="0x1204"/>
    </TTGlyph>
    <TTGlyph name="Rcaron" xMin="41" yMin="-138" xMax="1181" yMax="2385">
      <component glyphName="caron" x="194" y="204" flags="0x1004"/>
      <component glyphName="R" x="0" y="0" flags="0x1204"/>
    </TTGlyph>
    <TTGlyph name="Rcommaaccent" xMin="41" yMin="-1164" xMax="1181" yMax="1515">
      <component glyphName="uni0326" x="291" y="-976" flags="0x1004"/>
      <component glyphName="R" x="0" y="0" flags="0x1204"/>
    </TTGlyph>
    <TTGlyph name="S" xMin="50" yMin="-178" xMax="1002" yMax="1512">
      <contour>
        <pt x="942" y="726" on="1"/>
        <pt x="942" y="702" on="1"/>
        <pt x="962" y="726" on="1"/>
      </contour>
      <contour>
        <pt x="539" y="-38" on="1"/>
        <pt x="539" y="-40" on="0"/>
        <pt x="544" y="-49" on="0"/>
        <pt x="540" y="-58" on="1"/>
        <pt x="530" y="-85" on="0"/>
        <pt x="527" y="-91" on="1"/>
        <pt x="509" y="-68" on="1"/>
        <pt x="509" y="-38" on="1"/>
        <pt x="417" y="-38" on="1"/>
        <pt x="417" y="-55" on="0"/>
        <pt x="435" y="-121" on="0"/>
        <pt x="435" y="-138" on="1"/>
        <pt x="400" y="-87" on="1"/>
        <pt x="400" y="-63" on="1"/>
        <pt x="383" y="-63" on="1"/>
        <pt x="362" y="-41" on="1"/>
        <pt x="362" y="-63" on="1"/>
        <pt x="338" y="-81" on="0"/>
        <pt x="325" y="-81" on="0"/>
        <pt x="288" y="-38" on="0"/>
        <pt x="270" y="-38" on="1"/>
        <pt x="194" y="38" on="0"/>
        <pt x="192" y="77" on="1"/>
        <pt x="130" y="171" on="0"/>
        <pt x="130" y="238" on="0"/>
        <pt x="112" y="238" on="1"/>
        <pt x="90" y="238" on="1"/>
        <pt x="138" y="319" on="0"/>
        <pt x="274" y="319" on="1"/>
        <pt x="435" y="309" on="1"/>
        <pt x="454" y="330" on="1"/>
        <pt x="452" y="319" on="1"/>
        <pt x="452" y="284" on="0"/>
        <pt x="472" y="284" on="1"/>
        <pt x="472" y="192" on="1"/>
        <pt x="482" y="195" on="1"/>
        <pt x="509" y="195" on="0"/>
        <pt x="509" y="168" on="1"/>
        <pt x="527" y="168" on="1"/>
        <pt x="559" y="191" on="0"/>
        <pt x="617" y="261" on="1"/>
        <pt x="598" y="284" on="1"/>
        <pt x="598" y="309" on="1"/>
        <pt x="582" y="330" on="1"/>
        <pt x="582" y="377" on="1"/>
        <pt x="520" y="373" on="1"/>
        <pt x="476" y="369" on="0"/>
        <pt x="454" y="399" on="1"/>
        <pt x="449" y="398" on="0"/>
        <pt x="408" y="398" on="0"/>
        <pt x="356" y="424" on="0"/>
        <pt x="346" y="447" on="1"/>
        <pt x="327" y="424" on="1"/>
        <pt x="220" y="481" on="0"/>
        <pt x="164" y="536" on="1"/>
        <pt x="50" y="645" on="0"/>
        <pt x="50" y="894" on="1"/>
        <pt x="70" y="1120" on="1"/>
        <pt x="130" y="1234" on="1"/>
        <pt x="130" y="1283" on="0"/>
        <pt x="192" y="1368" on="0"/>
        <pt x="285" y="1423" on="0"/>
        <pt x="396" y="1468" on="0"/>
        <pt x="491" y="1492" on="0"/>
        <pt x="559" y="1509" on="0"/>
        <pt x="561" y="1512" on="1"/>
        <pt x="650" y="1512" on="0"/>
        <pt x="755" y="1472" on="0"/>
        <pt x="835" y="1409" on="1"/>
        <pt x="842" y="1419" on="1"/>
        <pt x="867" y="1389" on="0"/>
        <pt x="978" y="1285" on="0"/>
        <pt x="1002" y="1257" on="1"/>
        <pt x="1002" y="1234" on="1"/>
        <pt x="982" y="1234" on="1"/>
        <pt x="962" y="726" on="1"/>
        <pt x="982" y="726" on="1"/>
        <pt x="982" y="702" on="1"/>
        <pt x="962" y="676" on="1"/>
        <pt x="938" y="692" on="1"/>
        <pt x="885" y="727" on="0"/>
        <pt x="867" y="727" on="0"/>
        <pt x="863" y="726" on="1"/>
        <pt x="842" y="702" on="1"/>
        <pt x="781" y="748" on="1"/>
        <pt x="781" y="726" on="1"/>
        <pt x="634" y="726" on="1"/>
        <pt x="593" y="726" on="0"/>
        <pt x="593" y="779" on="1"/>
        <pt x="593" y="792" on="0"/>
        <pt x="598" y="842" on="1"/>
        <pt x="582" y="817" on="1"/>
        <pt x="544" y="865" on="1"/>
        <pt x="509" y="865" on="1"/>
        <pt x="506" y="865" on="0"/>
        <pt x="473" y="843" on="0"/>
        <pt x="472" y="842" on="1"/>
        <pt x="472" y="817" on="1"/>
        <pt x="454" y="793" on="1"/>
        <pt x="454" y="759" on="0"/>
        <pt x="501" y="676" on="0"/>
        <pt x="527" y="676" on="1"/>
        <pt x="527" y="656" on="1"/>
        <pt x="544" y="676" on="1"/>
        <pt x="632" y="676" on="0"/>
        <pt x="732" y="617" on="1"/>
        <pt x="844" y="552" on="0"/>
        <pt x="890" y="461" on="1"/>
        <pt x="916" y="410" on="0"/>
        <pt x="916" y="336" on="0"/>
        <pt x="900" y="257" on="0"/>
        <pt x="888" y="257" on="1"/>
        <pt x="885" y="257" on="0"/>
        <pt x="882" y="260" on="1"/>
        <pt x="901" y="238" on="1"/>
        <pt x="901" y="213" on="0"/>
        <pt x="851" y="141" on="0"/>
        <pt x="801" y="64" on="0"/>
        <pt x="801" y="31" on="1"/>
        <pt x="761" y="-38" on="1"/>
        <pt x="764" y="-70" on="1"/>
        <pt x="742" y="-70" on="1"/>
        <pt x="742" y="-87" on="1"/>
        <pt x="707" y="-107" on="1"/>
        <pt x="706" y="-104" on="0"/>
        <pt x="701" y="-94" on="1"/>
        <pt x="688" y="-66" on="0"/>
        <pt x="688" y="-63" on="1"/>
        <pt x="742" y="-63" on="1"/>
        <pt x="688" y="-18" on="1"/>
        <pt x="617" y="-63" on="1"/>
        <pt x="617" y="-87" on="1"/>
        <pt x="598" y="-112" on="0"/>
        <pt x="598" y="-139" on="1"/>
        <pt x="598" y="-178" on="1"/>
        <pt x="582" y="-178" on="1"/>
        <pt x="582" y="-155" on="1"/>
        <pt x="582" y="-90" on="0"/>
        <pt x="598" y="-63" on="1"/>
        <pt x="598" y="-33" on="1"/>
        <pt x="595" y="-36" on="0"/>
        <pt x="582" y="-38" on="1"/>
      </contour>
    </TTGlyph>
    <TTGlyph name="Sacute" xMin="50" yMin="-178" xMax="1200" yMax="2160">
      <component glyphName="acute" x="405" y="86" flags="0x1004"/>
      <component glyphName="S" x="0" y="0" flags="0x1204"/>
    </TTGlyph>
    <TTGlyph name="Scaron" xMin="49" yMin="-178" xMax="1001" yMax="2592">
      <contour>
        <pt x="941" y="726" on="1"/>
        <pt x="941" y="702" on="1"/>
        <pt x="961" y="726" on="1"/>
      </contour>
      <contour>
        <pt x="434" y="309" on="1"/>
        <pt x="453" y="330" on="1"/>
        <pt x="451" y="319" on="1"/>
        <pt x="451" y="284" on="0"/>
        <pt x="471" y="284" on="1"/>
        <pt x="471" y="192" on="1"/>
        <pt x="481" y="195" on="1"/>
        <pt x="508" y="195" on="0"/>
        <pt x="508" y="168" on="1"/>
        <pt x="526" y="168" on="1"/>
        <pt x="558" y="191" on="0"/>
        <pt x="616" y="261" on="1"/>
        <pt x="597" y="284" on="1"/>
        <pt x="597" y="309" on="1"/>
        <pt x="581" y="330" on="1"/>
        <pt x="581" y="377" on="1"/>
        <pt x="520" y="373" on="1"/>
        <pt x="475" y="369" on="0"/>
        <pt x="453" y="399" on="1"/>
        <pt x="448" y="398" on="0"/>
        <pt x="407" y="398" on="0"/>
        <pt x="355" y="424" on="0"/>
        <pt x="345" y="447" on="1"/>
        <pt x="326" y="424" on="1"/>
        <pt x="219" y="481" on="0"/>
        <pt x="162" y="536" on="1"/>
        <pt x="49" y="645" on="0"/>
        <pt x="49" y="894" on="1"/>
        <pt x="69" y="1120" on="1"/>
        <pt x="130" y="1234" on="1"/>
        <pt x="130" y="1293" on="0"/>
        <pt x="216" y="1390" on="0"/>
        <pt x="341" y="1447" on="0"/>
        <pt x="464" y="1487" on="0"/>
        <pt x="558" y="1509" on="0"/>
        <pt x="560" y="1512" on="1"/>
        <pt x="649" y="1512" on="0"/>
        <pt x="754" y="1472" on="0"/>
        <pt x="834" y="1409" on="1"/>
        <pt x="841" y="1419" on="1"/>
        <pt x="866" y="1389" on="0"/>
        <pt x="977" y="1285" on="0"/>
        <pt x="1001" y="1257" on="1"/>
        <pt x="1001" y="1234" on="1"/>
        <pt x="981" y="1234" on="1"/>
        <pt x="961" y="726" on="1"/>
        <pt x="981" y="726" on="1"/>
        <pt x="981" y="702" on="1"/>
        <pt x="961" y="676" on="1"/>
        <pt x="938" y="692" on="1"/>
        <pt x="884" y="727" on="0"/>
        <pt x="872" y="727" on="1"/>
        <pt x="866" y="727" on="0"/>
        <pt x="862" y="726" on="1"/>
        <pt x="841" y="702" on="1"/>
        <pt x="780" y="748" on="1"/>
        <pt x="780" y="726" on="1"/>
        <pt x="633" y="726" on="1"/>
        <pt x="592" y="726" on="0"/>
        <pt x="592" y="779" on="1"/>
        <pt x="592" y="792" on="0"/>
        <pt x="597" y="842" on="1"/>
        <pt x="581" y="817" on="1"/>
        <pt x="543" y="865" on="1"/>
        <pt x="508" y="865" on="1"/>
        <pt x="506" y="865" on="0"/>
        <pt x="474" y="845" on="0"/>
        <pt x="471" y="842" on="1"/>
        <pt x="471" y="817" on="1"/>
        <pt x="453" y="793" on="1"/>
        <pt x="453" y="759" on="0"/>
        <pt x="500" y="676" on="0"/>
        <pt x="526" y="676" on="1"/>
        <pt x="526" y="656" on="1"/>
        <pt x="543" y="676" on="1"/>
        <pt x="631" y="676" on="0"/>
        <pt x="732" y="617" on="1"/>
        <pt x="781" y="588" on="0"/>
        <pt x="863" y="512" on="0"/>
        <pt x="915" y="410" on="0"/>
        <pt x="915" y="336" on="0"/>
        <pt x="899" y="257" on="0"/>
        <pt x="887" y="257" on="1"/>
        <pt x="884" y="257" on="0"/>
        <pt x="881" y="260" on="1"/>
        <pt x="900" y="238" on="1"/>
        <pt x="900" y="213" on="0"/>
        <pt x="850" y="141" on="0"/>
        <pt x="800" y="64" on="0"/>
        <pt x="800" y="31" on="1"/>
        <pt x="760" y="-38" on="1"/>
        <pt x="763" y="-70" on="1"/>
        <pt x="741" y="-70" on="1"/>
        <pt x="741" y="-87" on="1"/>
        <pt x="706" y="-107" on="1"/>
        <pt x="705" y="-104" on="0"/>
        <pt x="687" y="-66" on="0"/>
        <pt x="687" y="-63" on="1"/>
        <pt x="741" y="-63" on="1"/>
        <pt x="687" y="-18" on="1"/>
        <pt x="616" y="-63" on="1"/>
        <pt x="616" y="-87" on="1"/>
        <pt x="597" y="-112" on="0"/>
        <pt x="597" y="-146" on="1"/>
        <pt x="597" y="-178" on="1"/>
        <pt x="581" y="-178" on="1"/>
        <pt x="581" y="-155" on="1"/>
        <pt x="581" y="-90" on="0"/>
        <pt x="597" y="-63" on="1"/>
        <pt x="597" y="-33" on="1"/>
        <pt x="594" y="-36" on="0"/>
        <pt x="581" y="-38" on="1"/>
        <pt x="538" y="-38" on="1"/>
        <pt x="538" y="-40" on="0"/>
        <pt x="543" y="-46" on="1"/>
        <pt x="543" y="-57" on="0"/>
        <pt x="526" y="-91" on="1"/>
        <pt x="508" y="-68" on="1"/>
        <pt x="508" y="-38" on="1"/>
        <pt x="416" y="-38" on="1"/>
        <pt x="434" y="-138" on="1"/>
        <pt x="399" y="-87" on="1"/>
        <pt x="399" y="-63" on="1"/>
        <pt x="382" y="-63" on="1"/>
        <pt x="361" y="-41" on="1"/>
        <pt x="361" y="-63" on="1"/>
        <pt x="337" y="-81" on="0"/>
        <pt x="324" y="-81" on="0"/>
        <pt x="288" y="-38" on="0"/>
        <pt x="270" y="-38" on="1"/>
        <pt x="193" y="39" on="0"/>
        <pt x="191" y="77" on="1"/>
        <pt x="130" y="170" on="0"/>
        <pt x="130" y="238" on="0"/>
        <pt x="112" y="238" on="1"/>
        <pt x="89" y="238" on="1"/>
        <pt x="137" y="319" on="0"/>
        <pt x="274" y="319" on="1"/>
      </contour>
      <contour>
        <pt x="439" y="1870" on="1"/>
        <pt x="342" y="1862" on="1"/>
        <pt x="71" y="2478" on="1"/>
        <pt x="83" y="2478" on="0"/>
        <pt x="220" y="2580" on="0"/>
        <pt x="223" y="2582" on="1"/>
        <pt x="228" y="2578" on="1"/>
        <pt x="244" y="2592" on="1"/>
        <pt x="345" y="2476" on="1"/>
        <pt x="342" y="2473" on="1"/>
        <pt x="368" y="2440" on="1"/>
        <pt x="372" y="2442" on="1"/>
        <pt x="431" y="2301" on="0"/>
        <pt x="521" y="2168" on="1"/>
        <pt x="583" y="2242" on="0"/>
        <pt x="637" y="2340" on="1"/>
        <pt x="736" y="2521" on="0"/>
        <pt x="818" y="2592" on="1"/>
        <pt x="834" y="2578" on="1"/>
        <pt x="839" y="2582" on="1"/>
        <pt x="994" y="2432" on="1"/>
        <pt x="702" y="1862" on="1"/>
        <pt x="709" y="1859" on="1"/>
        <pt x="691" y="1856" on="1"/>
        <pt x="663" y="1856" on="0"/>
        <pt x="584" y="1870" on="1"/>
        <pt x="584" y="1872" on="1"/>
        <pt x="514" y="1879" on="0"/>
        <pt x="475" y="1879" on="1"/>
        <pt x="462" y="1867" on="1"/>
        <pt x="455" y="1870" on="0"/>
      </contour>
      <contour>
        <pt x="465" y="1864" on="1"/>
        <pt x="465" y="1864" on="0"/>
        <pt x="459" y="1864" on="1"/>
        <pt x="461" y="1866" on="1"/>
        <pt x="463" y="1867" on="0"/>
      </contour>
    </TTGlyph>
    <TTGlyph name="Scedilla" xMin="50" yMin="-676" xMax="1002" yMax="1512">
      <component glyphName="cedilla" x="335" y="8" flags="0x1004"/>
      <component glyphName="S" x="0" y="0" flags="0x1204"/>
    </TTGlyph>
    <TTGlyph name="Scircumflex" xMin="50" yMin="-178" xMax="1040" yMax="2343">
      <component glyphName="circumflex" x="33" y="201" flags="0x1004"/>
      <component glyphName="S" x="0" y="0" flags="0x1204"/>
    </TTGlyph>
    <TTGlyph name="T" xMin="60" yMin="-233" xMax="1205" yMax="1498">
      <contour>
        <pt x="517" y="-233" on="1"/>
        <pt x="538" y="178" on="1"/>
        <pt x="517" y="201" on="1"/>
        <pt x="501" y="481" on="1"/>
        <pt x="517" y="503" on="1"/>
        <pt x="517" y="548" on="1"/>
        <pt x="501" y="572" on="1"/>
        <pt x="517" y="592" on="0"/>
        <pt x="517" y="728" on="0"/>
        <pt x="481" y="781" on="1"/>
        <pt x="485" y="786" on="0"/>
        <pt x="485" y="791" on="1"/>
        <pt x="485" y="803" on="0"/>
        <pt x="412" y="803" on="0"/>
        <pt x="391" y="781" on="1"/>
        <pt x="326" y="781" on="0"/>
        <pt x="280" y="758" on="1"/>
        <pt x="260" y="781" on="1"/>
        <pt x="220" y="735" on="1"/>
        <pt x="220" y="974" on="0"/>
        <pt x="191" y="1190" on="0"/>
        <pt x="120" y="1383" on="1"/>
        <pt x="60" y="1429" on="1"/>
        <pt x="79" y="1452" on="1"/>
        <pt x="139" y="1449" on="1"/>
        <pt x="152" y="1447" on="0"/>
        <pt x="202" y="1475" on="0"/>
        <pt x="260" y="1474" on="0"/>
        <pt x="424" y="1498" on="0"/>
        <pt x="465" y="1498" on="1"/>
        <pt x="758" y="1498" on="1"/>
        <pt x="832" y="1498" on="0"/>
        <pt x="1133" y="1430" on="0"/>
        <pt x="1205" y="1429" on="1"/>
        <pt x="1205" y="1363" on="0"/>
        <pt x="1104" y="1259" on="0"/>
        <pt x="1104" y="1221" on="1"/>
        <pt x="1086" y="1197" on="1"/>
        <pt x="1126" y="1174" on="1"/>
        <pt x="1066" y="735" on="1"/>
        <pt x="1045" y="758" on="1"/>
        <pt x="1025" y="758" on="1"/>
        <pt x="1005" y="781" on="1"/>
        <pt x="970" y="781" on="0"/>
        <pt x="863" y="827" on="0"/>
        <pt x="838" y="827" on="1"/>
        <pt x="838" y="735" on="0"/>
        <pt x="818" y="712" on="1"/>
        <pt x="838" y="688" on="1"/>
        <pt x="838" y="526" on="1"/>
        <pt x="818" y="503" on="1"/>
        <pt x="818" y="431" on="1"/>
        <pt x="838" y="409" on="1"/>
        <pt x="799" y="294" on="1"/>
        <pt x="818" y="271" on="1"/>
        <pt x="818" y="250" on="1"/>
        <pt x="799" y="226" on="1"/>
        <pt x="818" y="201" on="1"/>
        <pt x="818" y="-53" on="1"/>
        <pt x="797" y="-186" on="1"/>
        <pt x="776" y="-186" on="0"/>
        <pt x="774" y="-195" on="1"/>
        <pt x="774" y="-149" on="0"/>
        <pt x="779" y="-124" on="1"/>
        <pt x="739" y="-99" on="1"/>
        <pt x="718" y="-124" on="1"/>
        <pt x="718" y="-192" on="1"/>
        <pt x="677" y="-192" on="1"/>
        <pt x="677" y="-145" on="1"/>
        <pt x="654" y="-175" on="0"/>
        <pt x="614" y="-175" on="1"/>
        <pt x="558" y="-168" on="1"/>
        <pt x="556" y="-176" on="0"/>
        <pt x="556" y="-192" on="1"/>
        <pt x="556" y="-191" on="0"/>
        <pt x="578" y="-187" on="0"/>
        <pt x="578" y="-186" on="1"/>
        <pt x="578" y="-207" on="0"/>
        <pt x="537" y="-233" on="0"/>
      </contour>
    </TTGlyph>
    <TTGlyph name="Tcaron" xMin="60" yMin="-233" xMax="1205" yMax="2377">
      <component glyphName="caron" x="145" y="196" flags="0x1004"/>
      <component glyphName="T" x="0" y="0" flags="0x1204"/>
    </TTGlyph>
    <TTGlyph name="Tcommaaccent" xMin="60" yMin="-825" xMax="1205" yMax="1498">
      <component glyphName="cedilla" x="439" y="-142" flags="0x1004"/>
      <component glyphName="T" x="0" y="0" flags="0x1204"/>
    </TTGlyph>
    <TTGlyph name="Thorn" xMin="3" yMin="-260" xMax="1005" yMax="1878">
      <contour>
        <pt x="344" y="-97" on="1"/>
        <pt x="345" y="-119" on="0"/>
        <pt x="364" y="-234" on="1"/>
        <pt x="344" y="-260" on="1"/>
        <pt x="320" y="-259" on="0"/>
        <pt x="306" y="-229" on="1"/>
        <pt x="284" y="-185" on="0"/>
        <pt x="284" y="-62" on="0"/>
        <pt x="229" y="127" on="0"/>
        <pt x="229" y="193" on="0"/>
        <pt x="248" y="263" on="0"/>
        <pt x="259" y="274" on="1"/>
        <pt x="238" y="315" on="1"/>
        <pt x="240" y="339" on="1"/>
        <pt x="244" y="337" on="1"/>
        <pt x="242" y="342" on="1"/>
        <pt x="228" y="346" on="1"/>
        <pt x="226" y="394" on="1"/>
        <pt x="224" y="394" on="1"/>
        <pt x="219" y="422" on="0"/>
        <pt x="160" y="735" on="0"/>
        <pt x="148" y="806" on="1"/>
        <pt x="110" y="1044" on="0"/>
        <pt x="110" y="1304" on="0"/>
        <pt x="47" y="1655" on="0"/>
        <pt x="47" y="1737" on="1"/>
        <pt x="49" y="1770" on="1"/>
        <pt x="3" y="1796" on="1"/>
        <pt x="15" y="1818" on="1"/>
        <pt x="53" y="1821" on="0"/>
        <pt x="206" y="1861" on="0"/>
        <pt x="246" y="1864" on="1"/>
        <pt x="255" y="1841" on="1"/>
        <pt x="282" y="1841" on="0"/>
        <pt x="388" y="1869" on="0"/>
        <pt x="416" y="1869" on="1"/>
        <pt x="436" y="1849" on="1"/>
        <pt x="468" y="1859" on="0"/>
        <pt x="590" y="1872" on="0"/>
        <pt x="616" y="1878" on="1"/>
        <pt x="610" y="1863" on="0"/>
        <pt x="588" y="1810" on="0"/>
        <pt x="582" y="1794" on="1"/>
        <pt x="565" y="1751" on="0"/>
        <pt x="565" y="1674" on="0"/>
        <pt x="534" y="1541" on="1"/>
        <pt x="555" y="1518" on="1"/>
        <pt x="552" y="1505" on="1"/>
        <pt x="557" y="1505" on="1"/>
        <pt x="586" y="1505" on="0"/>
        <pt x="604" y="1482" on="1"/>
        <pt x="662" y="1525" on="1"/>
        <pt x="662" y="1493" on="0"/>
        <pt x="787" y="1493" on="1"/>
        <pt x="784" y="1500" on="1"/>
        <pt x="946" y="1500" on="0"/>
        <pt x="992" y="1297" on="1"/>
        <pt x="1005" y="1242" on="0"/>
        <pt x="1005" y="1142" on="0"/>
        <pt x="998" y="1008" on="0"/>
        <pt x="981" y="802" on="0"/>
        <pt x="945" y="603" on="0"/>
        <pt x="896" y="425" on="0"/>
        <pt x="817" y="315" on="0"/>
        <pt x="769" y="315" on="1"/>
        <pt x="749" y="315" on="0"/>
        <pt x="691" y="339" on="0"/>
        <pt x="685" y="339" on="0"/>
        <pt x="681" y="320" on="0"/>
        <pt x="668" y="320" on="1"/>
        <pt x="662" y="320" on="1"/>
        <pt x="662" y="342" on="1"/>
        <pt x="609" y="315" on="1"/>
        <pt x="604" y="342" on="1"/>
        <pt x="583" y="342" on="1"/>
        <pt x="583" y="334" on="1"/>
        <pt x="565" y="342" on="1"/>
        <pt x="562" y="342" on="1"/>
        <pt x="562" y="320" on="1"/>
        <pt x="544" y="296" on="1"/>
        <pt x="559" y="48" on="1"/>
        <pt x="544" y="19" on="1"/>
        <pt x="550" y="19" on="1"/>
        <pt x="559" y="19" on="0"/>
        <pt x="566" y="-156" on="0"/>
        <pt x="574" y="-166" on="1"/>
        <pt x="562" y="-188" on="1"/>
        <pt x="562" y="-166" on="1"/>
        <pt x="539" y="-166" on="0"/>
        <pt x="539" y="-118" on="1"/>
        <pt x="541" y="-81" on="1"/>
        <pt x="534" y="-56" on="1"/>
        <pt x="502" y="-73" on="1"/>
        <pt x="502" y="-97" on="1"/>
        <pt x="483" y="-97" on="1"/>
        <pt x="494" y="-122" on="0"/>
        <pt x="507" y="-229" on="0"/>
        <pt x="508" y="-236" on="1"/>
        <pt x="483" y="-260" on="1"/>
        <pt x="458" y="-242" on="0"/>
        <pt x="458" y="-201" on="1"/>
        <pt x="462" y="-145" on="1"/>
        <pt x="445" y="-48" on="1"/>
        <pt x="404" y="-24" on="1"/>
        <pt x="346" y="-31" on="0"/>
        <pt x="344" y="-73" on="1"/>
        <pt x="360" y="-97" on="1"/>
      </contour>
      <contour>
        <pt x="687" y="876" on="1"/>
        <pt x="522" y="876" on="1"/>
        <pt x="522" y="854" on="1"/>
        <pt x="537" y="854" on="0"/>
        <pt x="544" y="846" on="0"/>
        <pt x="544" y="829" on="1"/>
        <pt x="544" y="783" on="1"/>
        <pt x="544" y="766" on="0"/>
        <pt x="537" y="760" on="0"/>
        <pt x="522" y="760" on="1"/>
        <pt x="544" y="738" on="1"/>
        <pt x="544" y="570" on="1"/>
        <pt x="562" y="551" on="1"/>
        <pt x="562" y="528" on="1"/>
        <pt x="583" y="528" on="0"/>
        <pt x="583" y="551" on="1"/>
        <pt x="731" y="551" on="1"/>
        <pt x="727" y="612" on="0"/>
        <pt x="730" y="663" on="1"/>
        <pt x="738" y="792" on="0"/>
      </contour>
    </TTGlyph>
</ttFont>
